<ttFont>
<head>
    <!-- Most of this table will be recalculated by the compiler -->
    <tableVersion value="1.0"/>
    <fontRevision value="5.0"/>
    <checkSumAdjustment value="0x97f8428e"/>
    <magicNumber value="0x5f0f3cf5"/>
    <flags value="00000000 00001011"/>
    <unitsPerEm value="2048"/>
    <created value="Sun May 15 08:57:39 2005"/>
    <modified value="Fri Apr 15 06:34:46 2011"/>
    <xMin value="-38"/>
    <yMin value="-1089"/>
    <xMax value="6260"/>
    <yMax value="2032"/>
    <macStyle value="00000000 00000000"/>
    <lowestRecPPEM value="8"/>
    <fontDirectionHint value="2"/>
    <indexToLocFormat value="1"/>
    <glyphDataFormat value="0"/>
  </head>
    <TTGlyph name=".notdef" xMin="142" yMin="226" xMax="842" yMax="1588">
      <contour>
        <pt x="142" y="226" on="1"/>
        <pt x="142" y="1588" on="1"/>
        <pt x="842" y="1588" on="1"/>
        <pt x="842" y="226" on="1"/>
      </contour>
      <contour>
        <pt x="284" y="368" on="1"/>
        <pt x="700" y="368" on="1"/>
        <pt x="700" y="1447" on="1"/>
        <pt x="284" y="1447" on="1"/>
      </contour>
    </TTGlyph>
    <TTGlyph name=".null" xMin="142" yMin="226" xMax="842" yMax="1588">
      <contour>
        <pt x="142" y="226" on="1"/>
        <pt x="142" y="1588" on="1"/>
        <pt x="842" y="1588" on="1"/>
        <pt x="842" y="226" on="1"/>
      </contour>
      <contour>
        <pt x="284" y="368" on="1"/>
        <pt x="700" y="368" on="1"/>
        <pt x="700" y="1447" on="1"/>
        <pt x="284" y="1447" on="1"/>
      </contour>
    </TTGlyph>
    <TTGlyph name="afii57381" xMin="142" yMin="226" xMax="842" yMax="1588">
      <contour>
        <pt x="142" y="226" on="1"/>
        <pt x="142" y="1588" on="1"/>
        <pt x="842" y="1588" on="1"/>
        <pt x="842" y="226" on="1"/>
      </contour>
      <contour>
        <pt x="284" y="368" on="1"/>
        <pt x="700" y="368" on="1"/>
        <pt x="700" y="1447" on="1"/>
        <pt x="284" y="1447" on="1"/>
      </contour>
    </TTGlyph>
    <TTGlyph name="afii57388" xMin="142" yMin="226" xMax="842" yMax="1588">
      <contour>
        <pt x="142" y="226" on="1"/>
        <pt x="142" y="1588" on="1"/>
        <pt x="842" y="1588" on="1"/>
        <pt x="842" y="226" on="1"/>
      </contour>
      <contour>
        <pt x="284" y="368" on="1"/>
        <pt x="700" y="368" on="1"/>
        <pt x="700" y="1447" on="1"/>
        <pt x="284" y="1447" on="1"/>
      </contour>
    </TTGlyph>
    <TTGlyph name="afii57396" xMin="142" yMin="226" xMax="842" yMax="1588">
      <contour>
        <pt x="142" y="226" on="1"/>
        <pt x="142" y="1588" on="1"/>
        <pt x="842" y="1588" on="1"/>
        <pt x="842" y="226" on="1"/>
      </contour>
      <contour>
        <pt x="284" y="368" on="1"/>
        <pt x="700" y="368" on="1"/>
        <pt x="700" y="1447" on="1"/>
        <pt x="284" y="1447" on="1"/>
      </contour>
    </TTGlyph>
    <TTGlyph name="afii57397" xMin="142" yMin="226" xMax="842" yMax="1588">
      <contour>
        <pt x="142" y="226" on="1"/>
        <pt x="142" y="1588" on="1"/>
        <pt x="842" y="1588" on="1"/>
        <pt x="842" y="226" on="1"/>
      </contour>
      <contour>
        <pt x="284" y="368" on="1"/>
        <pt x="700" y="368" on="1"/>
        <pt x="700" y="1447" on="1"/>
        <pt x="284" y="1447" on="1"/>
      </contour>
    </TTGlyph>
    <TTGlyph name="afii57398" xMin="142" yMin="226" xMax="842" yMax="1588">
      <contour>
        <pt x="142" y="226" on="1"/>
        <pt x="142" y="1588" on="1"/>
        <pt x="842" y="1588" on="1"/>
        <pt x="842" y="226" on="1"/>
      </contour>
      <contour>
        <pt x="284" y="368" on="1"/>
        <pt x="700" y="368" on="1"/>
        <pt x="700" y="1447" on="1"/>
        <pt x="284" y="1447" on="1"/>
      </contour>
    </TTGlyph>
    <TTGlyph name="afii57403" xMin="142" yMin="226" xMax="842" yMax="1588">
      <contour>
        <pt x="142" y="226" on="1"/>
        <pt x="142" y="1588" on="1"/>
        <pt x="842" y="1588" on="1"/>
        <pt x="842" y="226" on="1"/>
      </contour>
      <contour>
        <pt x="284" y="368" on="1"/>
        <pt x="700" y="368" on="1"/>
        <pt x="700" y="1447" on="1"/>
        <pt x="284" y="1447" on="1"/>
      </contour>
    </TTGlyph>
    <TTGlyph name="afii57407" xMin="142" yMin="226" xMax="842" yMax="1588">
      <contour>
        <pt x="142" y="226" on="1"/>
        <pt x="142" y="1588" on="1"/>
        <pt x="842" y="1588" on="1"/>
        <pt x="842" y="226" on="1"/>
      </contour>
      <contour>
        <pt x="284" y="368" on="1"/>
        <pt x="700" y="368" on="1"/>
        <pt x="700" y="1447" on="1"/>
        <pt x="284" y="1447" on="1"/>
      </contour>
    </TTGlyph>
    <TTGlyph name="afii57440" xMin="142" yMin="226" xMax="842" yMax="1588">
      <contour>
        <pt x="142" y="226" on="1"/>
        <pt x="142" y="1588" on="1"/>
        <pt x="842" y="1588" on="1"/>
        <pt x="842" y="226" on="1"/>
      </contour>
      <contour>
        <pt x="284" y="368" on="1"/>
        <pt x="700" y="368" on="1"/>
        <pt x="700" y="1447" on="1"/>
        <pt x="284" y="1447" on="1"/>
      </contour>
    </TTGlyph>
    <TTGlyph name="afii57451" xMin="142" yMin="226" xMax="842" yMax="1588">
      <contour>
        <pt x="142" y="226" on="1"/>
        <pt x="142" y="1588" on="1"/>
        <pt x="842" y="1588" on="1"/>
        <pt x="842" y="226" on="1"/>
      </contour>
      <contour>
        <pt x="284" y="368" on="1"/>
        <pt x="700" y="368" on="1"/>
        <pt x="700" y="1447" on="1"/>
        <pt x="284" y="1447" on="1"/>
      </contour>
    </TTGlyph>
    <TTGlyph name="afii57452" xMin="142" yMin="226" xMax="842" yMax="1588">
      <contour>
        <pt x="142" y="226" on="1"/>
        <pt x="142" y="1588" on="1"/>
        <pt x="842" y="1588" on="1"/>
        <pt x="842" y="226" on="1"/>
      </contour>
      <contour>
        <pt x="284" y="368" on="1"/>
        <pt x="700" y="368" on="1"/>
        <pt x="700" y="1447" on="1"/>
        <pt x="284" y="1447" on="1"/>
      </contour>
    </TTGlyph>
    <TTGlyph name="afii57453" xMin="142" yMin="226" xMax="842" yMax="1588">
      <contour>
        <pt x="142" y="226" on="1"/>
        <pt x="142" y="1588" on="1"/>
        <pt x="842" y="1588" on="1"/>
        <pt x="842" y="226" on="1"/>
      </contour>
      <contour>
        <pt x="284" y="368" on="1"/>
        <pt x="700" y="368" on="1"/>
        <pt x="700" y="1447" on="1"/>
        <pt x="284" y="1447" on="1"/>
      </contour>
    </TTGlyph>
    <TTGlyph name="afii57454" xMin="142" yMin="226" xMax="842" yMax="1588">
      <contour>
        <pt x="142" y="226" on="1"/>
        <pt x="142" y="1588" on="1"/>
        <pt x="842" y="1588" on="1"/>
        <pt x="842" y="226" on="1"/>
      </contour>
      <contour>
        <pt x="284" y="368" on="1"/>
        <pt x="700" y="368" on="1"/>
        <pt x="700" y="1447" on="1"/>
        <pt x="284" y="1447" on="1"/>
      </contour>
    </TTGlyph>
    <TTGlyph name="afii57455" xMin="142" yMin="226" xMax="842" yMax="1588">
      <contour>
        <pt x="142" y="226" on="1"/>
        <pt x="142" y="1588" on="1"/>
        <pt x="842" y="1588" on="1"/>
        <pt x="842" y="226" on="1"/>
      </contour>
      <contour>
        <pt x="284" y="368" on="1"/>
        <pt x="700" y="368" on="1"/>
        <pt x="700" y="1447" on="1"/>
        <pt x="284" y="1447" on="1"/>
      </contour>
    </TTGlyph>
    <TTGlyph name="afii57456" xMin="142" yMin="226" xMax="842" yMax="1588">
      <contour>
        <pt x="142" y="226" on="1"/>
        <pt x="142" y="1588" on="1"/>
        <pt x="842" y="1588" on="1"/>
        <pt x="842" y="226" on="1"/>
      </contour>
      <contour>
        <pt x="284" y="368" on="1"/>
        <pt x="700" y="368" on="1"/>
        <pt x="700" y="1447" on="1"/>
        <pt x="284" y="1447" on="1"/>
      </contour>
    </TTGlyph>
    <TTGlyph name="afii57457" xMin="142" yMin="226" xMax="842" yMax="1588">
      <contour>
        <pt x="142" y="226" on="1"/>
        <pt x="142" y="1588" on="1"/>
        <pt x="842" y="1588" on="1"/>
        <pt x="842" y="226" on="1"/>
      </contour>
      <contour>
        <pt x="284" y="368" on="1"/>
        <pt x="700" y="368" on="1"/>
        <pt x="700" y="1447" on="1"/>
        <pt x="284" y="1447" on="1"/>
      </contour>
    </TTGlyph>
    <TTGlyph name="afii57458" xMin="142" yMin="226" xMax="842" yMax="1588">
      <contour>
        <pt x="142" y="226" on="1"/>
        <pt x="142" y="1588" on="1"/>
        <pt x="842" y="1588" on="1"/>
        <pt x="842" y="226" on="1"/>
      </contour>
      <contour>
        <pt x="284" y="368" on="1"/>
        <pt x="700" y="368" on="1"/>
        <pt x="700" y="1447" on="1"/>
        <pt x="284" y="1447" on="1"/>
      </contour>
    </TTGlyph>
    <TTGlyph name="afii57505" xMin="142" yMin="226" xMax="842" yMax="1588">
      <contour>
        <pt x="142" y="226" on="1"/>
        <pt x="142" y="1588" on="1"/>
        <pt x="842" y="1588" on="1"/>
        <pt x="842" y="226" on="1"/>
      </contour>
      <contour>
        <pt x="284" y="368" on="1"/>
        <pt x="700" y="368" on="1"/>
        <pt x="700" y="1447" on="1"/>
        <pt x="284" y="1447" on="1"/>
      </contour>
    </TTGlyph>
    <TTGlyph name="afii57506" xMin="142" yMin="226" xMax="842" yMax="1588">
      <contour>
        <pt x="142" y="226" on="1"/>
        <pt x="142" y="1588" on="1"/>
        <pt x="842" y="1588" on="1"/>
        <pt x="842" y="226" on="1"/>
      </contour>
      <contour>
        <pt x="284" y="368" on="1"/>
        <pt x="700" y="368" on="1"/>
        <pt x="700" y="1447" on="1"/>
        <pt x="284" y="1447" on="1"/>
      </contour>
    </TTGlyph>
    <TTGlyph name="afii57507" xMin="142" yMin="226" xMax="842" yMax="1588">
      <contour>
        <pt x="142" y="226" on="1"/>
        <pt x="142" y="1588" on="1"/>
        <pt x="842" y="1588" on="1"/>
        <pt x="842" y="226" on="1"/>
      </contour>
      <contour>
        <pt x="284" y="368" on="1"/>
        <pt x="700" y="368" on="1"/>
        <pt x="700" y="1447" on="1"/>
        <pt x="284" y="1447" on="1"/>
      </contour>
    </TTGlyph>
    <TTGlyph name="afii57508" xMin="142" yMin="226" xMax="842" yMax="1588">
      <contour>
        <pt x="142" y="226" on="1"/>
        <pt x="142" y="1588" on="1"/>
        <pt x="842" y="1588" on="1"/>
        <pt x="842" y="226" on="1"/>
      </contour>
      <contour>
        <pt x="284" y="368" on="1"/>
        <pt x="700" y="368" on="1"/>
        <pt x="700" y="1447" on="1"/>
        <pt x="284" y="1447" on="1"/>
      </contour>
    </TTGlyph>
    <TTGlyph name="afii57509" xMin="142" yMin="226" xMax="842" yMax="1588">
      <contour>
        <pt x="142" y="226" on="1"/>
        <pt x="142" y="1588" on="1"/>
        <pt x="842" y="1588" on="1"/>
        <pt x="842" y="226" on="1"/>
      </contour>
      <contour>
        <pt x="284" y="368" on="1"/>
        <pt x="700" y="368" on="1"/>
        <pt x="700" y="1447" on="1"/>
        <pt x="284" y="1447" on="1"/>
      </contour>
    </TTGlyph>
    <TTGlyph name="afii57511" xMin="142" yMin="226" xMax="842" yMax="1588">
      <contour>
        <pt x="142" y="226" on="1"/>
        <pt x="142" y="1588" on="1"/>
        <pt x="842" y="1588" on="1"/>
        <pt x="842" y="226" on="1"/>
      </contour>
      <contour>
        <pt x="284" y="368" on="1"/>
        <pt x="700" y="368" on="1"/>
        <pt x="700" y="1447" on="1"/>
        <pt x="284" y="1447" on="1"/>
      </contour>
    </TTGlyph>
    <TTGlyph name="afii57512" xMin="142" yMin="226" xMax="842" yMax="1588">
      <contour>
        <pt x="142" y="226" on="1"/>
        <pt x="142" y="1588" on="1"/>
        <pt x="842" y="1588" on="1"/>
        <pt x="842" y="226" on="1"/>
      </contour>
      <contour>
        <pt x="284" y="368" on="1"/>
        <pt x="700" y="368" on="1"/>
        <pt x="700" y="1447" on="1"/>
        <pt x="284" y="1447" on="1"/>
      </contour>
    </TTGlyph>
    <TTGlyph name="afii57513" xMin="142" yMin="226" xMax="842" yMax="1588">
      <contour>
        <pt x="142" y="226" on="1"/>
        <pt x="142" y="1588" on="1"/>
        <pt x="842" y="1588" on="1"/>
        <pt x="842" y="226" on="1"/>
      </contour>
      <contour>
        <pt x="284" y="368" on="1"/>
        <pt x="700" y="368" on="1"/>
        <pt x="700" y="1447" on="1"/>
        <pt x="284" y="1447" on="1"/>
      </contour>
    </TTGlyph>
    <TTGlyph name="afii57514" xMin="142" yMin="226" xMax="842" yMax="1588">
      <contour>
        <pt x="142" y="226" on="1"/>
        <pt x="142" y="1588" on="1"/>
        <pt x="842" y="1588" on="1"/>
        <pt x="842" y="226" on="1"/>
      </contour>
      <contour>
        <pt x="284" y="368" on="1"/>
        <pt x="700" y="368" on="1"/>
        <pt x="700" y="1447" on="1"/>
        <pt x="284" y="1447" on="1"/>
      </contour>
    </TTGlyph>
    <TTGlyph name="afii57519" xMin="142" yMin="226" xMax="842" yMax="1588">
      <contour>
        <pt x="142" y="226" on="1"/>
        <pt x="142" y="1588" on="1"/>
        <pt x="842" y="1588" on="1"/>
        <pt x="842" y="226" on="1"/>
      </contour>
      <contour>
        <pt x="284" y="368" on="1"/>
        <pt x="700" y="368" on="1"/>
        <pt x="700" y="1447" on="1"/>
        <pt x="284" y="1447" on="1"/>
      </contour>
    </TTGlyph>
    <TTGlyph name="afii57534" xMin="142" yMin="226" xMax="842" yMax="1588">
      <contour>
        <pt x="142" y="226" on="1"/>
        <pt x="142" y="1588" on="1"/>
        <pt x="842" y="1588" on="1"/>
        <pt x="842" y="226" on="1"/>
      </contour>
      <contour>
        <pt x="284" y="368" on="1"/>
        <pt x="700" y="368" on="1"/>
        <pt x="700" y="1447" on="1"/>
        <pt x="284" y="1447" on="1"/>
      </contour>
    </TTGlyph>
    <TTGlyph name="afii63167" xMin="142" yMin="226" xMax="842" yMax="1588">
      <contour>
        <pt x="142" y="226" on="1"/>
        <pt x="142" y="1588" on="1"/>
        <pt x="842" y="1588" on="1"/>
        <pt x="842" y="226" on="1"/>
      </contour>
      <contour>
        <pt x="284" y="368" on="1"/>
        <pt x="700" y="368" on="1"/>
        <pt x="700" y="1447" on="1"/>
        <pt x="284" y="1447" on="1"/>
      </contour>
    </TTGlyph>
    <TTGlyph name="alefmaksurainitial" xMin="142" yMin="226" xMax="842" yMax="1588">
      <contour>
        <pt x="142" y="226" on="1"/>
        <pt x="142" y="1588" on="1"/>
        <pt x="842" y="1588" on="1"/>
        <pt x="842" y="226" on="1"/>
      </contour>
      <contour>
        <pt x="284" y="368" on="1"/>
        <pt x="700" y="368" on="1"/>
        <pt x="700" y="1447" on="1"/>
        <pt x="284" y="1447" on="1"/>
      </contour>
    </TTGlyph>
    <TTGlyph name="alefwaslafinalarabic" xMin="142" yMin="226" xMax="842" yMax="1588">
      <contour>
        <pt x="142" y="226" on="1"/>
        <pt x="142" y="1588" on="1"/>
        <pt x="842" y="1588" on="1"/>
        <pt x="842" y="226" on="1"/>
      </contour>
      <contour>
        <pt x="284" y="368" on="1"/>
        <pt x="700" y="368" on="1"/>
        <pt x="700" y="1447" on="1"/>
        <pt x="284" y="1447" on="1"/>
      </contour>
    </TTGlyph>
    <TTGlyph name="ampersand" xMin="142" yMin="226" xMax="842" yMax="1588">
      <contour>
        <pt x="142" y="226" on="1"/>
        <pt x="142" y="1588" on="1"/>
        <pt x="842" y="1588" on="1"/>
        <pt x="842" y="226" on="1"/>
      </contour>
      <contour>
        <pt x="284" y="368" on="1"/>
        <pt x="700" y="368" on="1"/>
        <pt x="700" y="1447" on="1"/>
        <pt x="284" y="1447" on="1"/>
      </contour>
    </TTGlyph>
    <TTGlyph name="asterisk" xMin="142" yMin="226" xMax="842" yMax="1588">
      <contour>
        <pt x="142" y="226" on="1"/>
        <pt x="142" y="1588" on="1"/>
        <pt x="842" y="1588" on="1"/>
        <pt x="842" y="226" on="1"/>
      </contour>
      <contour>
        <pt x="284" y="368" on="1"/>
        <pt x="700" y="368" on="1"/>
        <pt x="700" y="1447" on="1"/>
        <pt x="284" y="1447" on="1"/>
      </contour>
    </TTGlyph>
    <TTGlyph name="behmeemisolatedarabic" xMin="142" yMin="226" xMax="842" yMax="1588">
      <contour>
        <pt x="142" y="226" on="1"/>
        <pt x="142" y="1588" on="1"/>
        <pt x="842" y="1588" on="1"/>
        <pt x="842" y="226" on="1"/>
      </contour>
      <contour>
        <pt x="284" y="368" on="1"/>
        <pt x="700" y="368" on="1"/>
        <pt x="700" y="1447" on="1"/>
        <pt x="284" y="1447" on="1"/>
      </contour>
    </TTGlyph>
    <TTGlyph name="behnoonfinalarabic" xMin="142" yMin="226" xMax="842" yMax="1588">
      <contour>
        <pt x="142" y="226" on="1"/>
        <pt x="142" y="1588" on="1"/>
        <pt x="842" y="1588" on="1"/>
        <pt x="842" y="226" on="1"/>
      </contour>
      <contour>
        <pt x="284" y="368" on="1"/>
        <pt x="700" y="368" on="1"/>
        <pt x="700" y="1447" on="1"/>
        <pt x="284" y="1447" on="1"/>
      </contour>
    </TTGlyph>
    <TTGlyph name="colon" xMin="142" yMin="226" xMax="842" yMax="1588">
      <contour>
        <pt x="142" y="226" on="1"/>
        <pt x="142" y="1588" on="1"/>
        <pt x="842" y="1588" on="1"/>
        <pt x="842" y="226" on="1"/>
      </contour>
      <contour>
        <pt x="284" y="368" on="1"/>
        <pt x="700" y="368" on="1"/>
        <pt x="700" y="1447" on="1"/>
        <pt x="284" y="1447" on="1"/>
      </contour>
    </TTGlyph>
    <TTGlyph name="dagger" xMin="142" yMin="226" xMax="842" yMax="1588">
      <contour>
        <pt x="142" y="226" on="1"/>
        <pt x="142" y="1588" on="1"/>
        <pt x="842" y="1588" on="1"/>
        <pt x="842" y="226" on="1"/>
      </contour>
      <contour>
        <pt x="284" y="368" on="1"/>
        <pt x="700" y="368" on="1"/>
        <pt x="700" y="1447" on="1"/>
        <pt x="284" y="1447" on="1"/>
      </contour>
    </TTGlyph>
    <TTGlyph name="dalringfinal" xMin="142" yMin="226" xMax="842" yMax="1588">
      <contour>
        <pt x="142" y="226" on="1"/>
        <pt x="142" y="1588" on="1"/>
        <pt x="842" y="1588" on="1"/>
        <pt x="842" y="226" on="1"/>
      </contour>
      <contour>
        <pt x="284" y="368" on="1"/>
        <pt x="700" y="368" on="1"/>
        <pt x="700" y="1447" on="1"/>
        <pt x="284" y="1447" on="1"/>
      </contour>
    </TTGlyph>
    <TTGlyph name="ddalfinalarabic" xMin="142" yMin="226" xMax="842" yMax="1588">
      <contour>
        <pt x="142" y="226" on="1"/>
        <pt x="142" y="1588" on="1"/>
        <pt x="842" y="1588" on="1"/>
        <pt x="842" y="226" on="1"/>
      </contour>
      <contour>
        <pt x="284" y="368" on="1"/>
        <pt x="700" y="368" on="1"/>
        <pt x="700" y="1447" on="1"/>
        <pt x="284" y="1447" on="1"/>
      </contour>
    </TTGlyph>
    <TTGlyph name="divide" xMin="142" yMin="226" xMax="842" yMax="1588">
      <contour>
        <pt x="142" y="226" on="1"/>
        <pt x="142" y="1588" on="1"/>
        <pt x="842" y="1588" on="1"/>
        <pt x="842" y="226" on="1"/>
      </contour>
      <contour>
        <pt x="284" y="368" on="1"/>
        <pt x="700" y="368" on="1"/>
        <pt x="700" y="1447" on="1"/>
        <pt x="284" y="1447" on="1"/>
      </contour>
    </TTGlyph>
    <TTGlyph name="dollar" xMin="142" yMin="226" xMax="842" yMax="1588">
      <contour>
        <pt x="142" y="226" on="1"/>
        <pt x="142" y="1588" on="1"/>
        <pt x="842" y="1588" on="1"/>
        <pt x="842" y="226" on="1"/>
      </contour>
      <contour>
        <pt x="284" y="368" on="1"/>
        <pt x="700" y="368" on="1"/>
        <pt x="700" y="1447" on="1"/>
        <pt x="284" y="1447" on="1"/>
      </contour>
    </TTGlyph>
    <TTGlyph name="dotlessyehfinalarabic" xMin="142" yMin="226" xMax="842" yMax="1588">
      <contour>
        <pt x="142" y="226" on="1"/>
        <pt x="142" y="1588" on="1"/>
        <pt x="842" y="1588" on="1"/>
        <pt x="842" y="226" on="1"/>
      </contour>
      <contour>
        <pt x="284" y="368" on="1"/>
        <pt x="700" y="368" on="1"/>
        <pt x="700" y="1447" on="1"/>
        <pt x="284" y="1447" on="1"/>
      </contour>
    </TTGlyph>
    <TTGlyph name="dotlessyehinitialarabic" xMin="142" yMin="226" xMax="842" yMax="1588">
      <contour>
        <pt x="142" y="226" on="1"/>
        <pt x="142" y="1588" on="1"/>
        <pt x="842" y="1588" on="1"/>
        <pt x="842" y="226" on="1"/>
      </contour>
      <contour>
        <pt x="284" y="368" on="1"/>
        <pt x="700" y="368" on="1"/>
        <pt x="700" y="1447" on="1"/>
        <pt x="284" y="1447" on="1"/>
      </contour>
    </TTGlyph>
    <TTGlyph name="dotlessyehmedialarabic" xMin="142" yMin="226" xMax="842" yMax="1588">
      <contour>
        <pt x="142" y="226" on="1"/>
        <pt x="142" y="1588" on="1"/>
        <pt x="842" y="1588" on="1"/>
        <pt x="842" y="226" on="1"/>
      </contour>
      <contour>
        <pt x="284" y="368" on="1"/>
        <pt x="700" y="368" on="1"/>
        <pt x="700" y="1447" on="1"/>
        <pt x="284" y="1447" on="1"/>
      </contour>
    </TTGlyph>
    <TTGlyph name="elefmaksuramedial" xMin="142" yMin="226" xMax="842" yMax="1588">
      <contour>
        <pt x="142" y="226" on="1"/>
        <pt x="142" y="1588" on="1"/>
        <pt x="842" y="1588" on="1"/>
        <pt x="842" y="226" on="1"/>
      </contour>
      <contour>
        <pt x="284" y="368" on="1"/>
        <pt x="700" y="368" on="1"/>
        <pt x="700" y="1447" on="1"/>
        <pt x="284" y="1447" on="1"/>
      </contour>
    </TTGlyph>
    <TTGlyph name="ellipsis" xMin="142" yMin="226" xMax="842" yMax="1588">
      <contour>
        <pt x="142" y="226" on="1"/>
        <pt x="142" y="1588" on="1"/>
        <pt x="842" y="1588" on="1"/>
        <pt x="842" y="226" on="1"/>
      </contour>
      <contour>
        <pt x="284" y="368" on="1"/>
        <pt x="700" y="368" on="1"/>
        <pt x="700" y="1447" on="1"/>
        <pt x="284" y="1447" on="1"/>
      </contour>
    </TTGlyph>
    <TTGlyph name="emdash" xMin="279" yMin="1460" xMax="2332" yMax="2032">
      <contour>
        <pt x="2332" y="1568" on="1"/>
        <pt x="2283" y="1520" on="0"/>
        <pt x="2067" y="1513" on="1"/>
        <pt x="1888" y="1510" on="0"/>
        <pt x="1708" y="1507" on="1"/>
        <pt x="786" y="1460" on="0"/>
        <pt x="895" y="1460" on="1"/>
        <pt x="640" y="1460" on="1"/>
        <pt x="614" y="1460" on="0"/>
        <pt x="435" y="1472" on="0"/>
        <pt x="398" y="1473" on="1"/>
        <pt x="354" y="1488" on="0"/>
        <pt x="284" y="1513" on="1"/>
        <pt x="279" y="1574" on="0"/>
        <pt x="461" y="1641" on="1"/>
        <pt x="656" y="1712" on="0"/>
        <pt x="671" y="1752" on="1"/>
        <pt x="679" y="1776" on="0"/>
        <pt x="679" y="1804" on="1"/>
        <pt x="679" y="1842" on="0"/>
        <pt x="632" y="1994" on="0"/>
        <pt x="632" y="2032" on="1"/>
        <pt x="705" y="2032" on="0"/>
        <pt x="723" y="2020" on="1"/>
        <pt x="786" y="1963" on="0"/>
        <pt x="819" y="1859" on="1"/>
        <pt x="851" y="1774" on="0"/>
        <pt x="952" y="1714" on="1"/>
        <pt x="999" y="1685" on="0"/>
        <pt x="1079" y="1685" on="1"/>
        <pt x="1113" y="1685" on="0"/>
        <pt x="1285" y="1736" on="0"/>
        <pt x="1321" y="1736" on="1"/>
        <pt x="1350" y="1736" on="0"/>
        <pt x="1459" y="1715" on="0"/>
        <pt x="1493" y="1715" on="1"/>
        <pt x="1555" y="1715" on="0"/>
        <pt x="1924" y="1838" on="0"/>
        <pt x="2090" y="1838" on="1"/>
        <pt x="2168" y="1838" on="0"/>
        <pt x="2303" y="1787" on="0"/>
        <pt x="2303" y="1767" on="1"/>
        <pt x="2303" y="1694" on="0"/>
        <pt x="2051" y="1643" on="1"/>
        <pt x="1854" y="1603" on="0"/>
        <pt x="1706" y="1603" on="1"/>
        <pt x="1675" y="1603" on="0"/>
        <pt x="1342" y="1644" on="0"/>
        <pt x="1308" y="1644" on="1"/>
        <pt x="1274" y="1644" on="0"/>
        <pt x="1074" y="1603" on="0"/>
        <pt x="1040" y="1603" on="1"/>
        <pt x="1012" y="1603" on="0"/>
        <pt x="791" y="1655" on="0"/>
        <pt x="760" y="1655" on="1"/>
        <pt x="749" y="1655" on="0"/>
        <pt x="469" y="1576" on="1"/>
        <pt x="515" y="1542" on="0"/>
        <pt x="588" y="1542" on="1"/>
        <pt x="619" y="1542" on="0"/>
        <pt x="1888" y="1593" on="0"/>
        <pt x="1921" y="1593" on="1"/>
        <pt x="2270" y="1593" on="1"/>
      </contour>
      <contour>
        <pt x="2036" y="1744" on="1"/>
        <pt x="2012" y="1744" on="0"/>
        <pt x="1971" y="1756" on="1"/>
        <pt x="1830" y="1729" on="0"/>
        <pt x="1830" y="1697" on="1"/>
        <pt x="2005" y="1719" on="0"/>
      </contour>
    </TTGlyph>
    <TTGlyph name="endash" xMin="281" yMin="1460" xMax="1308" yMax="2032">
      <contour>
        <pt x="1308" y="1568" on="1"/>
        <pt x="1283" y="1520" on="0"/>
        <pt x="1175" y="1513" on="1"/>
        <pt x="1086" y="1510" on="0"/>
        <pt x="996" y="1507" on="1"/>
        <pt x="535" y="1460" on="0"/>
        <pt x="589" y="1460" on="1"/>
        <pt x="462" y="1460" on="1"/>
        <pt x="449" y="1460" on="0"/>
        <pt x="359" y="1472" on="0"/>
        <pt x="341" y="1473" on="1"/>
        <pt x="319" y="1488" on="0"/>
        <pt x="284" y="1513" on="1"/>
        <pt x="281" y="1574" on="0"/>
        <pt x="372" y="1641" on="1"/>
        <pt x="470" y="1712" on="0"/>
        <pt x="478" y="1752" on="1"/>
        <pt x="482" y="1776" on="0"/>
        <pt x="482" y="1804" on="1"/>
        <pt x="482" y="1842" on="0"/>
        <pt x="458" y="1994" on="0"/>
        <pt x="458" y="2032" on="1"/>
        <pt x="495" y="2032" on="0"/>
        <pt x="504" y="2020" on="1"/>
        <pt x="535" y="1963" on="0"/>
        <pt x="552" y="1859" on="1"/>
        <pt x="567" y="1774" on="0"/>
        <pt x="618" y="1714" on="1"/>
        <pt x="641" y="1685" on="0"/>
        <pt x="682" y="1685" on="1"/>
        <pt x="699" y="1685" on="0"/>
        <pt x="784" y="1736" on="0"/>
        <pt x="803" y="1736" on="1"/>
        <pt x="817" y="1736" on="0"/>
        <pt x="871" y="1715" on="0"/>
        <pt x="888" y="1715" on="1"/>
        <pt x="919" y="1715" on="0"/>
        <pt x="1104" y="1838" on="0"/>
        <pt x="1187" y="1838" on="1"/>
        <pt x="1226" y="1838" on="0"/>
        <pt x="1294" y="1787" on="0"/>
        <pt x="1294" y="1767" on="1"/>
        <pt x="1294" y="1694" on="0"/>
        <pt x="1168" y="1643" on="1"/>
        <pt x="1069" y="1603" on="0"/>
        <pt x="995" y="1603" on="1"/>
        <pt x="979" y="1603" on="0"/>
        <pt x="813" y="1644" on="0"/>
        <pt x="796" y="1644" on="1"/>
        <pt x="779" y="1644" on="0"/>
        <pt x="679" y="1603" on="0"/>
        <pt x="662" y="1603" on="1"/>
        <pt x="648" y="1603" on="0"/>
        <pt x="537" y="1655" on="0"/>
        <pt x="522" y="1655" on="1"/>
        <pt x="517" y="1655" on="0"/>
        <pt x="376" y="1576" on="1"/>
        <pt x="400" y="1542" on="0"/>
        <pt x="436" y="1542" on="1"/>
        <pt x="452" y="1542" on="0"/>
        <pt x="1086" y="1593" on="0"/>
        <pt x="1103" y="1593" on="1"/>
        <pt x="1277" y="1593" on="1"/>
      </contour>
      <contour>
        <pt x="1160" y="1744" on="1"/>
        <pt x="1148" y="1744" on="0"/>
        <pt x="1127" y="1756" on="1"/>
        <pt x="1057" y="1729" on="0"/>
        <pt x="1057" y="1697" on="1"/>
        <pt x="1144" y="1719" on="0"/>
      </contour>
    </TTGlyph>
    <TTGlyph name="equal" xMin="142" yMin="226" xMax="842" yMax="1588">
      <contour>
        <pt x="142" y="226" on="1"/>
        <pt x="142" y="1588" on="1"/>
        <pt x="842" y="1588" on="1"/>
        <pt x="842" y="226" on="1"/>
      </contour>
      <contour>
        <pt x="284" y="368" on="1"/>
        <pt x="700" y="368" on="1"/>
        <pt x="700" y="1447" on="1"/>
        <pt x="284" y="1447" on="1"/>
      </contour>
    </TTGlyph>
    <TTGlyph name="exclam" xMin="142" yMin="226" xMax="842" yMax="1588">
      <contour>
        <pt x="142" y="226" on="1"/>
        <pt x="142" y="1588" on="1"/>
        <pt x="842" y="1588" on="1"/>
        <pt x="842" y="226" on="1"/>
      </contour>
      <contour>
        <pt x="284" y="368" on="1"/>
        <pt x="700" y="368" on="1"/>
        <pt x="700" y="1447" on="1"/>
        <pt x="284" y="1447" on="1"/>
      </contour>
    </TTGlyph>
    <TTGlyph name="figuredash" xMin="283" yMin="1460" xMax="1073" yMax="2032">
      <contour>
        <pt x="1073" y="1568" on="1"/>
        <pt x="1054" y="1520" on="0"/>
        <pt x="971" y="1513" on="1"/>
        <pt x="902" y="1510" on="0"/>
        <pt x="833" y="1507" on="1"/>
        <pt x="478" y="1460" on="0"/>
        <pt x="520" y="1460" on="1"/>
        <pt x="422" y="1460" on="1"/>
        <pt x="412" y="1460" on="0"/>
        <pt x="343" y="1472" on="0"/>
        <pt x="329" y="1473" on="1"/>
        <pt x="312" y="1488" on="0"/>
        <pt x="285" y="1513" on="1"/>
        <pt x="283" y="1574" on="0"/>
        <pt x="353" y="1641" on="1"/>
        <pt x="428" y="1712" on="0"/>
        <pt x="434" y="1752" on="1"/>
        <pt x="437" y="1776" on="0"/>
        <pt x="437" y="1804" on="1"/>
        <pt x="437" y="1842" on="0"/>
        <pt x="419" y="1994" on="0"/>
        <pt x="419" y="2032" on="1"/>
        <pt x="447" y="2032" on="0"/>
        <pt x="454" y="2020" on="1"/>
        <pt x="478" y="1963" on="0"/>
        <pt x="491" y="1859" on="1"/>
        <pt x="503" y="1774" on="0"/>
        <pt x="542" y="1714" on="1"/>
        <pt x="560" y="1685" on="0"/>
        <pt x="591" y="1685" on="1"/>
        <pt x="604" y="1685" on="0"/>
        <pt x="670" y="1736" on="0"/>
        <pt x="684" y="1736" on="1"/>
        <pt x="695" y="1736" on="0"/>
        <pt x="737" y="1715" on="0"/>
        <pt x="750" y="1715" on="1"/>
        <pt x="774" y="1715" on="0"/>
        <pt x="916" y="1838" on="0"/>
        <pt x="980" y="1838" on="1"/>
        <pt x="1010" y="1838" on="0"/>
        <pt x="1062" y="1787" on="0"/>
        <pt x="1062" y="1767" on="1"/>
        <pt x="1062" y="1694" on="0"/>
        <pt x="965" y="1643" on="1"/>
        <pt x="889" y="1603" on="0"/>
        <pt x="832" y="1603" on="1"/>
        <pt x="820" y="1603" on="0"/>
        <pt x="692" y="1644" on="0"/>
        <pt x="679" y="1644" on="1"/>
        <pt x="666" y="1644" on="0"/>
        <pt x="589" y="1603" on="0"/>
        <pt x="576" y="1603" on="1"/>
        <pt x="565" y="1603" on="0"/>
        <pt x="480" y="1655" on="0"/>
        <pt x="468" y="1655" on="1"/>
        <pt x="464" y="1655" on="0"/>
        <pt x="356" y="1576" on="1"/>
        <pt x="374" y="1542" on="0"/>
        <pt x="402" y="1542" on="1"/>
        <pt x="414" y="1542" on="0"/>
        <pt x="902" y="1593" on="0"/>
        <pt x="915" y="1593" on="1"/>
        <pt x="1049" y="1593" on="1"/>
      </contour>
      <contour>
        <pt x="959" y="1744" on="1"/>
        <pt x="950" y="1744" on="0"/>
        <pt x="934" y="1756" on="1"/>
        <pt x="880" y="1729" on="0"/>
        <pt x="880" y="1697" on="1"/>
        <pt x="947" y="1719" on="0"/>
      </contour>
    </TTGlyph>
    <TTGlyph name="gaffinalarabic" xMin="142" yMin="226" xMax="842" yMax="1588">
      <contour>
        <pt x="142" y="226" on="1"/>
        <pt x="142" y="1588" on="1"/>
        <pt x="842" y="1588" on="1"/>
        <pt x="842" y="226" on="1"/>
      </contour>
      <contour>
        <pt x="284" y="368" on="1"/>
        <pt x="700" y="368" on="1"/>
        <pt x="700" y="1447" on="1"/>
        <pt x="284" y="1447" on="1"/>
      </contour>
    </TTGlyph>
    <TTGlyph name="gafinitialarabic" xMin="142" yMin="226" xMax="842" yMax="1588">
      <contour>
        <pt x="142" y="226" on="1"/>
        <pt x="142" y="1588" on="1"/>
        <pt x="842" y="1588" on="1"/>
        <pt x="842" y="226" on="1"/>
      </contour>
      <contour>
        <pt x="284" y="368" on="1"/>
        <pt x="700" y="368" on="1"/>
        <pt x="700" y="1447" on="1"/>
        <pt x="284" y="1447" on="1"/>
      </contour>
    </TTGlyph>
    <TTGlyph name="gafmedialarabic" xMin="142" yMin="226" xMax="842" yMax="1588">
      <contour>
        <pt x="142" y="226" on="1"/>
        <pt x="142" y="1588" on="1"/>
        <pt x="842" y="1588" on="1"/>
        <pt x="842" y="226" on="1"/>
      </contour>
      <contour>
        <pt x="284" y="368" on="1"/>
        <pt x="700" y="368" on="1"/>
        <pt x="700" y="1447" on="1"/>
        <pt x="284" y="1447" on="1"/>
      </contour>
    </TTGlyph>
    <TTGlyph name="glyph41" xMin="142" yMin="226" xMax="842" yMax="1588">
      <contour>
        <pt x="142" y="226" on="1"/>
        <pt x="142" y="1588" on="1"/>
        <pt x="842" y="1588" on="1"/>
        <pt x="842" y="226" on="1"/>
      </contour>
      <contour>
        <pt x="284" y="368" on="1"/>
        <pt x="700" y="368" on="1"/>
        <pt x="700" y="1447" on="1"/>
        <pt x="284" y="1447" on="1"/>
      </contour>
    </TTGlyph>
    <TTGlyph name="glyph42" xMin="142" yMin="226" xMax="842" yMax="1588">
      <contour>
        <pt x="142" y="226" on="1"/>
        <pt x="142" y="1588" on="1"/>
        <pt x="842" y="1588" on="1"/>
        <pt x="842" y="226" on="1"/>
      </contour>
      <contour>
        <pt x="284" y="368" on="1"/>
        <pt x="700" y="368" on="1"/>
        <pt x="700" y="1447" on="1"/>
        <pt x="284" y="1447" on="1"/>
      </contour>
    </TTGlyph>
    <TTGlyph name="glyph43" xMin="142" yMin="226" xMax="842" yMax="1588">
      <contour>
        <pt x="142" y="226" on="1"/>
        <pt x="142" y="1588" on="1"/>
        <pt x="842" y="1588" on="1"/>
        <pt x="842" y="226" on="1"/>
      </contour>
      <contour>
        <pt x="284" y="368" on="1"/>
        <pt x="700" y="368" on="1"/>
        <pt x="700" y="1447" on="1"/>
        <pt x="284" y="1447" on="1"/>
      </contour>
    </TTGlyph>
    <TTGlyph name="glyph44" xMin="142" yMin="226" xMax="842" yMax="1588">
      <contour>
        <pt x="142" y="226" on="1"/>
        <pt x="142" y="1588" on="1"/>
        <pt x="842" y="1588" on="1"/>
        <pt x="842" y="226" on="1"/>
      </contour>
      <contour>
        <pt x="284" y="368" on="1"/>
        <pt x="700" y="368" on="1"/>
        <pt x="700" y="1447" on="1"/>
        <pt x="284" y="1447" on="1"/>
      </contour>
    </TTGlyph>
    <TTGlyph name="glyph45" xMin="142" yMin="226" xMax="842" yMax="1588">
      <contour>
        <pt x="142" y="226" on="1"/>
        <pt x="142" y="1588" on="1"/>
        <pt x="842" y="1588" on="1"/>
        <pt x="842" y="226" on="1"/>
      </contour>
      <contour>
        <pt x="284" y="368" on="1"/>
        <pt x="700" y="368" on="1"/>
        <pt x="700" y="1447" on="1"/>
        <pt x="284" y="1447" on="1"/>
      </contour>
    </TTGlyph>
    <TTGlyph name="glyph46" xMin="142" yMin="226" xMax="842" yMax="1588">
      <contour>
        <pt x="142" y="226" on="1"/>
        <pt x="142" y="1588" on="1"/>
        <pt x="842" y="1588" on="1"/>
        <pt x="842" y="226" on="1"/>
      </contour>
      <contour>
        <pt x="284" y="368" on="1"/>
        <pt x="700" y="368" on="1"/>
        <pt x="700" y="1447" on="1"/>
        <pt x="284" y="1447" on="1"/>
      </contour>
    </TTGlyph>
    <TTGlyph name="glyph47" xMin="142" yMin="226" xMax="842" yMax="1588">
      <contour>
        <pt x="142" y="226" on="1"/>
        <pt x="142" y="1588" on="1"/>
        <pt x="842" y="1588" on="1"/>
        <pt x="842" y="226" on="1"/>
      </contour>
      <contour>
        <pt x="284" y="368" on="1"/>
        <pt x="700" y="368" on="1"/>
        <pt x="700" y="1447" on="1"/>
        <pt x="284" y="1447" on="1"/>
      </contour>
    </TTGlyph>
    <TTGlyph name="glyph48" xMin="142" yMin="226" xMax="842" yMax="1588">
      <contour>
        <pt x="142" y="226" on="1"/>
        <pt x="142" y="1588" on="1"/>
        <pt x="842" y="1588" on="1"/>
        <pt x="842" y="226" on="1"/>
      </contour>
      <contour>
        <pt x="284" y="368" on="1"/>
        <pt x="700" y="368" on="1"/>
        <pt x="700" y="1447" on="1"/>
        <pt x="284" y="1447" on="1"/>
      </contour>
    </TTGlyph>
    <TTGlyph name="glyph50" xMin="142" yMin="226" xMax="842" yMax="1588">
      <contour>
        <pt x="142" y="226" on="1"/>
        <pt x="142" y="1588" on="1"/>
        <pt x="842" y="1588" on="1"/>
        <pt x="842" y="226" on="1"/>
      </contour>
      <contour>
        <pt x="284" y="368" on="1"/>
        <pt x="700" y="368" on="1"/>
        <pt x="700" y="1447" on="1"/>
        <pt x="284" y="1447" on="1"/>
      </contour>
    </TTGlyph>
    <TTGlyph name="glyph51" xMin="142" yMin="226" xMax="842" yMax="1588">
      <contour>
        <pt x="142" y="226" on="1"/>
        <pt x="142" y="1588" on="1"/>
        <pt x="842" y="1588" on="1"/>
        <pt x="842" y="226" on="1"/>
      </contour>
      <contour>
        <pt x="284" y="368" on="1"/>
        <pt x="700" y="368" on="1"/>
        <pt x="700" y="1447" on="1"/>
        <pt x="284" y="1447" on="1"/>
      </contour>
    </TTGlyph>
    <TTGlyph name="greater" xMin="142" yMin="226" xMax="842" yMax="1588">
      <contour>
        <pt x="142" y="226" on="1"/>
        <pt x="142" y="1588" on="1"/>
        <pt x="842" y="1588" on="1"/>
        <pt x="842" y="226" on="1"/>
      </contour>
      <contour>
        <pt x="284" y="368" on="1"/>
        <pt x="700" y="368" on="1"/>
        <pt x="700" y="1447" on="1"/>
        <pt x="284" y="1447" on="1"/>
      </contour>
    </TTGlyph>
    <TTGlyph name="hahhamzabovefinal" xMin="142" yMin="226" xMax="842" yMax="1588">
      <contour>
        <pt x="142" y="226" on="1"/>
        <pt x="142" y="1588" on="1"/>
        <pt x="842" y="1588" on="1"/>
        <pt x="842" y="226" on="1"/>
      </contour>
      <contour>
        <pt x="284" y="368" on="1"/>
        <pt x="700" y="368" on="1"/>
        <pt x="700" y="1447" on="1"/>
        <pt x="284" y="1447" on="1"/>
      </contour>
    </TTGlyph>
    <TTGlyph name="hahhamzaboveinitial" xMin="142" yMin="226" xMax="842" yMax="1588">
      <contour>
        <pt x="142" y="226" on="1"/>
        <pt x="142" y="1588" on="1"/>
        <pt x="842" y="1588" on="1"/>
        <pt x="842" y="226" on="1"/>
      </contour>
      <contour>
        <pt x="284" y="368" on="1"/>
        <pt x="700" y="368" on="1"/>
        <pt x="700" y="1447" on="1"/>
        <pt x="284" y="1447" on="1"/>
      </contour>
    </TTGlyph>
    <TTGlyph name="hahhamzabovemedial" xMin="142" yMin="226" xMax="842" yMax="1588">
      <contour>
        <pt x="142" y="226" on="1"/>
        <pt x="142" y="1588" on="1"/>
        <pt x="842" y="1588" on="1"/>
        <pt x="842" y="226" on="1"/>
      </contour>
      <contour>
        <pt x="284" y="368" on="1"/>
        <pt x="700" y="368" on="1"/>
        <pt x="700" y="1447" on="1"/>
        <pt x="284" y="1447" on="1"/>
      </contour>
    </TTGlyph>
    <TTGlyph name="hahthreedotsabovefinal" xMin="142" yMin="226" xMax="842" yMax="1588">
      <contour>
        <pt x="142" y="226" on="1"/>
        <pt x="142" y="1588" on="1"/>
        <pt x="842" y="1588" on="1"/>
        <pt x="842" y="226" on="1"/>
      </contour>
      <contour>
        <pt x="284" y="368" on="1"/>
        <pt x="700" y="368" on="1"/>
        <pt x="700" y="1447" on="1"/>
        <pt x="284" y="1447" on="1"/>
      </contour>
    </TTGlyph>
    <TTGlyph name="hahthreedotsaboveinitial" xMin="142" yMin="226" xMax="842" yMax="1588">
      <contour>
        <pt x="142" y="226" on="1"/>
        <pt x="142" y="1588" on="1"/>
        <pt x="842" y="1588" on="1"/>
        <pt x="842" y="226" on="1"/>
      </contour>
      <contour>
        <pt x="284" y="368" on="1"/>
        <pt x="700" y="368" on="1"/>
        <pt x="700" y="1447" on="1"/>
        <pt x="284" y="1447" on="1"/>
      </contour>
    </TTGlyph>
    <TTGlyph name="hahthreedotsabovemedial" xMin="142" yMin="226" xMax="842" yMax="1588">
      <contour>
        <pt x="142" y="226" on="1"/>
        <pt x="142" y="1588" on="1"/>
        <pt x="842" y="1588" on="1"/>
        <pt x="842" y="226" on="1"/>
      </contour>
      <contour>
        <pt x="284" y="368" on="1"/>
        <pt x="700" y="368" on="1"/>
        <pt x="700" y="1447" on="1"/>
        <pt x="284" y="1447" on="1"/>
      </contour>
    </TTGlyph>
    <TTGlyph name="hehdoachashmeefinalarabic" xMin="142" yMin="226" xMax="842" yMax="1588">
      <contour>
        <pt x="142" y="226" on="1"/>
        <pt x="142" y="1588" on="1"/>
        <pt x="842" y="1588" on="1"/>
        <pt x="842" y="226" on="1"/>
      </contour>
      <contour>
        <pt x="284" y="368" on="1"/>
        <pt x="700" y="368" on="1"/>
        <pt x="700" y="1447" on="1"/>
        <pt x="284" y="1447" on="1"/>
      </contour>
    </TTGlyph>
    <TTGlyph name="hehdoachashmeeinitialarabic" xMin="142" yMin="226" xMax="842" yMax="1588">
      <contour>
        <pt x="142" y="226" on="1"/>
        <pt x="142" y="1588" on="1"/>
        <pt x="842" y="1588" on="1"/>
        <pt x="842" y="226" on="1"/>
      </contour>
      <contour>
        <pt x="284" y="368" on="1"/>
        <pt x="700" y="368" on="1"/>
        <pt x="700" y="1447" on="1"/>
        <pt x="284" y="1447" on="1"/>
      </contour>
    </TTGlyph>
    <TTGlyph name="hehdoachashmeemedialarabic" xMin="142" yMin="226" xMax="842" yMax="1588">
      <contour>
        <pt x="142" y="226" on="1"/>
        <pt x="142" y="1588" on="1"/>
        <pt x="842" y="1588" on="1"/>
        <pt x="842" y="226" on="1"/>
      </contour>
      <contour>
        <pt x="284" y="368" on="1"/>
        <pt x="700" y="368" on="1"/>
        <pt x="700" y="1447" on="1"/>
        <pt x="284" y="1447" on="1"/>
      </contour>
    </TTGlyph>
    <TTGlyph name="hehfinalaltonearabic" xMin="142" yMin="226" xMax="842" yMax="1588">
      <contour>
        <pt x="142" y="226" on="1"/>
        <pt x="142" y="1588" on="1"/>
        <pt x="842" y="1588" on="1"/>
        <pt x="842" y="226" on="1"/>
      </contour>
      <contour>
        <pt x="284" y="368" on="1"/>
        <pt x="700" y="368" on="1"/>
        <pt x="700" y="1447" on="1"/>
        <pt x="284" y="1447" on="1"/>
      </contour>
    </TTGlyph>
    <TTGlyph name="hehhamzaabovefinalarabic" xMin="142" yMin="226" xMax="842" yMax="1588">
      <contour>
        <pt x="142" y="226" on="1"/>
        <pt x="142" y="1588" on="1"/>
        <pt x="842" y="1588" on="1"/>
        <pt x="842" y="226" on="1"/>
      </contour>
      <contour>
        <pt x="284" y="368" on="1"/>
        <pt x="700" y="368" on="1"/>
        <pt x="700" y="1447" on="1"/>
        <pt x="284" y="1447" on="1"/>
      </contour>
    </TTGlyph>
    <TTGlyph name="hehinitialaltonearabic" xMin="142" yMin="226" xMax="842" yMax="1588">
      <contour>
        <pt x="142" y="226" on="1"/>
        <pt x="142" y="1588" on="1"/>
        <pt x="842" y="1588" on="1"/>
        <pt x="842" y="226" on="1"/>
      </contour>
      <contour>
        <pt x="284" y="368" on="1"/>
        <pt x="700" y="368" on="1"/>
        <pt x="700" y="1447" on="1"/>
        <pt x="284" y="1447" on="1"/>
      </contour>
    </TTGlyph>
    <TTGlyph name="hehmedialaltonearabic" xMin="142" yMin="226" xMax="842" yMax="1588">
      <contour>
        <pt x="142" y="226" on="1"/>
        <pt x="142" y="1588" on="1"/>
        <pt x="842" y="1588" on="1"/>
        <pt x="842" y="226" on="1"/>
      </contour>
      <contour>
        <pt x="284" y="368" on="1"/>
        <pt x="700" y="368" on="1"/>
        <pt x="700" y="1447" on="1"/>
        <pt x="284" y="1447" on="1"/>
      </contour>
    </TTGlyph>
    <TTGlyph name="hyphen" xMin="283" yMin="1460" xMax="1073" yMax="2032">
      <contour>
        <pt x="1073" y="1568" on="1"/>
        <pt x="1054" y="1520" on="0"/>
        <pt x="971" y="1513" on="1"/>
        <pt x="902" y="1510" on="0"/>
        <pt x="833" y="1507" on="1"/>
        <pt x="478" y="1460" on="0"/>
        <pt x="520" y="1460" on="1"/>
        <pt x="422" y="1460" on="1"/>
        <pt x="412" y="1460" on="0"/>
        <pt x="343" y="1472" on="0"/>
        <pt x="329" y="1473" on="1"/>
        <pt x="312" y="1488" on="0"/>
        <pt x="285" y="1513" on="1"/>
        <pt x="283" y="1574" on="0"/>
        <pt x="353" y="1641" on="1"/>
        <pt x="428" y="1712" on="0"/>
        <pt x="434" y="1752" on="1"/>
        <pt x="437" y="1776" on="0"/>
        <pt x="437" y="1804" on="1"/>
        <pt x="437" y="1842" on="0"/>
        <pt x="419" y="1994" on="0"/>
        <pt x="419" y="2032" on="1"/>
        <pt x="447" y="2032" on="0"/>
        <pt x="454" y="2020" on="1"/>
        <pt x="478" y="1963" on="0"/>
        <pt x="491" y="1859" on="1"/>
        <pt x="503" y="1774" on="0"/>
        <pt x="542" y="1714" on="1"/>
        <pt x="560" y="1685" on="0"/>
        <pt x="591" y="1685" on="1"/>
        <pt x="604" y="1685" on="0"/>
        <pt x="670" y="1736" on="0"/>
        <pt x="684" y="1736" on="1"/>
        <pt x="695" y="1736" on="0"/>
        <pt x="737" y="1715" on="0"/>
        <pt x="750" y="1715" on="1"/>
        <pt x="774" y="1715" on="0"/>
        <pt x="916" y="1838" on="0"/>
        <pt x="980" y="1838" on="1"/>
        <pt x="1010" y="1838" on="0"/>
        <pt x="1062" y="1787" on="0"/>
        <pt x="1062" y="1767" on="1"/>
        <pt x="1062" y="1694" on="0"/>
        <pt x="965" y="1643" on="1"/>
        <pt x="889" y="1603" on="0"/>
        <pt x="832" y="1603" on="1"/>
        <pt x="820" y="1603" on="0"/>
        <pt x="692" y="1644" on="0"/>
        <pt x="679" y="1644" on="1"/>
        <pt x="666" y="1644" on="0"/>
        <pt x="589" y="1603" on="0"/>
        <pt x="576" y="1603" on="1"/>
        <pt x="565" y="1603" on="0"/>
        <pt x="480" y="1655" on="0"/>
        <pt x="468" y="1655" on="1"/>
        <pt x="464" y="1655" on="0"/>
        <pt x="356" y="1576" on="1"/>
        <pt x="374" y="1542" on="0"/>
        <pt x="402" y="1542" on="1"/>
        <pt x="414" y="1542" on="0"/>
        <pt x="902" y="1593" on="0"/>
        <pt x="915" y="1593" on="1"/>
        <pt x="1049" y="1593" on="1"/>
      </contour>
      <contour>
        <pt x="959" y="1744" on="1"/>
        <pt x="950" y="1744" on="0"/>
        <pt x="934" y="1756" on="1"/>
        <pt x="880" y="1729" on="0"/>
        <pt x="880" y="1697" on="1"/>
        <pt x="947" y="1719" on="0"/>
      </contour>
    </TTGlyph>
    <TTGlyph name="irghizufinal" xMin="142" yMin="226" xMax="842" yMax="1588">
      <contour>
        <pt x="142" y="226" on="1"/>
        <pt x="142" y="1588" on="1"/>
        <pt x="842" y="1588" on="1"/>
        <pt x="842" y="226" on="1"/>
      </contour>
      <contour>
        <pt x="284" y="368" on="1"/>
        <pt x="700" y="368" on="1"/>
        <pt x="700" y="1447" on="1"/>
        <pt x="284" y="1447" on="1"/>
      </contour>
    </TTGlyph>
    <TTGlyph name="jehfinalarabic" xMin="142" yMin="226" xMax="842" yMax="1588">
      <contour>
        <pt x="142" y="226" on="1"/>
        <pt x="142" y="1588" on="1"/>
        <pt x="842" y="1588" on="1"/>
        <pt x="842" y="226" on="1"/>
      </contour>
      <contour>
        <pt x="284" y="368" on="1"/>
        <pt x="700" y="368" on="1"/>
        <pt x="700" y="1447" on="1"/>
        <pt x="284" y="1447" on="1"/>
      </contour>
    </TTGlyph>
    <TTGlyph name="kafringfinal" xMin="142" yMin="226" xMax="842" yMax="1588">
      <contour>
        <pt x="142" y="226" on="1"/>
        <pt x="142" y="1588" on="1"/>
        <pt x="842" y="1588" on="1"/>
        <pt x="842" y="226" on="1"/>
      </contour>
      <contour>
        <pt x="284" y="368" on="1"/>
        <pt x="700" y="368" on="1"/>
        <pt x="700" y="1447" on="1"/>
        <pt x="284" y="1447" on="1"/>
      </contour>
    </TTGlyph>
    <TTGlyph name="kafringinitial" xMin="142" yMin="226" xMax="842" yMax="1588">
      <contour>
        <pt x="142" y="226" on="1"/>
        <pt x="142" y="1588" on="1"/>
        <pt x="842" y="1588" on="1"/>
        <pt x="842" y="226" on="1"/>
      </contour>
      <contour>
        <pt x="284" y="368" on="1"/>
        <pt x="700" y="368" on="1"/>
        <pt x="700" y="1447" on="1"/>
        <pt x="284" y="1447" on="1"/>
      </contour>
    </TTGlyph>
    <TTGlyph name="kafringmedial" xMin="142" yMin="226" xMax="842" yMax="1588">
      <contour>
        <pt x="142" y="226" on="1"/>
        <pt x="142" y="1588" on="1"/>
        <pt x="842" y="1588" on="1"/>
        <pt x="842" y="226" on="1"/>
      </contour>
      <contour>
        <pt x="284" y="368" on="1"/>
        <pt x="700" y="368" on="1"/>
        <pt x="700" y="1447" on="1"/>
        <pt x="284" y="1447" on="1"/>
      </contour>
    </TTGlyph>
    <TTGlyph name="kashidaautoarabic" xMin="142" yMin="226" xMax="842" yMax="1588">
      <contour>
        <pt x="142" y="226" on="1"/>
        <pt x="142" y="1588" on="1"/>
        <pt x="842" y="1588" on="1"/>
        <pt x="842" y="226" on="1"/>
      </contour>
      <contour>
        <pt x="284" y="368" on="1"/>
        <pt x="700" y="368" on="1"/>
        <pt x="700" y="1447" on="1"/>
        <pt x="284" y="1447" on="1"/>
      </contour>
    </TTGlyph>
    <TTGlyph name="kashidaautonosidebearingarabic" xMin="142" yMin="226" xMax="842" yMax="1588">
      <contour>
        <pt x="142" y="226" on="1"/>
        <pt x="142" y="1588" on="1"/>
        <pt x="842" y="1588" on="1"/>
        <pt x="842" y="226" on="1"/>
      </contour>
      <contour>
        <pt x="284" y="368" on="1"/>
        <pt x="700" y="368" on="1"/>
        <pt x="700" y="1447" on="1"/>
        <pt x="284" y="1447" on="1"/>
      </contour>
    </TTGlyph>
    <TTGlyph name="kehehfinalarabic" xMin="142" yMin="226" xMax="842" yMax="1588">
      <contour>
        <pt x="142" y="226" on="1"/>
        <pt x="142" y="1588" on="1"/>
        <pt x="842" y="1588" on="1"/>
        <pt x="842" y="226" on="1"/>
      </contour>
      <contour>
        <pt x="284" y="368" on="1"/>
        <pt x="700" y="368" on="1"/>
        <pt x="700" y="1447" on="1"/>
        <pt x="284" y="1447" on="1"/>
      </contour>
    </TTGlyph>
    <TTGlyph name="kehehinitialarabic" xMin="142" yMin="226" xMax="842" yMax="1588">
      <contour>
        <pt x="142" y="226" on="1"/>
        <pt x="142" y="1588" on="1"/>
        <pt x="842" y="1588" on="1"/>
        <pt x="842" y="226" on="1"/>
      </contour>
      <contour>
        <pt x="284" y="368" on="1"/>
        <pt x="700" y="368" on="1"/>
        <pt x="700" y="1447" on="1"/>
        <pt x="284" y="1447" on="1"/>
      </contour>
    </TTGlyph>
    <TTGlyph name="kehehmedialarabic" xMin="142" yMin="226" xMax="842" yMax="1588">
      <contour>
        <pt x="142" y="226" on="1"/>
        <pt x="142" y="1588" on="1"/>
        <pt x="842" y="1588" on="1"/>
        <pt x="842" y="226" on="1"/>
      </contour>
      <contour>
        <pt x="284" y="368" on="1"/>
        <pt x="700" y="368" on="1"/>
        <pt x="700" y="1447" on="1"/>
        <pt x="284" y="1447" on="1"/>
      </contour>
    </TTGlyph>
    <TTGlyph name="kirghizyifinal" xMin="142" yMin="226" xMax="842" yMax="1588">
      <contour>
        <pt x="142" y="226" on="1"/>
        <pt x="142" y="1588" on="1"/>
        <pt x="842" y="1588" on="1"/>
        <pt x="842" y="226" on="1"/>
      </contour>
      <contour>
        <pt x="284" y="368" on="1"/>
        <pt x="700" y="368" on="1"/>
        <pt x="700" y="1447" on="1"/>
        <pt x="284" y="1447" on="1"/>
      </contour>
    </TTGlyph>
    <TTGlyph name="lammeemjeeminitialarabic" xMin="142" yMin="226" xMax="842" yMax="1588">
      <contour>
        <pt x="142" y="226" on="1"/>
        <pt x="142" y="1588" on="1"/>
        <pt x="842" y="1588" on="1"/>
        <pt x="842" y="226" on="1"/>
      </contour>
      <contour>
        <pt x="284" y="368" on="1"/>
        <pt x="700" y="368" on="1"/>
        <pt x="700" y="1447" on="1"/>
        <pt x="284" y="1447" on="1"/>
      </contour>
    </TTGlyph>
    <TTGlyph name="lammeemkhahinitialarabic" xMin="142" yMin="226" xMax="842" yMax="1588">
      <contour>
        <pt x="142" y="226" on="1"/>
        <pt x="142" y="1588" on="1"/>
        <pt x="842" y="1588" on="1"/>
        <pt x="842" y="226" on="1"/>
      </contour>
      <contour>
        <pt x="284" y="368" on="1"/>
        <pt x="700" y="368" on="1"/>
        <pt x="700" y="1447" on="1"/>
        <pt x="284" y="1447" on="1"/>
      </contour>
    </TTGlyph>
    <TTGlyph name="lamthreedotsabovefinal" xMin="142" yMin="226" xMax="842" yMax="1588">
      <contour>
        <pt x="142" y="226" on="1"/>
        <pt x="142" y="1588" on="1"/>
        <pt x="842" y="1588" on="1"/>
        <pt x="842" y="226" on="1"/>
      </contour>
      <contour>
        <pt x="284" y="368" on="1"/>
        <pt x="700" y="368" on="1"/>
        <pt x="700" y="1447" on="1"/>
        <pt x="284" y="1447" on="1"/>
      </contour>
    </TTGlyph>
    <TTGlyph name="lamthreedotsaboveinitial" xMin="142" yMin="226" xMax="842" yMax="1588">
      <contour>
        <pt x="142" y="226" on="1"/>
        <pt x="142" y="1588" on="1"/>
        <pt x="842" y="1588" on="1"/>
        <pt x="842" y="226" on="1"/>
      </contour>
      <contour>
        <pt x="284" y="368" on="1"/>
        <pt x="700" y="368" on="1"/>
        <pt x="700" y="1447" on="1"/>
        <pt x="284" y="1447" on="1"/>
      </contour>
    </TTGlyph>
    <TTGlyph name="lamthreedotsabovemedial" xMin="142" yMin="226" xMax="842" yMax="1588">
      <contour>
        <pt x="142" y="226" on="1"/>
        <pt x="142" y="1588" on="1"/>
        <pt x="842" y="1588" on="1"/>
        <pt x="842" y="226" on="1"/>
      </contour>
      <contour>
        <pt x="284" y="368" on="1"/>
        <pt x="700" y="368" on="1"/>
        <pt x="700" y="1447" on="1"/>
        <pt x="284" y="1447" on="1"/>
      </contour>
    </TTGlyph>
    <TTGlyph name="less" xMin="142" yMin="226" xMax="842" yMax="1588">
      <contour>
        <pt x="142" y="226" on="1"/>
        <pt x="142" y="1588" on="1"/>
        <pt x="842" y="1588" on="1"/>
        <pt x="842" y="226" on="1"/>
      </contour>
      <contour>
        <pt x="284" y="368" on="1"/>
        <pt x="700" y="368" on="1"/>
        <pt x="700" y="1447" on="1"/>
        <pt x="284" y="1447" on="1"/>
      </contour>
    </TTGlyph>
    <TTGlyph name="meemmeemisolatedarabic" xMin="142" yMin="226" xMax="842" yMax="1588">
      <contour>
        <pt x="142" y="226" on="1"/>
        <pt x="142" y="1588" on="1"/>
        <pt x="842" y="1588" on="1"/>
        <pt x="842" y="226" on="1"/>
      </contour>
      <contour>
        <pt x="284" y="368" on="1"/>
        <pt x="700" y="368" on="1"/>
        <pt x="700" y="1447" on="1"/>
        <pt x="284" y="1447" on="1"/>
      </contour>
    </TTGlyph>
    <TTGlyph name="multiply" xMin="142" yMin="226" xMax="842" yMax="1588">
      <contour>
        <pt x="142" y="226" on="1"/>
        <pt x="142" y="1588" on="1"/>
        <pt x="842" y="1588" on="1"/>
        <pt x="842" y="226" on="1"/>
      </contour>
      <contour>
        <pt x="284" y="368" on="1"/>
        <pt x="700" y="368" on="1"/>
        <pt x="700" y="1447" on="1"/>
        <pt x="284" y="1447" on="1"/>
      </contour>
    </TTGlyph>
    <TTGlyph name="noonghunnafinalarabic" xMin="142" yMin="226" xMax="842" yMax="1588">
      <contour>
        <pt x="142" y="226" on="1"/>
        <pt x="142" y="1588" on="1"/>
        <pt x="842" y="1588" on="1"/>
        <pt x="842" y="226" on="1"/>
      </contour>
      <contour>
        <pt x="284" y="368" on="1"/>
        <pt x="700" y="368" on="1"/>
        <pt x="700" y="1447" on="1"/>
        <pt x="284" y="1447" on="1"/>
      </contour>
    </TTGlyph>
    <TTGlyph name="noonjeemisolatedarabic" xMin="142" yMin="226" xMax="842" yMax="1588">
      <contour>
        <pt x="142" y="226" on="1"/>
        <pt x="142" y="1588" on="1"/>
        <pt x="842" y="1588" on="1"/>
        <pt x="842" y="226" on="1"/>
      </contour>
      <contour>
        <pt x="284" y="368" on="1"/>
        <pt x="700" y="368" on="1"/>
        <pt x="700" y="1447" on="1"/>
        <pt x="284" y="1447" on="1"/>
      </contour>
    </TTGlyph>
    <TTGlyph name="noonmeemisolatedarabic" xMin="142" yMin="226" xMax="842" yMax="1588">
      <contour>
        <pt x="142" y="226" on="1"/>
        <pt x="142" y="1588" on="1"/>
        <pt x="842" y="1588" on="1"/>
        <pt x="842" y="226" on="1"/>
      </contour>
      <contour>
        <pt x="284" y="368" on="1"/>
        <pt x="700" y="368" on="1"/>
        <pt x="700" y="1447" on="1"/>
        <pt x="284" y="1447" on="1"/>
      </contour>
    </TTGlyph>
    <TTGlyph name="noonringfinal" xMin="142" yMin="226" xMax="842" yMax="1588">
      <contour>
        <pt x="142" y="226" on="1"/>
        <pt x="142" y="1588" on="1"/>
        <pt x="842" y="1588" on="1"/>
        <pt x="842" y="226" on="1"/>
      </contour>
      <contour>
        <pt x="284" y="368" on="1"/>
        <pt x="700" y="368" on="1"/>
        <pt x="700" y="1447" on="1"/>
        <pt x="284" y="1447" on="1"/>
      </contour>
    </TTGlyph>
    <TTGlyph name="noonringinitial" xMin="142" yMin="226" xMax="842" yMax="1588">
      <contour>
        <pt x="142" y="226" on="1"/>
        <pt x="142" y="1588" on="1"/>
        <pt x="842" y="1588" on="1"/>
        <pt x="842" y="226" on="1"/>
      </contour>
      <contour>
        <pt x="284" y="368" on="1"/>
        <pt x="700" y="368" on="1"/>
        <pt x="700" y="1447" on="1"/>
        <pt x="284" y="1447" on="1"/>
      </contour>
    </TTGlyph>
    <TTGlyph name="noonringmedial" xMin="142" yMin="226" xMax="842" yMax="1588">
      <contour>
        <pt x="142" y="226" on="1"/>
        <pt x="142" y="1588" on="1"/>
        <pt x="842" y="1588" on="1"/>
        <pt x="842" y="226" on="1"/>
      </contour>
      <contour>
        <pt x="284" y="368" on="1"/>
        <pt x="700" y="368" on="1"/>
        <pt x="700" y="1447" on="1"/>
        <pt x="284" y="1447" on="1"/>
      </contour>
    </TTGlyph>
    <TTGlyph name="numbersign" xMin="142" yMin="226" xMax="842" yMax="1588">
      <contour>
        <pt x="142" y="226" on="1"/>
        <pt x="142" y="1588" on="1"/>
        <pt x="842" y="1588" on="1"/>
        <pt x="842" y="226" on="1"/>
      </contour>
      <contour>
        <pt x="284" y="368" on="1"/>
        <pt x="700" y="368" on="1"/>
        <pt x="700" y="1447" on="1"/>
        <pt x="284" y="1447" on="1"/>
      </contour>
    </TTGlyph>
    <TTGlyph name="parenleft" xMin="142" yMin="226" xMax="842" yMax="1588">
      <contour>
        <pt x="142" y="226" on="1"/>
        <pt x="142" y="1588" on="1"/>
        <pt x="842" y="1588" on="1"/>
        <pt x="842" y="226" on="1"/>
      </contour>
      <contour>
        <pt x="284" y="368" on="1"/>
        <pt x="700" y="368" on="1"/>
        <pt x="700" y="1447" on="1"/>
        <pt x="284" y="1447" on="1"/>
      </contour>
    </TTGlyph>
    <TTGlyph name="parenright" xMin="142" yMin="226" xMax="842" yMax="1588">
      <contour>
        <pt x="142" y="226" on="1"/>
        <pt x="142" y="1588" on="1"/>
        <pt x="842" y="1588" on="1"/>
        <pt x="842" y="226" on="1"/>
      </contour>
      <contour>
        <pt x="284" y="368" on="1"/>
        <pt x="700" y="368" on="1"/>
        <pt x="700" y="1447" on="1"/>
        <pt x="284" y="1447" on="1"/>
      </contour>
    </TTGlyph>
    <TTGlyph name="pashtoefinal" xMin="142" yMin="226" xMax="842" yMax="1588">
      <contour>
        <pt x="142" y="226" on="1"/>
        <pt x="142" y="1588" on="1"/>
        <pt x="842" y="1588" on="1"/>
        <pt x="842" y="226" on="1"/>
      </contour>
      <contour>
        <pt x="284" y="368" on="1"/>
        <pt x="700" y="368" on="1"/>
        <pt x="700" y="1447" on="1"/>
        <pt x="284" y="1447" on="1"/>
      </contour>
    </TTGlyph>
    <TTGlyph name="pashtoeinitial" xMin="142" yMin="226" xMax="842" yMax="1588">
      <contour>
        <pt x="142" y="226" on="1"/>
        <pt x="142" y="1588" on="1"/>
        <pt x="842" y="1588" on="1"/>
        <pt x="842" y="226" on="1"/>
      </contour>
      <contour>
        <pt x="284" y="368" on="1"/>
        <pt x="700" y="368" on="1"/>
        <pt x="700" y="1447" on="1"/>
        <pt x="284" y="1447" on="1"/>
      </contour>
    </TTGlyph>
    <TTGlyph name="pashtoemedial" xMin="142" yMin="226" xMax="842" yMax="1588">
      <contour>
        <pt x="142" y="226" on="1"/>
        <pt x="142" y="1588" on="1"/>
        <pt x="842" y="1588" on="1"/>
        <pt x="842" y="226" on="1"/>
      </contour>
      <contour>
        <pt x="284" y="368" on="1"/>
        <pt x="700" y="368" on="1"/>
        <pt x="700" y="1447" on="1"/>
        <pt x="284" y="1447" on="1"/>
      </contour>
    </TTGlyph>
    <TTGlyph name="pehfinalarabic" xMin="142" yMin="226" xMax="842" yMax="1588">
      <contour>
        <pt x="142" y="226" on="1"/>
        <pt x="142" y="1588" on="1"/>
        <pt x="842" y="1588" on="1"/>
        <pt x="842" y="226" on="1"/>
      </contour>
      <contour>
        <pt x="284" y="368" on="1"/>
        <pt x="700" y="368" on="1"/>
        <pt x="700" y="1447" on="1"/>
        <pt x="284" y="1447" on="1"/>
      </contour>
    </TTGlyph>
    <TTGlyph name="pehinitialarabic" xMin="142" yMin="226" xMax="842" yMax="1588">
      <contour>
        <pt x="142" y="226" on="1"/>
        <pt x="142" y="1588" on="1"/>
        <pt x="842" y="1588" on="1"/>
        <pt x="842" y="226" on="1"/>
      </contour>
      <contour>
        <pt x="284" y="368" on="1"/>
        <pt x="700" y="368" on="1"/>
        <pt x="700" y="1447" on="1"/>
        <pt x="284" y="1447" on="1"/>
      </contour>
    </TTGlyph>
    <TTGlyph name="pehmedialarabic" xMin="142" yMin="226" xMax="842" yMax="1588">
      <contour>
        <pt x="142" y="226" on="1"/>
        <pt x="142" y="1588" on="1"/>
        <pt x="842" y="1588" on="1"/>
        <pt x="842" y="226" on="1"/>
      </contour>
      <contour>
        <pt x="284" y="368" on="1"/>
        <pt x="700" y="368" on="1"/>
        <pt x="700" y="1447" on="1"/>
        <pt x="284" y="1447" on="1"/>
      </contour>
    </TTGlyph>
    <TTGlyph name="percent" xMin="142" yMin="226" xMax="842" yMax="1588">
      <contour>
        <pt x="142" y="226" on="1"/>
        <pt x="142" y="1588" on="1"/>
        <pt x="842" y="1588" on="1"/>
        <pt x="842" y="226" on="1"/>
      </contour>
      <contour>
        <pt x="284" y="368" on="1"/>
        <pt x="700" y="368" on="1"/>
        <pt x="700" y="1447" on="1"/>
        <pt x="284" y="1447" on="1"/>
      </contour>
    </TTGlyph>
    <TTGlyph name="period" xMin="142" yMin="226" xMax="842" yMax="1588">
      <contour>
        <pt x="142" y="226" on="1"/>
        <pt x="142" y="1588" on="1"/>
        <pt x="842" y="1588" on="1"/>
        <pt x="842" y="226" on="1"/>
      </contour>
      <contour>
        <pt x="284" y="368" on="1"/>
        <pt x="700" y="368" on="1"/>
        <pt x="700" y="1447" on="1"/>
        <pt x="284" y="1447" on="1"/>
      </contour>
    </TTGlyph>
    <TTGlyph name="plus" xMin="142" yMin="226" xMax="842" yMax="1588">
      <contour>
        <pt x="142" y="226" on="1"/>
        <pt x="142" y="1588" on="1"/>
        <pt x="842" y="1588" on="1"/>
        <pt x="842" y="226" on="1"/>
      </contour>
      <contour>
        <pt x="284" y="368" on="1"/>
        <pt x="700" y="368" on="1"/>
        <pt x="700" y="1447" on="1"/>
        <pt x="284" y="1447" on="1"/>
      </contour>
    </TTGlyph>
    <TTGlyph name="quotedbl" xMin="142" yMin="226" xMax="842" yMax="1588">
      <contour>
        <pt x="142" y="226" on="1"/>
        <pt x="142" y="1588" on="1"/>
        <pt x="842" y="1588" on="1"/>
        <pt x="842" y="226" on="1"/>
      </contour>
      <contour>
        <pt x="284" y="368" on="1"/>
        <pt x="700" y="368" on="1"/>
        <pt x="700" y="1447" on="1"/>
        <pt x="284" y="1447" on="1"/>
      </contour>
    </TTGlyph>
    <TTGlyph name="quotesingle" xMin="142" yMin="226" xMax="842" yMax="1588">
      <contour>
        <pt x="142" y="226" on="1"/>
        <pt x="142" y="1588" on="1"/>
        <pt x="842" y="1588" on="1"/>
        <pt x="842" y="226" on="1"/>
      </contour>
      <contour>
        <pt x="284" y="368" on="1"/>
        <pt x="700" y="368" on="1"/>
        <pt x="700" y="1447" on="1"/>
        <pt x="284" y="1447" on="1"/>
      </contour>
    </TTGlyph>
    <TTGlyph name="rehdotbelowdotabovefinal" xMin="142" yMin="226" xMax="842" yMax="1588">
      <contour>
        <pt x="142" y="226" on="1"/>
        <pt x="142" y="1588" on="1"/>
        <pt x="842" y="1588" on="1"/>
        <pt x="842" y="226" on="1"/>
      </contour>
      <contour>
        <pt x="284" y="368" on="1"/>
        <pt x="700" y="368" on="1"/>
        <pt x="700" y="1447" on="1"/>
        <pt x="284" y="1447" on="1"/>
      </contour>
    </TTGlyph>
    <TTGlyph name="rehringfinal" xMin="142" yMin="226" xMax="842" yMax="1588">
      <contour>
        <pt x="142" y="226" on="1"/>
        <pt x="142" y="1588" on="1"/>
        <pt x="842" y="1588" on="1"/>
        <pt x="842" y="226" on="1"/>
      </contour>
      <contour>
        <pt x="284" y="368" on="1"/>
        <pt x="700" y="368" on="1"/>
        <pt x="700" y="1447" on="1"/>
        <pt x="284" y="1447" on="1"/>
      </contour>
    </TTGlyph>
    <TTGlyph name="rrehfinalarabic" xMin="142" yMin="226" xMax="842" yMax="1588">
      <contour>
        <pt x="142" y="226" on="1"/>
        <pt x="142" y="1588" on="1"/>
        <pt x="842" y="1588" on="1"/>
        <pt x="842" y="226" on="1"/>
      </contour>
      <contour>
        <pt x="284" y="368" on="1"/>
        <pt x="700" y="368" on="1"/>
        <pt x="700" y="1447" on="1"/>
        <pt x="284" y="1447" on="1"/>
      </contour>
    </TTGlyph>
    <TTGlyph name="seendotbelowdotabovefinal" xMin="142" yMin="226" xMax="842" yMax="1588">
      <contour>
        <pt x="142" y="226" on="1"/>
        <pt x="142" y="1588" on="1"/>
        <pt x="842" y="1588" on="1"/>
        <pt x="842" y="226" on="1"/>
      </contour>
      <contour>
        <pt x="284" y="368" on="1"/>
        <pt x="700" y="368" on="1"/>
        <pt x="700" y="1447" on="1"/>
        <pt x="284" y="1447" on="1"/>
      </contour>
    </TTGlyph>
    <TTGlyph name="seendotbelowdotaboveinitial" xMin="142" yMin="226" xMax="842" yMax="1588">
      <contour>
        <pt x="142" y="226" on="1"/>
        <pt x="142" y="1588" on="1"/>
        <pt x="842" y="1588" on="1"/>
        <pt x="842" y="226" on="1"/>
      </contour>
      <contour>
        <pt x="284" y="368" on="1"/>
        <pt x="700" y="368" on="1"/>
        <pt x="700" y="1447" on="1"/>
        <pt x="284" y="1447" on="1"/>
      </contour>
    </TTGlyph>
    <TTGlyph name="seendotbelowdotabovemedial" xMin="142" yMin="226" xMax="842" yMax="1588">
      <contour>
        <pt x="142" y="226" on="1"/>
        <pt x="142" y="1588" on="1"/>
        <pt x="842" y="1588" on="1"/>
        <pt x="842" y="226" on="1"/>
      </contour>
      <contour>
        <pt x="284" y="368" on="1"/>
        <pt x="700" y="368" on="1"/>
        <pt x="700" y="1447" on="1"/>
        <pt x="284" y="1447" on="1"/>
      </contour>
    </TTGlyph>
    <TTGlyph name="shaddadammaarabic" xMin="142" yMin="226" xMax="842" yMax="1588">
      <contour>
        <pt x="142" y="226" on="1"/>
        <pt x="142" y="1588" on="1"/>
        <pt x="842" y="1588" on="1"/>
        <pt x="842" y="226" on="1"/>
      </contour>
      <contour>
        <pt x="284" y="368" on="1"/>
        <pt x="700" y="368" on="1"/>
        <pt x="700" y="1447" on="1"/>
        <pt x="284" y="1447" on="1"/>
      </contour>
    </TTGlyph>
    <TTGlyph name="shaddadammatanarabic" xMin="142" yMin="226" xMax="842" yMax="1588">
      <contour>
        <pt x="142" y="226" on="1"/>
        <pt x="142" y="1588" on="1"/>
        <pt x="842" y="1588" on="1"/>
        <pt x="842" y="226" on="1"/>
      </contour>
      <contour>
        <pt x="284" y="368" on="1"/>
        <pt x="700" y="368" on="1"/>
        <pt x="700" y="1447" on="1"/>
        <pt x="284" y="1447" on="1"/>
      </contour>
    </TTGlyph>
    <TTGlyph name="shaddafathaarabic" xMin="142" yMin="226" xMax="842" yMax="1588">
      <contour>
        <pt x="142" y="226" on="1"/>
        <pt x="142" y="1588" on="1"/>
        <pt x="842" y="1588" on="1"/>
        <pt x="842" y="226" on="1"/>
      </contour>
      <contour>
        <pt x="284" y="368" on="1"/>
        <pt x="700" y="368" on="1"/>
        <pt x="700" y="1447" on="1"/>
        <pt x="284" y="1447" on="1"/>
      </contour>
    </TTGlyph>
    <TTGlyph name="shaddakasraarabic" xMin="142" yMin="226" xMax="842" yMax="1588">
      <contour>
        <pt x="142" y="226" on="1"/>
        <pt x="142" y="1588" on="1"/>
        <pt x="842" y="1588" on="1"/>
        <pt x="842" y="226" on="1"/>
      </contour>
      <contour>
        <pt x="284" y="368" on="1"/>
        <pt x="700" y="368" on="1"/>
        <pt x="700" y="1447" on="1"/>
        <pt x="284" y="1447" on="1"/>
      </contour>
    </TTGlyph>
    <TTGlyph name="shaddakasratanarabic" xMin="142" yMin="226" xMax="842" yMax="1588">
      <contour>
        <pt x="142" y="226" on="1"/>
        <pt x="142" y="1588" on="1"/>
        <pt x="842" y="1588" on="1"/>
        <pt x="842" y="226" on="1"/>
      </contour>
      <contour>
        <pt x="284" y="368" on="1"/>
        <pt x="700" y="368" on="1"/>
        <pt x="700" y="1447" on="1"/>
        <pt x="284" y="1447" on="1"/>
      </contour>
    </TTGlyph>
    <TTGlyph name="slash" xMin="142" yMin="226" xMax="842" yMax="1588">
      <contour>
        <pt x="142" y="226" on="1"/>
        <pt x="142" y="1588" on="1"/>
        <pt x="842" y="1588" on="1"/>
        <pt x="842" y="226" on="1"/>
      </contour>
      <contour>
        <pt x="284" y="368" on="1"/>
        <pt x="700" y="368" on="1"/>
        <pt x="700" y="1447" on="1"/>
        <pt x="284" y="1447" on="1"/>
      </contour>
    </TTGlyph>
    <TTGlyph name="space" xMin="142" yMin="226" xMax="842" yMax="1588">
      <contour>
        <pt x="142" y="226" on="1"/>
        <pt x="142" y="1588" on="1"/>
        <pt x="842" y="1588" on="1"/>
        <pt x="842" y="226" on="1"/>
      </contour>
      <contour>
        <pt x="284" y="368" on="1"/>
        <pt x="700" y="368" on="1"/>
        <pt x="700" y="1447" on="1"/>
        <pt x="284" y="1447" on="1"/>
      </contour>
    </TTGlyph>
    <TTGlyph name="tchehfinalarabic" xMin="142" yMin="226" xMax="842" yMax="1588">
      <contour>
        <pt x="142" y="226" on="1"/>
        <pt x="142" y="1588" on="1"/>
        <pt x="842" y="1588" on="1"/>
        <pt x="842" y="226" on="1"/>
      </contour>
      <contour>
        <pt x="284" y="368" on="1"/>
        <pt x="700" y="368" on="1"/>
        <pt x="700" y="1447" on="1"/>
        <pt x="284" y="1447" on="1"/>
      </contour>
    </TTGlyph>
    <TTGlyph name="tchehinitialarabic" xMin="142" yMin="226" xMax="842" yMax="1588">
      <contour>
        <pt x="142" y="226" on="1"/>
        <pt x="142" y="1588" on="1"/>
        <pt x="842" y="1588" on="1"/>
        <pt x="842" y="226" on="1"/>
      </contour>
      <contour>
        <pt x="284" y="368" on="1"/>
        <pt x="700" y="368" on="1"/>
        <pt x="700" y="1447" on="1"/>
        <pt x="284" y="1447" on="1"/>
      </contour>
    </TTGlyph>
    <TTGlyph name="tchehmedialarabic" xMin="142" yMin="226" xMax="842" yMax="1588">
      <contour>
        <pt x="142" y="226" on="1"/>
        <pt x="142" y="1588" on="1"/>
        <pt x="842" y="1588" on="1"/>
        <pt x="842" y="226" on="1"/>
      </contour>
      <contour>
        <pt x="284" y="368" on="1"/>
        <pt x="700" y="368" on="1"/>
        <pt x="700" y="1447" on="1"/>
        <pt x="284" y="1447" on="1"/>
      </contour>
    </TTGlyph>
    <TTGlyph name="tehhahisolatedarabic" xMin="142" yMin="226" xMax="842" yMax="1588">
      <contour>
        <pt x="142" y="226" on="1"/>
        <pt x="142" y="1588" on="1"/>
        <pt x="842" y="1588" on="1"/>
        <pt x="842" y="226" on="1"/>
      </contour>
      <contour>
        <pt x="284" y="368" on="1"/>
        <pt x="700" y="368" on="1"/>
        <pt x="700" y="1447" on="1"/>
        <pt x="284" y="1447" on="1"/>
      </contour>
    </TTGlyph>
    <TTGlyph name="tehjeemisolatedarabic" xMin="142" yMin="226" xMax="842" yMax="1588">
      <contour>
        <pt x="142" y="226" on="1"/>
        <pt x="142" y="1588" on="1"/>
        <pt x="842" y="1588" on="1"/>
        <pt x="842" y="226" on="1"/>
      </contour>
      <contour>
        <pt x="284" y="368" on="1"/>
        <pt x="700" y="368" on="1"/>
        <pt x="700" y="1447" on="1"/>
        <pt x="284" y="1447" on="1"/>
      </contour>
    </TTGlyph>
    <TTGlyph name="tehmeemisolatedarabic" xMin="142" yMin="226" xMax="842" yMax="1588">
      <contour>
        <pt x="142" y="226" on="1"/>
        <pt x="142" y="1588" on="1"/>
        <pt x="842" y="1588" on="1"/>
        <pt x="842" y="226" on="1"/>
      </contour>
      <contour>
        <pt x="284" y="368" on="1"/>
        <pt x="700" y="368" on="1"/>
        <pt x="700" y="1447" on="1"/>
        <pt x="284" y="1447" on="1"/>
      </contour>
    </TTGlyph>
    <TTGlyph name="tehnoonfinalarabic" xMin="142" yMin="226" xMax="842" yMax="1588">
      <contour>
        <pt x="142" y="226" on="1"/>
        <pt x="142" y="1588" on="1"/>
        <pt x="842" y="1588" on="1"/>
        <pt x="842" y="226" on="1"/>
      </contour>
      <contour>
        <pt x="284" y="368" on="1"/>
        <pt x="700" y="368" on="1"/>
        <pt x="700" y="1447" on="1"/>
        <pt x="284" y="1447" on="1"/>
      </contour>
    </TTGlyph>
    <TTGlyph name="tehringfinal" xMin="142" yMin="226" xMax="842" yMax="1588">
      <contour>
        <pt x="142" y="226" on="1"/>
        <pt x="142" y="1588" on="1"/>
        <pt x="842" y="1588" on="1"/>
        <pt x="842" y="226" on="1"/>
      </contour>
      <contour>
        <pt x="284" y="368" on="1"/>
        <pt x="700" y="368" on="1"/>
        <pt x="700" y="1447" on="1"/>
        <pt x="284" y="1447" on="1"/>
      </contour>
    </TTGlyph>
    <TTGlyph name="tehringinitial" xMin="142" yMin="226" xMax="842" yMax="1588">
      <contour>
        <pt x="142" y="226" on="1"/>
        <pt x="142" y="1588" on="1"/>
        <pt x="842" y="1588" on="1"/>
        <pt x="842" y="226" on="1"/>
      </contour>
      <contour>
        <pt x="284" y="368" on="1"/>
        <pt x="700" y="368" on="1"/>
        <pt x="700" y="1447" on="1"/>
        <pt x="284" y="1447" on="1"/>
      </contour>
    </TTGlyph>
    <TTGlyph name="tehringmedial" xMin="142" yMin="226" xMax="842" yMax="1588">
      <contour>
        <pt x="142" y="226" on="1"/>
        <pt x="142" y="1588" on="1"/>
        <pt x="842" y="1588" on="1"/>
        <pt x="842" y="226" on="1"/>
      </contour>
      <contour>
        <pt x="284" y="368" on="1"/>
        <pt x="700" y="368" on="1"/>
        <pt x="700" y="1447" on="1"/>
        <pt x="284" y="1447" on="1"/>
      </contour>
    </TTGlyph>
    <TTGlyph name="ttehfinalarabic" xMin="142" yMin="226" xMax="842" yMax="1588">
      <contour>
        <pt x="142" y="226" on="1"/>
        <pt x="142" y="1588" on="1"/>
        <pt x="842" y="1588" on="1"/>
        <pt x="842" y="226" on="1"/>
      </contour>
      <contour>
        <pt x="284" y="368" on="1"/>
        <pt x="700" y="368" on="1"/>
        <pt x="700" y="1447" on="1"/>
        <pt x="284" y="1447" on="1"/>
      </contour>
    </TTGlyph>
    <TTGlyph name="ttehinitialarabic" xMin="142" yMin="226" xMax="842" yMax="1588">
      <contour>
        <pt x="142" y="226" on="1"/>
        <pt x="142" y="1588" on="1"/>
        <pt x="842" y="1588" on="1"/>
        <pt x="842" y="226" on="1"/>
      </contour>
      <contour>
        <pt x="284" y="368" on="1"/>
        <pt x="700" y="368" on="1"/>
        <pt x="700" y="1447" on="1"/>
        <pt x="284" y="1447" on="1"/>
      </contour>
    </TTGlyph>
    <TTGlyph name="ttehmedialarabic" xMin="142" yMin="226" xMax="842" yMax="1588">
      <contour>
        <pt x="142" y="226" on="1"/>
        <pt x="142" y="1588" on="1"/>
        <pt x="842" y="1588" on="1"/>
        <pt x="842" y="226" on="1"/>
      </contour>
      <contour>
        <pt x="284" y="368" on="1"/>
        <pt x="700" y="368" on="1"/>
        <pt x="700" y="1447" on="1"/>
        <pt x="284" y="1447" on="1"/>
      </contour>
    </TTGlyph>
    <TTGlyph name="uni000D" xMin="142" yMin="226" xMax="842" yMax="1588">
      <contour>
        <pt x="142" y="226" on="1"/>
        <pt x="142" y="1588" on="1"/>
        <pt x="842" y="1588" on="1"/>
        <pt x="842" y="226" on="1"/>
      </contour>
      <contour>
        <pt x="284" y="368" on="1"/>
        <pt x="700" y="368" on="1"/>
        <pt x="700" y="1447" on="1"/>
        <pt x="284" y="1447" on="1"/>
      </contour>
    </TTGlyph>
    <TTGlyph name="uni00A0" xMin="142" yMin="226" xMax="842" yMax="1588">
      <contour>
        <pt x="142" y="226" on="1"/>
        <pt x="142" y="1588" on="1"/>
        <pt x="842" y="1588" on="1"/>
        <pt x="842" y="226" on="1"/>
      </contour>
      <contour>
        <pt x="284" y="368" on="1"/>
        <pt x="700" y="368" on="1"/>
        <pt x="700" y="1447" on="1"/>
        <pt x="284" y="1447" on="1"/>
      </contour>
    </TTGlyph>
    <TTGlyph name="uni00AD" xMin="142" yMin="226" xMax="842" yMax="1588">
      <contour>
        <pt x="142" y="226" on="1"/>
        <pt x="142" y="1588" on="1"/>
        <pt x="842" y="1588" on="1"/>
        <pt x="842" y="226" on="1"/>
      </contour>
      <contour>
        <pt x="284" y="368" on="1"/>
        <pt x="700" y="368" on="1"/>
        <pt x="700" y="1447" on="1"/>
        <pt x="284" y="1447" on="1"/>
      </contour>
    </TTGlyph>
    <TTGlyph name="uni0653" xMin="142" yMin="226" xMax="842" yMax="1588">
      <contour>
        <pt x="142" y="226" on="1"/>
        <pt x="142" y="1588" on="1"/>
        <pt x="842" y="1588" on="1"/>
        <pt x="842" y="226" on="1"/>
      </contour>
      <contour>
        <pt x="284" y="368" on="1"/>
        <pt x="700" y="368" on="1"/>
        <pt x="700" y="1447" on="1"/>
        <pt x="284" y="1447" on="1"/>
      </contour>
    </TTGlyph>
    <TTGlyph name="uni0654" xMin="142" yMin="226" xMax="842" yMax="1588">
      <contour>
        <pt x="142" y="226" on="1"/>
        <pt x="142" y="1588" on="1"/>
        <pt x="842" y="1588" on="1"/>
        <pt x="842" y="226" on="1"/>
      </contour>
      <contour>
        <pt x="284" y="368" on="1"/>
        <pt x="700" y="368" on="1"/>
        <pt x="700" y="1447" on="1"/>
        <pt x="284" y="1447" on="1"/>
      </contour>
    </TTGlyph>
    <TTGlyph name="uni0655" xMin="142" yMin="226" xMax="842" yMax="1588">
      <contour>
        <pt x="142" y="226" on="1"/>
        <pt x="142" y="1588" on="1"/>
        <pt x="842" y="1588" on="1"/>
        <pt x="842" y="226" on="1"/>
      </contour>
      <contour>
        <pt x="284" y="368" on="1"/>
        <pt x="700" y="368" on="1"/>
        <pt x="700" y="1447" on="1"/>
        <pt x="284" y="1447" on="1"/>
      </contour>
    </TTGlyph>
    <TTGlyph name="uni066B" xMin="142" yMin="226" xMax="842" yMax="1588">
      <contour>
        <pt x="142" y="226" on="1"/>
        <pt x="142" y="1588" on="1"/>
        <pt x="842" y="1588" on="1"/>
        <pt x="842" y="226" on="1"/>
      </contour>
      <contour>
        <pt x="284" y="368" on="1"/>
        <pt x="700" y="368" on="1"/>
        <pt x="700" y="1447" on="1"/>
        <pt x="284" y="1447" on="1"/>
      </contour>
    </TTGlyph>
    <TTGlyph name="uni066C" xMin="142" yMin="226" xMax="842" yMax="1588">
      <contour>
        <pt x="142" y="226" on="1"/>
        <pt x="142" y="1588" on="1"/>
        <pt x="842" y="1588" on="1"/>
        <pt x="842" y="226" on="1"/>
      </contour>
      <contour>
        <pt x="284" y="368" on="1"/>
        <pt x="700" y="368" on="1"/>
        <pt x="700" y="1447" on="1"/>
        <pt x="284" y="1447" on="1"/>
      </contour>
    </TTGlyph>
    <TTGlyph name="uni0671" xMin="142" yMin="226" xMax="842" yMax="1588">
      <contour>
        <pt x="142" y="226" on="1"/>
        <pt x="142" y="1588" on="1"/>
        <pt x="842" y="1588" on="1"/>
        <pt x="842" y="226" on="1"/>
      </contour>
      <contour>
        <pt x="284" y="368" on="1"/>
        <pt x="700" y="368" on="1"/>
        <pt x="700" y="1447" on="1"/>
        <pt x="284" y="1447" on="1"/>
      </contour>
    </TTGlyph>
    <TTGlyph name="uni067C" xMin="142" yMin="226" xMax="842" yMax="1588">
      <contour>
        <pt x="142" y="226" on="1"/>
        <pt x="142" y="1588" on="1"/>
        <pt x="842" y="1588" on="1"/>
        <pt x="842" y="226" on="1"/>
      </contour>
      <contour>
        <pt x="284" y="368" on="1"/>
        <pt x="700" y="368" on="1"/>
        <pt x="700" y="1447" on="1"/>
        <pt x="284" y="1447" on="1"/>
      </contour>
    </TTGlyph>
    <TTGlyph name="uni0681" xMin="142" yMin="226" xMax="842" yMax="1588">
      <contour>
        <pt x="142" y="226" on="1"/>
        <pt x="142" y="1588" on="1"/>
        <pt x="842" y="1588" on="1"/>
        <pt x="842" y="226" on="1"/>
      </contour>
      <contour>
        <pt x="284" y="368" on="1"/>
        <pt x="700" y="368" on="1"/>
        <pt x="700" y="1447" on="1"/>
        <pt x="284" y="1447" on="1"/>
      </contour>
    </TTGlyph>
    <TTGlyph name="uni0685" xMin="142" yMin="226" xMax="842" yMax="1588">
      <contour>
        <pt x="142" y="226" on="1"/>
        <pt x="142" y="1588" on="1"/>
        <pt x="842" y="1588" on="1"/>
        <pt x="842" y="226" on="1"/>
      </contour>
      <contour>
        <pt x="284" y="368" on="1"/>
        <pt x="700" y="368" on="1"/>
        <pt x="700" y="1447" on="1"/>
        <pt x="284" y="1447" on="1"/>
      </contour>
    </TTGlyph>
    <TTGlyph name="uni0689" xMin="142" yMin="226" xMax="842" yMax="1588">
      <contour>
        <pt x="142" y="226" on="1"/>
        <pt x="142" y="1588" on="1"/>
        <pt x="842" y="1588" on="1"/>
        <pt x="842" y="226" on="1"/>
      </contour>
      <contour>
        <pt x="284" y="368" on="1"/>
        <pt x="700" y="368" on="1"/>
        <pt x="700" y="1447" on="1"/>
        <pt x="284" y="1447" on="1"/>
      </contour>
    </TTGlyph>
    <TTGlyph name="uni0693" xMin="142" yMin="226" xMax="842" yMax="1588">
      <contour>
        <pt x="142" y="226" on="1"/>
        <pt x="142" y="1588" on="1"/>
        <pt x="842" y="1588" on="1"/>
        <pt x="842" y="226" on="1"/>
      </contour>
      <contour>
        <pt x="284" y="368" on="1"/>
        <pt x="700" y="368" on="1"/>
        <pt x="700" y="1447" on="1"/>
        <pt x="284" y="1447" on="1"/>
      </contour>
    </TTGlyph>
    <TTGlyph name="uni0696" xMin="142" yMin="226" xMax="842" yMax="1588">
      <contour>
        <pt x="142" y="226" on="1"/>
        <pt x="142" y="1588" on="1"/>
        <pt x="842" y="1588" on="1"/>
        <pt x="842" y="226" on="1"/>
      </contour>
      <contour>
        <pt x="284" y="368" on="1"/>
        <pt x="700" y="368" on="1"/>
        <pt x="700" y="1447" on="1"/>
        <pt x="284" y="1447" on="1"/>
      </contour>
    </TTGlyph>
    <TTGlyph name="uni069A" xMin="142" yMin="226" xMax="842" yMax="1588">
      <contour>
        <pt x="142" y="226" on="1"/>
        <pt x="142" y="1588" on="1"/>
        <pt x="842" y="1588" on="1"/>
        <pt x="842" y="226" on="1"/>
      </contour>
      <contour>
        <pt x="284" y="368" on="1"/>
        <pt x="700" y="368" on="1"/>
        <pt x="700" y="1447" on="1"/>
        <pt x="284" y="1447" on="1"/>
      </contour>
    </TTGlyph>
    <TTGlyph name="uni06A9" xMin="142" yMin="226" xMax="842" yMax="1588">
      <contour>
        <pt x="142" y="226" on="1"/>
        <pt x="142" y="1588" on="1"/>
        <pt x="842" y="1588" on="1"/>
        <pt x="842" y="226" on="1"/>
      </contour>
      <contour>
        <pt x="284" y="368" on="1"/>
        <pt x="700" y="368" on="1"/>
        <pt x="700" y="1447" on="1"/>
        <pt x="284" y="1447" on="1"/>
      </contour>
    </TTGlyph>
    <TTGlyph name="uni06AB" xMin="142" yMin="226" xMax="842" yMax="1588">
      <contour>
        <pt x="142" y="226" on="1"/>
        <pt x="142" y="1588" on="1"/>
        <pt x="842" y="1588" on="1"/>
        <pt x="842" y="226" on="1"/>
      </contour>
      <contour>
        <pt x="284" y="368" on="1"/>
        <pt x="700" y="368" on="1"/>
        <pt x="700" y="1447" on="1"/>
        <pt x="284" y="1447" on="1"/>
      </contour>
    </TTGlyph>
    <TTGlyph name="uni06B7" xMin="142" yMin="226" xMax="842" yMax="1588">
      <contour>
        <pt x="142" y="226" on="1"/>
        <pt x="142" y="1588" on="1"/>
        <pt x="842" y="1588" on="1"/>
        <pt x="842" y="226" on="1"/>
      </contour>
      <contour>
        <pt x="284" y="368" on="1"/>
        <pt x="700" y="368" on="1"/>
        <pt x="700" y="1447" on="1"/>
        <pt x="284" y="1447" on="1"/>
      </contour>
    </TTGlyph>
    <TTGlyph name="uni06BC" xMin="142" yMin="226" xMax="842" yMax="1588">
      <contour>
        <pt x="142" y="226" on="1"/>
        <pt x="142" y="1588" on="1"/>
        <pt x="842" y="1588" on="1"/>
        <pt x="842" y="226" on="1"/>
      </contour>
      <contour>
        <pt x="284" y="368" on="1"/>
        <pt x="700" y="368" on="1"/>
        <pt x="700" y="1447" on="1"/>
        <pt x="284" y="1447" on="1"/>
      </contour>
    </TTGlyph>
    <TTGlyph name="uni06BE" xMin="142" yMin="226" xMax="842" yMax="1588">
      <contour>
        <pt x="142" y="226" on="1"/>
        <pt x="142" y="1588" on="1"/>
        <pt x="842" y="1588" on="1"/>
        <pt x="842" y="226" on="1"/>
      </contour>
      <contour>
        <pt x="284" y="368" on="1"/>
        <pt x="700" y="368" on="1"/>
        <pt x="700" y="1447" on="1"/>
        <pt x="284" y="1447" on="1"/>
      </contour>
    </TTGlyph>
    <TTGlyph name="uni06C2" xMin="142" yMin="226" xMax="842" yMax="1588">
      <contour>
        <pt x="142" y="226" on="1"/>
        <pt x="142" y="1588" on="1"/>
        <pt x="842" y="1588" on="1"/>
        <pt x="842" y="226" on="1"/>
      </contour>
      <contour>
        <pt x="284" y="368" on="1"/>
        <pt x="700" y="368" on="1"/>
        <pt x="700" y="1447" on="1"/>
        <pt x="284" y="1447" on="1"/>
      </contour>
    </TTGlyph>
    <TTGlyph name="uni06C7" xMin="142" yMin="226" xMax="842" yMax="1588">
      <contour>
        <pt x="142" y="226" on="1"/>
        <pt x="142" y="1588" on="1"/>
        <pt x="842" y="1588" on="1"/>
        <pt x="842" y="226" on="1"/>
      </contour>
      <contour>
        <pt x="284" y="368" on="1"/>
        <pt x="700" y="368" on="1"/>
        <pt x="700" y="1447" on="1"/>
        <pt x="284" y="1447" on="1"/>
      </contour>
    </TTGlyph>
    <TTGlyph name="uni06C9" xMin="142" yMin="226" xMax="842" yMax="1588">
      <contour>
        <pt x="142" y="226" on="1"/>
        <pt x="142" y="1588" on="1"/>
        <pt x="842" y="1588" on="1"/>
        <pt x="842" y="226" on="1"/>
      </contour>
      <contour>
        <pt x="284" y="368" on="1"/>
        <pt x="700" y="368" on="1"/>
        <pt x="700" y="1447" on="1"/>
        <pt x="284" y="1447" on="1"/>
      </contour>
    </TTGlyph>
    <TTGlyph name="uni06CC" xMin="142" yMin="226" xMax="842" yMax="1588">
      <contour>
        <pt x="142" y="226" on="1"/>
        <pt x="142" y="1588" on="1"/>
        <pt x="842" y="1588" on="1"/>
        <pt x="842" y="226" on="1"/>
      </contour>
      <contour>
        <pt x="284" y="368" on="1"/>
        <pt x="700" y="368" on="1"/>
        <pt x="700" y="1447" on="1"/>
        <pt x="284" y="1447" on="1"/>
      </contour>
    </TTGlyph>
    <TTGlyph name="uni06CD" xMin="142" yMin="226" xMax="842" yMax="1588">
      <contour>
        <pt x="142" y="226" on="1"/>
        <pt x="142" y="1588" on="1"/>
        <pt x="842" y="1588" on="1"/>
        <pt x="842" y="226" on="1"/>
      </contour>
      <contour>
        <pt x="284" y="368" on="1"/>
        <pt x="700" y="368" on="1"/>
        <pt x="700" y="1447" on="1"/>
        <pt x="284" y="1447" on="1"/>
      </contour>
    </TTGlyph>
    <TTGlyph name="uni06D0" xMin="142" yMin="226" xMax="842" yMax="1588">
      <contour>
        <pt x="142" y="226" on="1"/>
        <pt x="142" y="1588" on="1"/>
        <pt x="842" y="1588" on="1"/>
        <pt x="842" y="226" on="1"/>
      </contour>
      <contour>
        <pt x="284" y="368" on="1"/>
        <pt x="700" y="368" on="1"/>
        <pt x="700" y="1447" on="1"/>
        <pt x="284" y="1447" on="1"/>
      </contour>
    </TTGlyph>
    <TTGlyph name="uni06D1" xMin="142" yMin="226" xMax="842" yMax="1588">
      <contour>
        <pt x="142" y="226" on="1"/>
        <pt x="142" y="1588" on="1"/>
        <pt x="842" y="1588" on="1"/>
        <pt x="842" y="226" on="1"/>
      </contour>
      <contour>
        <pt x="284" y="368" on="1"/>
        <pt x="700" y="368" on="1"/>
        <pt x="700" y="1447" on="1"/>
        <pt x="284" y="1447" on="1"/>
      </contour>
    </TTGlyph>
    <TTGlyph name="uni06D3" xMin="142" yMin="226" xMax="842" yMax="1588">
      <contour>
        <pt x="142" y="226" on="1"/>
        <pt x="142" y="1588" on="1"/>
        <pt x="842" y="1588" on="1"/>
        <pt x="842" y="226" on="1"/>
      </contour>
      <contour>
        <pt x="284" y="368" on="1"/>
        <pt x="700" y="368" on="1"/>
        <pt x="700" y="1447" on="1"/>
        <pt x="284" y="1447" on="1"/>
      </contour>
    </TTGlyph>
    <TTGlyph name="uni06D4" xMin="142" yMin="226" xMax="842" yMax="1588">
      <contour>
        <pt x="142" y="226" on="1"/>
        <pt x="142" y="1588" on="1"/>
        <pt x="842" y="1588" on="1"/>
        <pt x="842" y="226" on="1"/>
      </contour>
      <contour>
        <pt x="284" y="368" on="1"/>
        <pt x="700" y="368" on="1"/>
        <pt x="700" y="1447" on="1"/>
        <pt x="284" y="1447" on="1"/>
      </contour>
    </TTGlyph>
    <TTGlyph name="uni06F0" xMin="142" yMin="226" xMax="842" yMax="1588">
      <contour>
        <pt x="142" y="226" on="1"/>
        <pt x="142" y="1588" on="1"/>
        <pt x="842" y="1588" on="1"/>
        <pt x="842" y="226" on="1"/>
      </contour>
      <contour>
        <pt x="284" y="368" on="1"/>
        <pt x="700" y="368" on="1"/>
        <pt x="700" y="1447" on="1"/>
        <pt x="284" y="1447" on="1"/>
      </contour>
    </TTGlyph>
    <TTGlyph name="uni06F1" xMin="142" yMin="226" xMax="842" yMax="1588">
      <contour>
        <pt x="142" y="226" on="1"/>
        <pt x="142" y="1588" on="1"/>
        <pt x="842" y="1588" on="1"/>
        <pt x="842" y="226" on="1"/>
      </contour>
      <contour>
        <pt x="284" y="368" on="1"/>
        <pt x="700" y="368" on="1"/>
        <pt x="700" y="1447" on="1"/>
        <pt x="284" y="1447" on="1"/>
      </contour>
    </TTGlyph>
    <TTGlyph name="uni06F2" xMin="142" yMin="226" xMax="842" yMax="1588">
      <contour>
        <pt x="142" y="226" on="1"/>
        <pt x="142" y="1588" on="1"/>
        <pt x="842" y="1588" on="1"/>
        <pt x="842" y="226" on="1"/>
      </contour>
      <contour>
        <pt x="284" y="368" on="1"/>
        <pt x="700" y="368" on="1"/>
        <pt x="700" y="1447" on="1"/>
        <pt x="284" y="1447" on="1"/>
      </contour>
    </TTGlyph>
    <TTGlyph name="uni06F3" xMin="142" yMin="226" xMax="842" yMax="1588">
      <contour>
        <pt x="142" y="226" on="1"/>
        <pt x="142" y="1588" on="1"/>
        <pt x="842" y="1588" on="1"/>
        <pt x="842" y="226" on="1"/>
      </contour>
      <contour>
        <pt x="284" y="368" on="1"/>
        <pt x="700" y="368" on="1"/>
        <pt x="700" y="1447" on="1"/>
        <pt x="284" y="1447" on="1"/>
      </contour>
    </TTGlyph>
    <TTGlyph name="uni06F4" xMin="142" yMin="226" xMax="842" yMax="1588">
      <contour>
        <pt x="142" y="226" on="1"/>
        <pt x="142" y="1588" on="1"/>
        <pt x="842" y="1588" on="1"/>
        <pt x="842" y="226" on="1"/>
      </contour>
      <contour>
        <pt x="284" y="368" on="1"/>
        <pt x="700" y="368" on="1"/>
        <pt x="700" y="1447" on="1"/>
        <pt x="284" y="1447" on="1"/>
      </contour>
    </TTGlyph>
    <TTGlyph name="uni06F5" xMin="142" yMin="226" xMax="842" yMax="1588">
      <contour>
        <pt x="142" y="226" on="1"/>
        <pt x="142" y="1588" on="1"/>
        <pt x="842" y="1588" on="1"/>
        <pt x="842" y="226" on="1"/>
      </contour>
      <contour>
        <pt x="284" y="368" on="1"/>
        <pt x="700" y="368" on="1"/>
        <pt x="700" y="1447" on="1"/>
        <pt x="284" y="1447" on="1"/>
      </contour>
    </TTGlyph>
    <TTGlyph name="uni06F6" xMin="142" yMin="226" xMax="842" yMax="1588">
      <contour>
        <pt x="142" y="226" on="1"/>
        <pt x="142" y="1588" on="1"/>
        <pt x="842" y="1588" on="1"/>
        <pt x="842" y="226" on="1"/>
      </contour>
      <contour>
        <pt x="284" y="368" on="1"/>
        <pt x="700" y="368" on="1"/>
        <pt x="700" y="1447" on="1"/>
        <pt x="284" y="1447" on="1"/>
      </contour>
    </TTGlyph>
    <TTGlyph name="uni06F7" xMin="142" yMin="226" xMax="842" yMax="1588">
      <contour>
        <pt x="142" y="226" on="1"/>
        <pt x="142" y="1588" on="1"/>
        <pt x="842" y="1588" on="1"/>
        <pt x="842" y="226" on="1"/>
      </contour>
      <contour>
        <pt x="284" y="368" on="1"/>
        <pt x="700" y="368" on="1"/>
        <pt x="700" y="1447" on="1"/>
        <pt x="284" y="1447" on="1"/>
      </contour>
    </TTGlyph>
    <TTGlyph name="uni06F8" xMin="142" yMin="226" xMax="842" yMax="1588">
      <contour>
        <pt x="142" y="226" on="1"/>
        <pt x="142" y="1588" on="1"/>
        <pt x="842" y="1588" on="1"/>
        <pt x="842" y="226" on="1"/>
      </contour>
      <contour>
        <pt x="284" y="368" on="1"/>
        <pt x="700" y="368" on="1"/>
        <pt x="700" y="1447" on="1"/>
        <pt x="284" y="1447" on="1"/>
      </contour>
    </TTGlyph>
    <TTGlyph name="uni06F9" xMin="142" yMin="226" xMax="842" yMax="1588">
      <contour>
        <pt x="142" y="226" on="1"/>
        <pt x="142" y="1588" on="1"/>
        <pt x="842" y="1588" on="1"/>
        <pt x="842" y="226" on="1"/>
      </contour>
      <contour>
        <pt x="284" y="368" on="1"/>
        <pt x="700" y="368" on="1"/>
        <pt x="700" y="1447" on="1"/>
        <pt x="284" y="1447" on="1"/>
      </contour>
    </TTGlyph>
    <TTGlyph name="uni2010" xMin="283" yMin="1460" xMax="1073" yMax="2032">
      <contour>
        <pt x="1073" y="1568" on="1"/>
        <pt x="1054" y="1520" on="0"/>
        <pt x="971" y="1513" on="1"/>
        <pt x="902" y="1510" on="0"/>
        <pt x="833" y="1507" on="1"/>
        <pt x="478" y="1460" on="0"/>
        <pt x="520" y="1460" on="1"/>
        <pt x="422" y="1460" on="1"/>
        <pt x="412" y="1460" on="0"/>
        <pt x="343" y="1472" on="0"/>
        <pt x="329" y="1473" on="1"/>
        <pt x="312" y="1488" on="0"/>
        <pt x="285" y="1513" on="1"/>
        <pt x="283" y="1574" on="0"/>
        <pt x="353" y="1641" on="1"/>
        <pt x="428" y="1712" on="0"/>
        <pt x="434" y="1752" on="1"/>
        <pt x="437" y="1776" on="0"/>
        <pt x="437" y="1804" on="1"/>
        <pt x="437" y="1842" on="0"/>
        <pt x="419" y="1994" on="0"/>
        <pt x="419" y="2032" on="1"/>
        <pt x="447" y="2032" on="0"/>
        <pt x="454" y="2020" on="1"/>
        <pt x="478" y="1963" on="0"/>
        <pt x="491" y="1859" on="1"/>
        <pt x="503" y="1774" on="0"/>
        <pt x="542" y="1714" on="1"/>
        <pt x="560" y="1685" on="0"/>
        <pt x="591" y="1685" on="1"/>
        <pt x="604" y="1685" on="0"/>
        <pt x="670" y="1736" on="0"/>
        <pt x="684" y="1736" on="1"/>
        <pt x="695" y="1736" on="0"/>
        <pt x="737" y="1715" on="0"/>
        <pt x="750" y="1715" on="1"/>
        <pt x="774" y="1715" on="0"/>
        <pt x="916" y="1838" on="0"/>
        <pt x="980" y="1838" on="1"/>
        <pt x="1010" y="1838" on="0"/>
        <pt x="1062" y="1787" on="0"/>
        <pt x="1062" y="1767" on="1"/>
        <pt x="1062" y="1694" on="0"/>
        <pt x="965" y="1643" on="1"/>
        <pt x="889" y="1603" on="0"/>
        <pt x="832" y="1603" on="1"/>
        <pt x="820" y="1603" on="0"/>
        <pt x="692" y="1644" on="0"/>
        <pt x="679" y="1644" on="1"/>
        <pt x="666" y="1644" on="0"/>
        <pt x="589" y="1603" on="0"/>
        <pt x="576" y="1603" on="1"/>
        <pt x="565" y="1603" on="0"/>
        <pt x="480" y="1655" on="0"/>
        <pt x="468" y="1655" on="1"/>
        <pt x="464" y="1655" on="0"/>
        <pt x="356" y="1576" on="1"/>
        <pt x="374" y="1542" on="0"/>
        <pt x="402" y="1542" on="1"/>
        <pt x="414" y="1542" on="0"/>
        <pt x="902" y="1593" on="0"/>
        <pt x="915" y="1593" on="1"/>
        <pt x="1049" y="1593" on="1"/>
      </contour>
      <contour>
        <pt x="959" y="1744" on="1"/>
        <pt x="950" y="1744" on="0"/>
        <pt x="934" y="1756" on="1"/>
        <pt x="880" y="1729" on="0"/>
        <pt x="880" y="1697" on="1"/>
        <pt x="947" y="1719" on="0"/>
      </contour>
    </TTGlyph>
    <TTGlyph name="uni2011" xMin="283" yMin="1460" xMax="1073" yMax="2032">
      <contour>
        <pt x="1073" y="1568" on="1"/>
        <pt x="1054" y="1520" on="0"/>
        <pt x="971" y="1513" on="1"/>
        <pt x="902" y="1510" on="0"/>
        <pt x="833" y="1507" on="1"/>
        <pt x="478" y="1460" on="0"/>
        <pt x="520" y="1460" on="1"/>
        <pt x="422" y="1460" on="1"/>
        <pt x="412" y="1460" on="0"/>
        <pt x="343" y="1472" on="0"/>
        <pt x="329" y="1473" on="1"/>
        <pt x="312" y="1488" on="0"/>
        <pt x="285" y="1513" on="1"/>
        <pt x="283" y="1574" on="0"/>
        <pt x="353" y="1641" on="1"/>
        <pt x="428" y="1712" on="0"/>
        <pt x="434" y="1752" on="1"/>
        <pt x="437" y="1776" on="0"/>
        <pt x="437" y="1804" on="1"/>
        <pt x="437" y="1842" on="0"/>
        <pt x="419" y="1994" on="0"/>
        <pt x="419" y="2032" on="1"/>
        <pt x="447" y="2032" on="0"/>
        <pt x="454" y="2020" on="1"/>
        <pt x="478" y="1963" on="0"/>
        <pt x="491" y="1859" on="1"/>
        <pt x="503" y="1774" on="0"/>
        <pt x="542" y="1714" on="1"/>
        <pt x="560" y="1685" on="0"/>
        <pt x="591" y="1685" on="1"/>
        <pt x="604" y="1685" on="0"/>
        <pt x="670" y="1736" on="0"/>
        <pt x="684" y="1736" on="1"/>
        <pt x="695" y="1736" on="0"/>
        <pt x="737" y="1715" on="0"/>
        <pt x="750" y="1715" on="1"/>
        <pt x="774" y="1715" on="0"/>
        <pt x="916" y="1838" on="0"/>
        <pt x="980" y="1838" on="1"/>
        <pt x="1010" y="1838" on="0"/>
        <pt x="1062" y="1787" on="0"/>
        <pt x="1062" y="1767" on="1"/>
        <pt x="1062" y="1694" on="0"/>
        <pt x="965" y="1643" on="1"/>
        <pt x="889" y="1603" on="0"/>
        <pt x="832" y="1603" on="1"/>
        <pt x="820" y="1603" on="0"/>
        <pt x="692" y="1644" on="0"/>
        <pt x="679" y="1644" on="1"/>
        <pt x="666" y="1644" on="0"/>
        <pt x="589" y="1603" on="0"/>
        <pt x="576" y="1603" on="1"/>
        <pt x="565" y="1603" on="0"/>
        <pt x="480" y="1655" on="0"/>
        <pt x="468" y="1655" on="1"/>
        <pt x="464" y="1655" on="0"/>
        <pt x="356" y="1576" on="1"/>
        <pt x="374" y="1542" on="0"/>
        <pt x="402" y="1542" on="1"/>
        <pt x="414" y="1542" on="0"/>
        <pt x="902" y="1593" on="0"/>
        <pt x="915" y="1593" on="1"/>
        <pt x="1049" y="1593" on="1"/>
      </contour>
      <contour>
        <pt x="959" y="1744" on="1"/>
        <pt x="950" y="1744" on="0"/>
        <pt x="934" y="1756" on="1"/>
        <pt x="880" y="1729" on="0"/>
        <pt x="880" y="1697" on="1"/>
        <pt x="947" y="1719" on="0"/>
      </contour>
    </TTGlyph>
    <TTGlyph name="uniE000" xMin="0" yMin="0" xMax="1730" yMax="1730">
      <contour>
        <pt x="0" y="1730" on="1"/>
        <pt x="1730" y="1730" on="1"/>
        <pt x="1730" y="0" on="1"/>
        <pt x="0" y="0" on="1"/>
      </contour>
    </TTGlyph>
    <TTGlyph name="uniFB51" xMin="398" yMin="-31" xMax="3439" yMax="1771">
      <contour>
        <pt x="2958" y="1366" on="1"/>
        <pt x="2958" y="1353" on="0"/>
        <pt x="2947" y="1321" on="0"/>
        <pt x="2947" y="1312" on="1"/>
        <pt x="2943" y="1312" on="0"/>
        <pt x="2921" y="1300" on="0"/>
        <pt x="2906" y="1300" on="1"/>
        <pt x="2897" y="1300" on="0"/>
        <pt x="2828" y="1341" on="0"/>
        <pt x="2815" y="1341" on="1"/>
        <pt x="2812" y="1341" on="0"/>
        <pt x="2545" y="1147" on="0"/>
        <pt x="2477" y="1147" on="1"/>
        <pt x="2465" y="1147" on="0"/>
        <pt x="2426" y="1158" on="0"/>
        <pt x="2417" y="1158" on="1"/>
        <pt x="2417" y="1195" on="1"/>
        <pt x="2467" y="1221" on="0"/>
        <pt x="2552" y="1280" on="1"/>
        <pt x="2681" y="1366" on="0"/>
        <pt x="2681" y="1402" on="1"/>
        <pt x="2681" y="1412" on="0"/>
        <pt x="2630" y="1500" on="0"/>
        <pt x="2630" y="1516" on="1"/>
        <pt x="2630" y="1558" on="0"/>
        <pt x="2687" y="1621" on="1"/>
        <pt x="2747" y="1689" on="0"/>
        <pt x="2799" y="1689" on="1"/>
        <pt x="2848" y="1689" on="0"/>
        <pt x="2861" y="1656" on="1"/>
        <pt x="2870" y="1633" on="0"/>
        <pt x="2865" y="1577" on="1"/>
        <pt x="2861" y="1518" on="0"/>
        <pt x="2868" y="1491" on="1"/>
        <pt x="2872" y="1477" on="0"/>
        <pt x="2916" y="1429" on="1"/>
        <pt x="2958" y="1383" on="0"/>
      </contour>
      <contour>
        <pt x="2784" y="886" on="1"/>
        <pt x="2784" y="859" on="0"/>
        <pt x="2758" y="825" on="1"/>
        <pt x="2729" y="788" on="0"/>
        <pt x="2702" y="788" on="1"/>
        <pt x="2662" y="788" on="0"/>
        <pt x="2580" y="848" on="0"/>
        <pt x="2580" y="881" on="1"/>
        <pt x="2580" y="915" on="0"/>
        <pt x="2646" y="983" on="0"/>
        <pt x="2676" y="983" on="1"/>
        <pt x="2702" y="983" on="0"/>
        <pt x="2784" y="910" on="0"/>
      </contour>
      <contour>
        <pt x="2036" y="1735" on="1"/>
        <pt x="2036" y="1687" on="0"/>
        <pt x="1993" y="1661" on="1"/>
        <pt x="1560" y="1413" on="0"/>
        <pt x="1519" y="1413" on="1"/>
        <pt x="1474" y="1413" on="0"/>
        <pt x="1474" y="1443" on="1"/>
        <pt x="1474" y="1503" on="0"/>
        <pt x="1540" y="1545" on="1"/>
        <pt x="1595" y="1572" on="0"/>
        <pt x="1651" y="1599" on="1"/>
        <pt x="1764" y="1654" on="0"/>
        <pt x="1989" y="1771" on="1"/>
        <pt x="2023" y="1771" on="1"/>
        <pt x="2036" y="1757" on="0"/>
      </contour>
      <contour>
        <pt x="1964" y="1334" on="1"/>
        <pt x="1966" y="1285" on="0"/>
        <pt x="1929" y="1233" on="1"/>
        <pt x="1909" y="1205" on="0"/>
        <pt x="1802" y="1169" on="1"/>
        <pt x="1707" y="1136" on="0"/>
        <pt x="1678" y="1136" on="1"/>
        <pt x="1596" y="1136" on="0"/>
        <pt x="1596" y="1223" on="1"/>
        <pt x="1596" y="1275" on="0"/>
        <pt x="1651" y="1330" on="1"/>
        <pt x="1669" y="1310" on="0"/>
        <pt x="1706" y="1269" on="1"/>
        <pt x="1711" y="1267" on="0"/>
        <pt x="1715" y="1267" on="1"/>
        <pt x="1736" y="1267" on="0"/>
        <pt x="1758" y="1311" on="1"/>
        <pt x="1784" y="1366" on="0"/>
        <pt x="1805" y="1382" on="1"/>
        <pt x="1822" y="1375" on="0"/>
        <pt x="1849" y="1321" on="1"/>
        <pt x="1868" y="1328" on="0"/>
        <pt x="1916" y="1411" on="1"/>
        <pt x="1964" y="1411" on="1"/>
      </contour>
      <contour>
        <pt x="2036" y="686" on="1"/>
        <pt x="2036" y="655" on="0"/>
        <pt x="1993" y="628" on="1"/>
        <pt x="1957" y="604" on="0"/>
        <pt x="1939" y="604" on="1"/>
        <pt x="1927" y="604" on="0"/>
        <pt x="1860" y="645" on="0"/>
        <pt x="1847" y="645" on="1"/>
        <pt x="1839" y="645" on="0"/>
        <pt x="1772" y="583" on="0"/>
        <pt x="1755" y="583" on="1"/>
        <pt x="1722" y="583" on="0"/>
        <pt x="1683" y="608" on="1"/>
        <pt x="1637" y="637" on="0"/>
        <pt x="1637" y="670" on="1"/>
        <pt x="1637" y="696" on="0"/>
        <pt x="1712" y="768" on="0"/>
        <pt x="1734" y="768" on="1"/>
        <pt x="1746" y="768" on="0"/>
        <pt x="1807" y="727" on="0"/>
        <pt x="1822" y="727" on="1"/>
        <pt x="1845" y="727" on="0"/>
        <pt x="1863" y="762" on="1"/>
        <pt x="1857" y="767" on="0"/>
        <pt x="1850" y="763" on="1"/>
        <pt x="1839" y="758" on="0"/>
        <pt x="1827" y="758" on="1"/>
        <pt x="1804" y="758" on="0"/>
        <pt x="1765" y="797" on="1"/>
        <pt x="1729" y="834" on="0"/>
        <pt x="1729" y="845" on="1"/>
        <pt x="1729" y="865" on="0"/>
        <pt x="1798" y="952" on="0"/>
        <pt x="1822" y="952" on="1"/>
        <pt x="1858" y="952" on="0"/>
        <pt x="1889" y="908" on="1"/>
        <pt x="1914" y="875" on="0"/>
        <pt x="1914" y="860" on="1"/>
        <pt x="1914" y="822" on="0"/>
        <pt x="1873" y="784" on="1"/>
        <pt x="1897" y="787" on="0"/>
        <pt x="1950" y="784" on="1"/>
        <pt x="1977" y="779" on="0"/>
        <pt x="2036" y="706" on="0"/>
      </contour>
      <contour>
        <pt x="3439" y="287" on="1"/>
        <pt x="3439" y="229" on="0"/>
        <pt x="3392" y="193" on="1"/>
        <pt x="3353" y="164" on="0"/>
        <pt x="3306" y="164" on="1"/>
        <pt x="3296" y="164" on="0"/>
        <pt x="3069" y="194" on="0"/>
        <pt x="3055" y="194" on="1"/>
        <pt x="3034" y="194" on="0"/>
        <pt x="2953" y="178" on="1"/>
        <pt x="2877" y="161" on="0"/>
        <pt x="2862" y="156" on="1"/>
        <pt x="2577" y="51" on="0"/>
        <pt x="2313" y="51" on="1"/>
        <pt x="2301" y="51" on="0"/>
        <pt x="2175" y="92" on="0"/>
        <pt x="2164" y="92" on="1"/>
        <pt x="2162" y="92" on="0"/>
        <pt x="2046" y="20" on="0"/>
        <pt x="1970" y="20" on="1"/>
        <pt x="1957" y="20" on="0"/>
        <pt x="1881" y="30" on="0"/>
        <pt x="1868" y="30" on="1"/>
        <pt x="1855" y="30" on="0"/>
        <pt x="1691" y="0" on="0"/>
        <pt x="1678" y="0" on="1"/>
        <pt x="1667" y="0" on="0"/>
        <pt x="1551" y="20" on="0"/>
        <pt x="1540" y="20" on="1"/>
        <pt x="1527" y="20" on="0"/>
        <pt x="1276" y="-10" on="0"/>
        <pt x="1264" y="-10" on="1"/>
        <pt x="1251" y="-10" on="0"/>
        <pt x="1046" y="61" on="0"/>
        <pt x="1033" y="61" on="1"/>
        <pt x="1038" y="61" on="0"/>
        <pt x="917" y="13" on="1"/>
        <pt x="808" y="-31" on="0"/>
        <pt x="731" y="-31" on="1"/>
        <pt x="686" y="-31" on="0"/>
        <pt x="523" y="43" on="0"/>
        <pt x="514" y="65" on="1"/>
        <pt x="488" y="125" on="0"/>
        <pt x="478" y="241" on="1"/>
        <pt x="473" y="338" on="0"/>
        <pt x="466" y="434" on="1"/>
        <pt x="455" y="551" on="0"/>
        <pt x="425" y="826" on="1"/>
        <pt x="398" y="1064" on="0"/>
        <pt x="398" y="1075" on="1"/>
        <pt x="398" y="1190" on="0"/>
        <pt x="454" y="1218" on="1"/>
        <pt x="488" y="1219" on="0"/>
        <pt x="503" y="1164" on="1"/>
        <pt x="506" y="1150" on="0"/>
        <pt x="518" y="1060" on="1"/>
        <pt x="526" y="994" on="0"/>
        <pt x="565" y="455" on="1"/>
        <pt x="573" y="384" on="0"/>
        <pt x="586" y="241" on="1"/>
        <pt x="591" y="143" on="0"/>
        <pt x="752" y="143" on="1"/>
        <pt x="871" y="143" on="0"/>
        <pt x="910" y="190" on="1"/>
        <pt x="904" y="202" on="0"/>
        <pt x="868" y="225" on="1"/>
        <pt x="835" y="246" on="0"/>
        <pt x="828" y="246" on="1"/>
        <pt x="760" y="236" on="1"/>
        <pt x="746" y="249" on="0"/>
        <pt x="746" y="271" on="1"/>
        <pt x="746" y="314" on="0"/>
        <pt x="809" y="372" on="1"/>
        <pt x="863" y="421" on="0"/>
        <pt x="943" y="451" on="0"/>
        <pt x="1028" y="451" on="1"/>
        <pt x="1116" y="451" on="0"/>
        <pt x="1187" y="419" on="1"/>
        <pt x="1279" y="380" on="0"/>
        <pt x="1279" y="307" on="1"/>
        <pt x="1279" y="295" on="0"/>
        <pt x="1262" y="251" on="1"/>
        <pt x="1242" y="198" on="0"/>
        <pt x="1238" y="179" on="1"/>
        <pt x="1271" y="153" on="0"/>
        <pt x="1397" y="153" on="1"/>
        <pt x="1522" y="153" on="0"/>
        <pt x="1547" y="173" on="1"/>
        <pt x="1578" y="220" on="0"/>
        <pt x="1651" y="296" on="1"/>
        <pt x="1697" y="296" on="1"/>
        <pt x="1698" y="292" on="0"/>
        <pt x="1698" y="161" on="1"/>
        <pt x="1711" y="153" on="0"/>
        <pt x="1755" y="153" on="1"/>
        <pt x="1822" y="153" on="0"/>
        <pt x="1846" y="185" on="1"/>
        <pt x="1943" y="312" on="0"/>
        <pt x="1947" y="316" on="1"/>
        <pt x="1983" y="316" on="1"/>
        <pt x="1991" y="302" on="0"/>
        <pt x="1983" y="223" on="1"/>
        <pt x="1978" y="174" on="0"/>
        <pt x="2041" y="174" on="1"/>
        <pt x="2032" y="174" on="0"/>
        <pt x="2080" y="186" on="1"/>
        <pt x="2111" y="241" on="0"/>
        <pt x="2193" y="358" on="1"/>
        <pt x="2222" y="358" on="0"/>
        <pt x="2237" y="334" on="1"/>
        <pt x="2248" y="249" on="0"/>
        <pt x="2303" y="225" on="1"/>
        <pt x="2327" y="215" on="0"/>
        <pt x="2400" y="215" on="1"/>
        <pt x="2505" y="215" on="0"/>
        <pt x="2592" y="238" on="1"/>
        <pt x="2658" y="256" on="0"/>
        <pt x="2725" y="275" on="1"/>
        <pt x="2733" y="268" on="0"/>
        <pt x="2733" y="292" on="1"/>
        <pt x="2733" y="320" on="0"/>
        <pt x="2663" y="352" on="1"/>
        <pt x="2606" y="378" on="0"/>
        <pt x="2589" y="378" on="1"/>
        <pt x="2590" y="378" on="0"/>
        <pt x="2388" y="359" on="1"/>
        <pt x="2375" y="372" on="0"/>
        <pt x="2375" y="399" on="1"/>
        <pt x="2375" y="458" on="0"/>
        <pt x="2466" y="519" on="1"/>
        <pt x="2548" y="573" on="0"/>
        <pt x="2594" y="573" on="1"/>
        <pt x="2603" y="573" on="0"/>
        <pt x="2750" y="496" on="1"/>
        <pt x="2910" y="412" on="0"/>
        <pt x="2975" y="392" on="1"/>
        <pt x="3178" y="326" on="0"/>
        <pt x="3416" y="317" on="1"/>
        <pt x="3423" y="312" on="0"/>
        <pt x="3439" y="302" on="0"/>
      </contour>
      <contour>
        <pt x="1207" y="1571" on="1"/>
        <pt x="1207" y="1524" on="0"/>
        <pt x="1039" y="1429" on="1"/>
        <pt x="804" y="1295" on="0"/>
        <pt x="784" y="1280" on="1"/>
        <pt x="739" y="1280" on="1"/>
        <pt x="726" y="1294" on="0"/>
        <pt x="726" y="1316" on="1"/>
        <pt x="726" y="1388" on="0"/>
        <pt x="949" y="1507" on="1"/>
        <pt x="1118" y="1596" on="0"/>
        <pt x="1193" y="1617" on="1"/>
        <pt x="1207" y="1603" on="0"/>
      </contour>
      <contour>
        <pt x="1269" y="1423" on="1"/>
        <pt x="1269" y="1358" on="0"/>
        <pt x="1072" y="1255" on="1"/>
        <pt x="944" y="1191" on="0"/>
        <pt x="814" y="1127" on="1"/>
        <pt x="768" y="1127" on="1"/>
        <pt x="768" y="1130" on="0"/>
        <pt x="757" y="1142" on="0"/>
        <pt x="757" y="1157" on="1"/>
        <pt x="757" y="1202" on="0"/>
        <pt x="859" y="1263" on="1"/>
        <pt x="917" y="1293" on="0"/>
        <pt x="974" y="1322" on="1"/>
        <pt x="1082" y="1384" on="0"/>
        <pt x="1221" y="1453" on="1"/>
        <pt x="1256" y="1453" on="1"/>
        <pt x="1269" y="1440" on="0"/>
      </contour>
    </TTGlyph>
    <TTGlyph name="uniFB52" xMin="400" yMin="-489" xMax="4955" yMax="1834">
      <contour>
        <pt x="4955" y="1810" on="1"/>
        <pt x="4951" y="1782" on="0"/>
        <pt x="4928" y="1743" on="1"/>
        <pt x="4668" y="1593" on="0"/>
        <pt x="4426" y="1487" on="1"/>
        <pt x="4402" y="1511" on="0"/>
        <pt x="4402" y="1522" on="1"/>
        <pt x="4402" y="1581" on="0"/>
        <pt x="4631" y="1700" on="1"/>
        <pt x="4795" y="1784" on="0"/>
        <pt x="4930" y="1834" on="1"/>
      </contour>
      <contour>
        <pt x="4955" y="1333" on="1"/>
        <pt x="4955" y="1317" on="0"/>
        <pt x="4933" y="1289" on="1"/>
        <pt x="4911" y="1259" on="0"/>
        <pt x="4889" y="1253" on="1"/>
        <pt x="4801" y="1227" on="0"/>
        <pt x="4610" y="1170" on="1"/>
        <pt x="4612" y="1202" on="0"/>
        <pt x="4603" y="1265" on="1"/>
        <pt x="4601" y="1271" on="0"/>
        <pt x="4582" y="1297" on="1"/>
        <pt x="4566" y="1318" on="0"/>
        <pt x="4566" y="1333" on="1"/>
        <pt x="4566" y="1374" on="0"/>
        <pt x="4642" y="1447" on="1"/>
        <pt x="4716" y="1517" on="0"/>
        <pt x="4750" y="1517" on="1"/>
        <pt x="4766" y="1517" on="0"/>
        <pt x="4826" y="1475" on="0"/>
        <pt x="4838" y="1452" on="1"/>
        <pt x="4846" y="1412" on="0"/>
        <pt x="4821" y="1387" on="1"/>
        <pt x="4821" y="1360" on="1"/>
        <pt x="4827" y="1355" on="0"/>
        <pt x="4849" y="1357" on="1"/>
        <pt x="4891" y="1363" on="0"/>
        <pt x="4931" y="1363" on="1"/>
        <pt x="4939" y="1358" on="0"/>
        <pt x="4955" y="1348" on="0"/>
      </contour>
      <contour>
        <pt x="4904" y="212" on="1"/>
        <pt x="4904" y="30" on="0"/>
        <pt x="4824" y="33" on="1"/>
        <pt x="4818" y="45" on="0"/>
        <pt x="4804" y="67" on="1"/>
        <pt x="4797" y="292" on="0"/>
        <pt x="4766" y="528" on="1"/>
        <pt x="4756" y="618" on="0"/>
        <pt x="4720" y="826" on="1"/>
        <pt x="4689" y="1010" on="0"/>
        <pt x="4689" y="1021" on="1"/>
        <pt x="4689" y="1049" on="0"/>
        <pt x="4735" y="1163" on="0"/>
        <pt x="4753" y="1179" on="1"/>
        <pt x="4802" y="1176" on="0"/>
        <pt x="4818" y="1031" on="1"/>
        <pt x="4843" y="836" on="0"/>
        <pt x="4868" y="639" on="1"/>
        <pt x="4904" y="351" on="0"/>
      </contour>
      <contour>
        <pt x="4474" y="1077" on="1"/>
        <pt x="4474" y="1014" on="0"/>
        <pt x="4311" y="943" on="1"/>
        <pt x="4172" y="882" on="0"/>
        <pt x="4120" y="882" on="1"/>
        <pt x="4077" y="882" on="0"/>
        <pt x="4054" y="895" on="1"/>
        <pt x="4054" y="941" on="1"/>
        <pt x="4110" y="971" on="0"/>
        <pt x="4217" y="1031" on="1"/>
        <pt x="4203" y="1046" on="0"/>
        <pt x="4181" y="1046" on="1"/>
        <pt x="4154" y="1046" on="0"/>
        <pt x="4112" y="1006" on="1"/>
        <pt x="4065" y="1006" on="1"/>
        <pt x="4065" y="1050" on="1"/>
        <pt x="4064" y="1090" on="0"/>
        <pt x="4139" y="1133" on="1"/>
        <pt x="4203" y="1169" on="0"/>
        <pt x="4233" y="1169" on="1"/>
        <pt x="4244" y="1169" on="0"/>
        <pt x="4331" y="1141" on="1"/>
        <pt x="4423" y="1112" on="0"/>
        <pt x="4462" y="1106" on="1"/>
        <pt x="4462" y="1103" on="0"/>
        <pt x="4474" y="1092" on="0"/>
      </contour>
      <contour>
        <pt x="3685" y="1447" on="1"/>
        <pt x="3531" y="1339" on="0"/>
        <pt x="3252" y="1207" on="1"/>
        <pt x="3165" y="1152" on="0"/>
        <pt x="2995" y="1057" on="1"/>
        <pt x="2961" y="1057" on="1"/>
        <pt x="2948" y="1070" on="0"/>
        <pt x="2948" y="1087" on="1"/>
        <pt x="2948" y="1148" on="0"/>
        <pt x="3126" y="1253" on="1"/>
        <pt x="3234" y="1309" on="0"/>
        <pt x="3340" y="1366" on="1"/>
        <pt x="3455" y="1429" on="0"/>
        <pt x="3671" y="1527" on="1"/>
        <pt x="3685" y="1515" on="1"/>
      </contour>
      <contour>
        <pt x="4597" y="-208" on="1"/>
        <pt x="4597" y="-235" on="0"/>
        <pt x="4528" y="-305" on="0"/>
        <pt x="4504" y="-305" on="1"/>
        <pt x="4473" y="-305" on="0"/>
        <pt x="4402" y="-241" on="0"/>
        <pt x="4402" y="-223" on="1"/>
        <pt x="4402" y="-185" on="0"/>
        <pt x="4439" y="-156" on="1"/>
        <pt x="4470" y="-131" on="0"/>
        <pt x="4494" y="-131" on="1"/>
        <pt x="4531" y="-131" on="0"/>
        <pt x="4597" y="-183" on="0"/>
      </contour>
      <contour>
        <pt x="2590" y="1153" on="1"/>
        <pt x="2590" y="1098" on="0"/>
        <pt x="2544" y="1098" on="1"/>
        <pt x="2531" y="1098" on="0"/>
        <pt x="2454" y="1128" on="0"/>
        <pt x="2441" y="1128" on="1"/>
        <pt x="2436" y="1128" on="0"/>
        <pt x="2302" y="1016" on="1"/>
        <pt x="2160" y="897" on="0"/>
        <pt x="2072" y="872" on="1"/>
        <pt x="2058" y="884" on="0"/>
        <pt x="2048" y="884" on="1"/>
        <pt x="2048" y="921" on="1"/>
        <pt x="2074" y="947" on="0"/>
        <pt x="2217" y="1071" on="1"/>
        <pt x="2323" y="1163" on="0"/>
        <pt x="2323" y="1180" on="1"/>
        <pt x="2323" y="1189" on="0"/>
        <pt x="2242" y="1281" on="0"/>
        <pt x="2242" y="1303" on="1"/>
        <pt x="2242" y="1352" on="0"/>
        <pt x="2296" y="1422" on="1"/>
        <pt x="2352" y="1497" on="0"/>
        <pt x="2400" y="1497" on="1"/>
        <pt x="2479" y="1497" on="0"/>
        <pt x="2494" y="1411" on="1"/>
        <pt x="2496" y="1340" on="0"/>
        <pt x="2500" y="1268" on="1"/>
        <pt x="2507" y="1259" on="0"/>
        <pt x="2559" y="1217" on="1"/>
        <pt x="2590" y="1190" on="0"/>
      </contour>
      <contour>
        <pt x="2927" y="611" on="1"/>
        <pt x="2927" y="473" on="0"/>
        <pt x="2871" y="432" on="1"/>
        <pt x="2854" y="452" on="0"/>
        <pt x="2840" y="513" on="1"/>
        <pt x="2823" y="595" on="0"/>
        <pt x="2822" y="599" on="1"/>
        <pt x="2813" y="625" on="0"/>
        <pt x="2761" y="690" on="1"/>
        <pt x="2713" y="750" on="0"/>
        <pt x="2713" y="759" on="1"/>
        <pt x="2713" y="782" on="0"/>
        <pt x="2739" y="808" on="1"/>
        <pt x="2763" y="831" on="0"/>
        <pt x="2779" y="831" on="1"/>
        <pt x="2822" y="831" on="0"/>
        <pt x="2878" y="727" on="1"/>
        <pt x="2927" y="636" on="0"/>
      </contour>
      <contour>
        <pt x="4597" y="283" on="1"/>
        <pt x="4597" y="262" on="0"/>
        <pt x="4575" y="202" on="1"/>
        <pt x="4553" y="134" on="0"/>
        <pt x="4530" y="106" on="1"/>
        <pt x="4518" y="91" on="0"/>
        <pt x="4473" y="64" on="1"/>
        <pt x="4423" y="34" on="0"/>
        <pt x="4388" y="25" on="1"/>
        <pt x="4153" y="-28" on="0"/>
        <pt x="4018" y="-28" on="1"/>
        <pt x="4005" y="-28" on="0"/>
        <pt x="3760" y="-39" on="0"/>
        <pt x="3746" y="-39" on="1"/>
        <pt x="3737" y="-39" on="0"/>
        <pt x="3433" y="-8" on="0"/>
        <pt x="3419" y="-8" on="1"/>
        <pt x="3373" y="-8" on="0"/>
        <pt x="3351" y="-39" on="1"/>
        <pt x="3322" y="-90" on="0"/>
        <pt x="3293" y="-140" on="1"/>
        <pt x="3257" y="-140" on="1"/>
        <pt x="3257" y="-99" on="0"/>
        <pt x="3252" y="-16" on="1"/>
        <pt x="3249" y="-14" on="0"/>
        <pt x="3184" y="31" on="1"/>
        <pt x="3136" y="63" on="0"/>
        <pt x="3122" y="63" on="1"/>
        <pt x="3110" y="63" on="0"/>
        <pt x="3061" y="43" on="1"/>
        <pt x="3004" y="20" on="0"/>
        <pt x="2985" y="15" on="1"/>
        <pt x="2847" y="-18" on="0"/>
        <pt x="2722" y="-18" on="1"/>
        <pt x="2722" y="-18" on="0"/>
        <pt x="2484" y="-8" on="0"/>
        <pt x="2423" y="-8" on="1"/>
        <pt x="2387" y="-40" on="0"/>
        <pt x="2378" y="-86" on="1"/>
        <pt x="2357" y="-175" on="0"/>
        <pt x="2288" y="-270" on="1"/>
        <pt x="2215" y="-371" on="0"/>
        <pt x="2116" y="-434" on="1"/>
        <pt x="2091" y="-451" on="0"/>
        <pt x="2024" y="-471" on="1"/>
        <pt x="1961" y="-489" on="0"/>
        <pt x="1939" y="-489" on="1"/>
        <pt x="1895" y="-489" on="0"/>
        <pt x="1577" y="-436" on="1"/>
        <pt x="1577" y="-431" on="0"/>
        <pt x="1567" y="-395" on="0"/>
        <pt x="1567" y="-389" on="1"/>
        <pt x="1590" y="-367" on="0"/>
        <pt x="1622" y="-367" on="1"/>
        <pt x="1635" y="-367" on="0"/>
        <pt x="1717" y="-376" on="0"/>
        <pt x="1730" y="-376" on="1"/>
        <pt x="1816" y="-376" on="0"/>
        <pt x="1888" y="-364" on="1"/>
        <pt x="1931" y="-356" on="0"/>
        <pt x="2004" y="-321" on="1"/>
        <pt x="2094" y="-279" on="0"/>
        <pt x="2141" y="-232" on="1"/>
        <pt x="2303" y="-68" on="0"/>
        <pt x="2303" y="17" on="1"/>
        <pt x="2303" y="28" on="0"/>
        <pt x="2273" y="63" on="1"/>
        <pt x="2240" y="102" on="0"/>
        <pt x="2234" y="118" on="1"/>
        <pt x="2232" y="126" on="0"/>
        <pt x="2232" y="176" on="1"/>
        <pt x="2232" y="233" on="0"/>
        <pt x="2255" y="268" on="1"/>
        <pt x="2287" y="268" on="1"/>
        <pt x="2296" y="268" on="0"/>
        <pt x="2358" y="227" on="1"/>
        <pt x="2427" y="181" on="0"/>
        <pt x="2464" y="168" on="1"/>
        <pt x="2558" y="135" on="0"/>
        <pt x="2713" y="135" on="1"/>
        <pt x="3065" y="135" on="0"/>
        <pt x="3166" y="298" on="1"/>
        <pt x="3202" y="298" on="1"/>
        <pt x="3202" y="266" on="0"/>
        <pt x="3206" y="204" on="1"/>
        <pt x="3299" y="145" on="0"/>
        <pt x="3347" y="145" on="1"/>
        <pt x="3368" y="145" on="0"/>
        <pt x="3404" y="179" on="1"/>
        <pt x="3448" y="221" on="0"/>
        <pt x="3473" y="233" on="1"/>
        <pt x="3585" y="286" on="0"/>
        <pt x="3751" y="416" on="1"/>
        <pt x="3862" y="504" on="0"/>
        <pt x="3962" y="504" on="1"/>
        <pt x="4027" y="504" on="0"/>
        <pt x="4096" y="478" on="1"/>
        <pt x="4187" y="445" on="0"/>
        <pt x="4187" y="391" on="1"/>
        <pt x="4187" y="325" on="0"/>
        <pt x="4147" y="262" on="1"/>
        <pt x="4086" y="166" on="0"/>
        <pt x="4085" y="161" on="1"/>
        <pt x="4113" y="135" on="0"/>
        <pt x="4156" y="135" on="1"/>
        <pt x="4165" y="135" on="0"/>
        <pt x="4385" y="179" on="1"/>
        <pt x="4416" y="184" on="0"/>
        <pt x="4475" y="224" on="1"/>
        <pt x="4479" y="269" on="0"/>
        <pt x="4450" y="311" on="1"/>
        <pt x="4371" y="430" on="0"/>
        <pt x="4371" y="437" on="1"/>
        <pt x="4371" y="463" on="0"/>
        <pt x="4390" y="500" on="1"/>
        <pt x="4413" y="545" on="0"/>
        <pt x="4443" y="545" on="1"/>
        <pt x="4493" y="545" on="0"/>
        <pt x="4549" y="419" on="1"/>
        <pt x="4597" y="313" on="0"/>
      </contour>
      <contour>
        <pt x="1771" y="1276" on="1"/>
        <pt x="1771" y="1263" on="0"/>
        <pt x="1762" y="1248" on="1"/>
        <pt x="1750" y="1229" on="0"/>
        <pt x="1748" y="1221" on="1"/>
        <pt x="1716" y="1226" on="0"/>
        <pt x="1671" y="1239" on="1"/>
        <pt x="1635" y="1251" on="0"/>
        <pt x="1622" y="1251" on="1"/>
        <pt x="1629" y="1251" on="0"/>
        <pt x="1359" y="1036" on="0"/>
        <pt x="1313" y="1037" on="1"/>
        <pt x="1270" y="1037" on="1"/>
        <pt x="1270" y="1074" on="1"/>
        <pt x="1342" y="1140" on="0"/>
        <pt x="1415" y="1204" on="1"/>
        <pt x="1504" y="1285" on="0"/>
        <pt x="1504" y="1303" on="1"/>
        <pt x="1504" y="1316" on="0"/>
        <pt x="1482" y="1342" on="1"/>
        <pt x="1452" y="1377" on="0"/>
        <pt x="1443" y="1399" on="0"/>
        <pt x="1443" y="1430" on="1"/>
        <pt x="1443" y="1493" on="0"/>
        <pt x="1493" y="1551" on="1"/>
        <pt x="1549" y="1616" on="0"/>
        <pt x="1634" y="1629" on="1"/>
        <pt x="1681" y="1583" on="0"/>
        <pt x="1685" y="1554" on="1"/>
        <pt x="1678" y="1497" on="0"/>
        <pt x="1681" y="1390" on="1"/>
        <pt x="1686" y="1365" on="0"/>
        <pt x="1730" y="1325" on="1"/>
        <pt x="1771" y="1288" on="0"/>
      </contour>
      <contour>
        <pt x="1268" y="1275" on="1"/>
        <pt x="1269" y="1222" on="0"/>
        <pt x="1113" y="1155" on="1"/>
        <pt x="981" y="1098" on="0"/>
        <pt x="951" y="1098" on="1"/>
        <pt x="937" y="1098" on="0"/>
        <pt x="891" y="1121" on="1"/>
        <pt x="900" y="1153" on="0"/>
        <pt x="948" y="1176" on="1"/>
        <pt x="1001" y="1201" on="0"/>
        <pt x="1024" y="1244" on="1"/>
        <pt x="1021" y="1244" on="0"/>
        <pt x="1013" y="1251" on="0"/>
        <pt x="998" y="1251" on="1"/>
        <pt x="959" y="1251" on="0"/>
        <pt x="897" y="1190" on="1"/>
        <pt x="862" y="1190" on="1"/>
        <pt x="849" y="1203" on="0"/>
        <pt x="849" y="1221" on="1"/>
        <pt x="849" y="1275" on="0"/>
        <pt x="922" y="1326" on="1"/>
        <pt x="988" y="1374" on="0"/>
        <pt x="1039" y="1374" on="1"/>
        <pt x="1119" y="1374" on="0"/>
        <pt x="1268" y="1310" on="1"/>
      </contour>
      <contour>
        <pt x="1904" y="345" on="1"/>
        <pt x="1904" y="274" on="0"/>
        <pt x="1873" y="199" on="1"/>
        <pt x="1831" y="94" on="0"/>
        <pt x="1755" y="94" on="1"/>
        <pt x="1744" y="94" on="0"/>
        <pt x="1533" y="156" on="0"/>
        <pt x="1520" y="156" on="1"/>
        <pt x="1499" y="156" on="0"/>
        <pt x="1426" y="120" on="1"/>
        <pt x="1344" y="82" on="0"/>
        <pt x="1300" y="44" on="1"/>
        <pt x="1291" y="15" on="0"/>
        <pt x="1275" y="-35" on="1"/>
        <pt x="1252" y="-101" on="0"/>
        <pt x="1205" y="-137" on="1"/>
        <pt x="1188" y="-151" on="0"/>
        <pt x="1131" y="-151" on="1"/>
        <pt x="1118" y="-151" on="0"/>
        <pt x="1031" y="-131" on="0"/>
        <pt x="1018" y="-131" on="1"/>
        <pt x="1005" y="-131" on="0"/>
        <pt x="960" y="-176" on="1"/>
        <pt x="905" y="-232" on="0"/>
        <pt x="895" y="-240" on="1"/>
        <pt x="738" y="-353" on="0"/>
        <pt x="424" y="-397" on="1"/>
        <pt x="410" y="-385" on="0"/>
        <pt x="400" y="-385" on="1"/>
        <pt x="400" y="-348" on="1"/>
        <pt x="519" y="-297" on="0"/>
        <pt x="760" y="-186" on="1"/>
        <pt x="841" y="-146" on="0"/>
        <pt x="843" y="-145" on="1"/>
        <pt x="900" y="-111" on="0"/>
        <pt x="907" y="-73" on="1"/>
        <pt x="907" y="-27" on="0"/>
        <pt x="914" y="59" on="1"/>
        <pt x="920" y="107" on="0"/>
        <pt x="985" y="170" on="1"/>
        <pt x="1055" y="238" on="0"/>
        <pt x="1110" y="238" on="1"/>
        <pt x="1123" y="238" on="0"/>
        <pt x="1184" y="217" on="0"/>
        <pt x="1194" y="216" on="1"/>
        <pt x="1302" y="216" on="1"/>
        <pt x="1308" y="234" on="0"/>
        <pt x="1299" y="267" on="1"/>
        <pt x="1290" y="307" on="0"/>
        <pt x="1290" y="315" on="1"/>
        <pt x="1290" y="327" on="0"/>
        <pt x="1321" y="406" on="1"/>
        <pt x="1359" y="505" on="0"/>
        <pt x="1367" y="531" on="1"/>
        <pt x="1374" y="551" on="0"/>
        <pt x="1374" y="579" on="1"/>
        <pt x="1374" y="592" on="0"/>
        <pt x="1371" y="646" on="0"/>
        <pt x="1371" y="659" on="1"/>
        <pt x="1371" y="732" on="0"/>
        <pt x="1426" y="780" on="1"/>
        <pt x="1483" y="780" on="0"/>
        <pt x="1503" y="765" on="1"/>
        <pt x="1668" y="640" on="0"/>
        <pt x="1680" y="630" on="1"/>
        <pt x="1793" y="541" on="0"/>
        <pt x="1857" y="471" on="1"/>
        <pt x="1904" y="421" on="0"/>
      </contour>
      <contour>
        <pt x="4023" y="281" on="1"/>
        <pt x="4023" y="317" on="1"/>
        <pt x="3956" y="350" on="0"/>
        <pt x="3905" y="350" on="1"/>
        <pt x="3847" y="350" on="0"/>
        <pt x="3763" y="299" on="1"/>
        <pt x="3668" y="241" on="0"/>
        <pt x="3635" y="167" on="1"/>
        <pt x="3719" y="167" on="1"/>
        <pt x="3760" y="166" on="0"/>
        <pt x="3891" y="220" on="1"/>
        <pt x="4006" y="269" on="0"/>
      </contour>
      <contour>
        <pt x="2415" y="1326" on="1"/>
        <pt x="2389" y="1353" on="0"/>
        <pt x="2390" y="1353" on="1"/>
        <pt x="2381" y="1353" on="0"/>
        <pt x="2364" y="1339" on="1"/>
        <pt x="2375" y="1328" on="0"/>
        <pt x="2378" y="1313" on="1"/>
        <pt x="2396" y="1313" on="0"/>
      </contour>
      <contour>
        <pt x="1605" y="1436" on="1"/>
        <pt x="1605" y="1473" on="1"/>
        <pt x="1596" y="1484" on="0"/>
        <pt x="1567" y="1484" on="1"/>
        <pt x="1577" y="1462" on="0"/>
      </contour>
      <contour>
        <pt x="1790" y="279" on="1"/>
        <pt x="1790" y="316" on="1"/>
        <pt x="1743" y="379" on="0"/>
        <pt x="1661" y="421" on="1"/>
        <pt x="1661" y="406" on="0"/>
        <pt x="1648" y="333" on="0"/>
        <pt x="1648" y="321" on="1"/>
        <pt x="1694" y="279" on="0"/>
        <pt x="1725" y="279" on="1"/>
      </contour>
      <contour>
        <pt x="1545" y="363" on="1"/>
        <pt x="1545" y="418" on="1"/>
        <pt x="1545" y="437" on="0"/>
        <pt x="1503" y="483" on="0"/>
        <pt x="1484" y="483" on="1"/>
        <pt x="1463" y="483" on="0"/>
        <pt x="1442" y="451" on="1"/>
        <pt x="1422" y="421" on="0"/>
        <pt x="1422" y="401" on="1"/>
        <pt x="1422" y="340" on="0"/>
        <pt x="1504" y="340" on="1"/>
        <pt x="1521" y="340" on="0"/>
      </contour>
      <contour>
        <pt x="1119" y="24" on="1"/>
        <pt x="1112" y="48" on="0"/>
        <pt x="1085" y="71" on="1"/>
        <pt x="1072" y="83" on="0"/>
        <pt x="1058" y="94" on="1"/>
        <pt x="1058" y="84" on="0"/>
        <pt x="1033" y="79" on="1"/>
        <pt x="1081" y="32" on="0"/>
      </contour>
    </TTGlyph>
    <TTGlyph name="uniFB53" xMin="452" yMin="-461" xMax="4374" yMax="1556">
      <contour>
        <pt x="4240" y="1478" on="1"/>
        <pt x="4240" y="1443" on="0"/>
        <pt x="4039" y="1334" on="1"/>
        <pt x="3923" y="1271" on="0"/>
        <pt x="3807" y="1208" on="1"/>
        <pt x="3762" y="1208" on="1"/>
        <pt x="3739" y="1232" on="0"/>
        <pt x="3739" y="1244" on="1"/>
        <pt x="3739" y="1327" on="0"/>
        <pt x="4215" y="1536" on="1"/>
        <pt x="4229" y="1524" on="0"/>
        <pt x="4240" y="1524" on="1"/>
      </contour>
      <contour>
        <pt x="3718" y="1375" on="1"/>
        <pt x="3718" y="1338" on="0"/>
        <pt x="3572" y="1265" on="1"/>
        <pt x="3438" y="1198" on="0"/>
        <pt x="3417" y="1198" on="1"/>
        <pt x="3402" y="1198" on="0"/>
        <pt x="3377" y="1208" on="0"/>
        <pt x="3373" y="1208" on="1"/>
        <pt x="3360" y="1221" on="1"/>
        <pt x="3360" y="1268" on="1"/>
        <pt x="3396" y="1292" on="0"/>
        <pt x="3472" y="1347" on="1"/>
        <pt x="3456" y="1362" on="1"/>
        <pt x="3450" y="1359" on="0"/>
        <pt x="3377" y="1311" on="1"/>
        <pt x="3342" y="1311" on="1"/>
        <pt x="3329" y="1324" on="0"/>
        <pt x="3329" y="1341" on="1"/>
        <pt x="3329" y="1378" on="0"/>
        <pt x="3438" y="1484" on="0"/>
        <pt x="3478" y="1484" on="1"/>
        <pt x="3504" y="1484" on="0"/>
        <pt x="3718" y="1431" on="1"/>
      </contour>
      <contour>
        <pt x="3544" y="804" on="1"/>
        <pt x="3524" y="767" on="0"/>
        <pt x="3504" y="729" on="1"/>
        <pt x="3487" y="706" on="0"/>
        <pt x="3447" y="706" on="1"/>
        <pt x="3416" y="706" on="0"/>
        <pt x="3384" y="729" on="1"/>
        <pt x="3350" y="753" on="0"/>
        <pt x="3350" y="778" on="1"/>
        <pt x="3350" y="796" on="0"/>
        <pt x="3418" y="881" on="0"/>
        <pt x="3431" y="881" on="1"/>
        <pt x="3468" y="881" on="0"/>
      </contour>
      <contour>
        <pt x="3145" y="1203" on="1"/>
        <pt x="3145" y="1182" on="0"/>
        <pt x="3111" y="1136" on="0"/>
        <pt x="3094" y="1136" on="1"/>
        <pt x="3082" y="1136" on="0"/>
        <pt x="3020" y="1188" on="0"/>
        <pt x="3007" y="1188" on="1"/>
        <pt x="2994" y="1188" on="0"/>
        <pt x="2962" y="1158" on="1"/>
        <pt x="2919" y="1117" on="0"/>
        <pt x="2907" y="1109" on="1"/>
        <pt x="2802" y="1035" on="0"/>
        <pt x="2680" y="983" on="1"/>
        <pt x="2572" y="997" on="1"/>
        <pt x="2661" y="1058" on="0"/>
        <pt x="2750" y="1121" on="1"/>
        <pt x="2889" y="1221" on="0"/>
        <pt x="2889" y="1249" on="1"/>
        <pt x="2889" y="1258" on="0"/>
        <pt x="2828" y="1343" on="0"/>
        <pt x="2828" y="1357" on="1"/>
        <pt x="2828" y="1416" on="0"/>
        <pt x="2892" y="1487" on="1"/>
        <pt x="2955" y="1556" on="0"/>
        <pt x="3001" y="1556" on="1"/>
        <pt x="3067" y="1556" on="0"/>
        <pt x="3080" y="1490" on="1"/>
        <pt x="3075" y="1439" on="0"/>
        <pt x="3076" y="1336" on="1"/>
        <pt x="3078" y="1313" on="0"/>
        <pt x="3145" y="1214" on="0"/>
      </contour>
      <contour>
        <pt x="4342" y="-75" on="1"/>
        <pt x="4324" y="-184" on="0"/>
        <pt x="4225" y="-184" on="1"/>
        <pt x="4214" y="-184" on="0"/>
        <pt x="4165" y="-174" on="0"/>
        <pt x="4153" y="-174" on="1"/>
        <pt x="4141" y="-174" on="0"/>
        <pt x="4064" y="-215" on="0"/>
        <pt x="4052" y="-215" on="1"/>
        <pt x="4016" y="-215" on="0"/>
        <pt x="3943" y="-165" on="0"/>
        <pt x="3943" y="-143" on="1"/>
        <pt x="3943" y="-117" on="0"/>
        <pt x="4016" y="-31" on="0"/>
        <pt x="4036" y="-31" on="1"/>
        <pt x="4047" y="-31" on="0"/>
        <pt x="4111" y="-61" on="0"/>
        <pt x="4123" y="-61" on="1"/>
        <pt x="4136" y="-61" on="0"/>
        <pt x="4202" y="-10" on="0"/>
        <pt x="4215" y="-10" on="1"/>
        <pt x="4256" y="-10" on="0"/>
      </contour>
      <contour>
        <pt x="4373" y="290" on="1"/>
        <pt x="4374" y="274" on="0"/>
        <pt x="4324" y="206" on="0"/>
        <pt x="4300" y="188" on="1"/>
        <pt x="4295" y="184" on="0"/>
        <pt x="4246" y="184" on="1"/>
        <pt x="4233" y="184" on="0"/>
        <pt x="4069" y="194" on="0"/>
        <pt x="4056" y="194" on="1"/>
        <pt x="3983" y="194" on="0"/>
        <pt x="3694" y="95" on="1"/>
        <pt x="3627" y="71" on="0"/>
        <pt x="3490" y="44" on="1"/>
        <pt x="3346" y="16" on="0"/>
        <pt x="3285" y="-4" on="1"/>
        <pt x="3268" y="-9" on="0"/>
        <pt x="3243" y="-78" on="1"/>
        <pt x="3209" y="-174" on="0"/>
        <pt x="3128" y="-275" on="1"/>
        <pt x="3032" y="-394" on="0"/>
        <pt x="2927" y="-437" on="1"/>
        <pt x="2869" y="-461" on="0"/>
        <pt x="2787" y="-461" on="1"/>
        <pt x="2756" y="-461" on="0"/>
        <pt x="2442" y="-396" on="1"/>
        <pt x="2423" y="-382" on="0"/>
        <pt x="2408" y="-352" on="1"/>
        <pt x="2429" y="-330" on="0"/>
        <pt x="2495" y="-330" on="1"/>
        <pt x="2534" y="-330" on="0"/>
        <pt x="2684" y="-348" on="0"/>
        <pt x="2705" y="-348" on="1"/>
        <pt x="2835" y="-348" on="0"/>
        <pt x="3146" y="-104" on="0"/>
        <pt x="3146" y="4" on="1"/>
        <pt x="3073" y="48" on="0"/>
        <pt x="3073" y="97" on="1"/>
        <pt x="3073" y="122" on="0"/>
        <pt x="3094" y="150" on="1"/>
        <pt x="3118" y="184" on="0"/>
        <pt x="3150" y="184" on="1"/>
        <pt x="3163" y="184" on="0"/>
        <pt x="3214" y="157" on="0"/>
        <pt x="3223" y="156" on="1"/>
        <pt x="3237" y="153" on="0"/>
        <pt x="3319" y="153" on="1"/>
        <pt x="3331" y="153" on="0"/>
        <pt x="3370" y="174" on="0"/>
        <pt x="3381" y="174" on="1"/>
        <pt x="3421" y="174" on="0"/>
        <pt x="3498" y="193" on="1"/>
        <pt x="3571" y="211" on="0"/>
        <pt x="3576" y="219" on="1"/>
        <pt x="3440" y="287" on="0"/>
        <pt x="3386" y="287" on="1"/>
        <pt x="3379" y="287" on="0"/>
        <pt x="3332" y="277" on="0"/>
        <pt x="3291" y="277" on="1"/>
        <pt x="3278" y="278" on="0"/>
        <pt x="3278" y="301" on="1"/>
        <pt x="3278" y="334" on="0"/>
        <pt x="3323" y="374" on="1"/>
        <pt x="3404" y="443" on="0"/>
        <pt x="3516" y="478" on="1"/>
        <pt x="3668" y="523" on="0"/>
        <pt x="3690" y="534" on="1"/>
        <pt x="3864" y="622" on="0"/>
        <pt x="3948" y="735" on="1"/>
        <pt x="3968" y="763" on="0"/>
        <pt x="4011" y="794" on="1"/>
        <pt x="4060" y="829" on="0"/>
        <pt x="4093" y="829" on="1"/>
        <pt x="4126" y="829" on="0"/>
        <pt x="4161" y="745" on="1"/>
        <pt x="4189" y="674" on="0"/>
        <pt x="4189" y="640" on="1"/>
        <pt x="4189" y="608" on="0"/>
        <pt x="4167" y="558" on="1"/>
        <pt x="4148" y="514" on="0"/>
        <pt x="4135" y="502" on="1"/>
        <pt x="4097" y="504" on="0"/>
        <pt x="4086" y="546" on="1"/>
        <pt x="4068" y="612" on="0"/>
        <pt x="4038" y="646" on="1"/>
        <pt x="4039" y="646" on="0"/>
        <pt x="4003" y="632" on="1"/>
        <pt x="3987" y="614" on="0"/>
        <pt x="3739" y="393" on="1"/>
        <pt x="3748" y="383" on="1"/>
        <pt x="3855" y="345" on="0"/>
        <pt x="4060" y="343" on="1"/>
        <pt x="4297" y="341" on="0"/>
        <pt x="4373" y="325" on="1"/>
      </contour>
      <contour>
        <pt x="2224" y="1157" on="1"/>
        <pt x="2224" y="1130" on="0"/>
        <pt x="2199" y="1106" on="1"/>
        <pt x="2173" y="1111" on="0"/>
        <pt x="2131" y="1130" on="1"/>
        <pt x="2093" y="1147" on="0"/>
        <pt x="2081" y="1147" on="1"/>
        <pt x="2072" y="1147" on="0"/>
        <pt x="1787" y="942" on="0"/>
        <pt x="1706" y="942" on="1"/>
        <pt x="1697" y="942" on="0"/>
        <pt x="1651" y="965" on="1"/>
        <pt x="1651" y="989" on="0"/>
        <pt x="1683" y="1008" on="1"/>
        <pt x="1759" y="1054" on="0"/>
        <pt x="1835" y="1100" on="1"/>
        <pt x="1958" y="1180" on="0"/>
        <pt x="1958" y="1213" on="1"/>
        <pt x="1958" y="1225" on="0"/>
        <pt x="1935" y="1249" on="1"/>
        <pt x="1906" y="1281" on="0"/>
        <pt x="1899" y="1293" on="1"/>
        <pt x="1896" y="1305" on="0"/>
        <pt x="1896" y="1331" on="1"/>
        <pt x="1896" y="1380" on="0"/>
        <pt x="1959" y="1452" on="1"/>
        <pt x="2024" y="1528" on="0"/>
        <pt x="2079" y="1528" on="1"/>
        <pt x="2090" y="1528" on="0"/>
        <pt x="2099" y="1525" on="1"/>
        <pt x="2148" y="1470" on="0"/>
        <pt x="2148" y="1394" on="1"/>
        <pt x="2148" y="1375" on="0"/>
        <pt x="2141" y="1321" on="0"/>
        <pt x="2141" y="1312" on="1"/>
        <pt x="2141" y="1303" on="0"/>
        <pt x="2144" y="1297" on="1"/>
        <pt x="2148" y="1288" on="0"/>
        <pt x="2191" y="1228" on="1"/>
        <pt x="2224" y="1181" on="0"/>
      </contour>
      <contour>
        <pt x="2500" y="-77" on="1"/>
        <pt x="2500" y="-104" on="0"/>
        <pt x="2434" y="-174" on="0"/>
        <pt x="2408" y="-174" on="1"/>
        <pt x="2372" y="-174" on="0"/>
        <pt x="2341" y="-138" on="1"/>
        <pt x="2316" y="-108" on="0"/>
        <pt x="2316" y="-92" on="1"/>
        <pt x="2316" y="-76" on="0"/>
        <pt x="2384" y="10" on="0"/>
        <pt x="2403" y="10" on="1"/>
        <pt x="2433" y="10" on="0"/>
        <pt x="2500" y="-54" on="0"/>
      </contour>
      <contour>
        <pt x="2807" y="271" on="1"/>
        <pt x="2807" y="174" on="0"/>
        <pt x="2634" y="174" on="1"/>
        <pt x="2620" y="174" on="0"/>
        <pt x="2487" y="194" on="0"/>
        <pt x="2475" y="194" on="1"/>
        <pt x="2458" y="194" on="0"/>
        <pt x="2435" y="177" on="1"/>
        <pt x="2384" y="181" on="0"/>
        <pt x="2288" y="144" on="1"/>
        <pt x="2213" y="115" on="0"/>
        <pt x="2138" y="84" on="1"/>
        <pt x="2024" y="47" on="0"/>
        <pt x="1922" y="27" on="1"/>
        <pt x="1880" y="18" on="0"/>
        <pt x="1868" y="-7" on="1"/>
        <pt x="1664" y="-420" on="0"/>
        <pt x="1420" y="-420" on="1"/>
        <pt x="1307" y="-420" on="0"/>
        <pt x="1283" y="-416" on="1"/>
        <pt x="1206" y="-408" on="0"/>
        <pt x="1078" y="-367" on="1"/>
        <pt x="1078" y="-319" on="1"/>
        <pt x="1086" y="-317" on="0"/>
        <pt x="1287" y="-317" on="1"/>
        <pt x="1512" y="-317" on="0"/>
        <pt x="1723" y="-44" on="1"/>
        <pt x="1723" y="-18" on="1"/>
        <pt x="1651" y="-1" on="0"/>
        <pt x="1580" y="15" on="1"/>
        <pt x="1496" y="42" on="0"/>
        <pt x="1496" y="128" on="1"/>
        <pt x="1496" y="185" on="0"/>
        <pt x="1541" y="274" on="1"/>
        <pt x="1592" y="378" on="0"/>
        <pt x="1650" y="378" on="1"/>
        <pt x="1718" y="378" on="0"/>
        <pt x="1867" y="174" on="0"/>
        <pt x="1881" y="174" on="1"/>
        <pt x="1990" y="174" on="0"/>
        <pt x="2183" y="264" on="1"/>
        <pt x="2181" y="288" on="0"/>
        <pt x="2075" y="338" on="0"/>
        <pt x="2034" y="338" on="1"/>
        <pt x="2001" y="338" on="0"/>
        <pt x="1838" y="297" on="1"/>
        <pt x="1824" y="311" on="0"/>
        <pt x="1824" y="328" on="1"/>
        <pt x="1824" y="374" on="0"/>
        <pt x="1918" y="455" on="1"/>
        <pt x="2008" y="532" on="0"/>
        <pt x="2049" y="532" on="1"/>
        <pt x="2062" y="532" on="0"/>
        <pt x="2185" y="475" on="1"/>
        <pt x="2332" y="407" on="0"/>
        <pt x="2374" y="391" on="1"/>
        <pt x="2446" y="363" on="0"/>
        <pt x="2564" y="338" on="1"/>
        <pt x="2664" y="317" on="0"/>
        <pt x="2689" y="317" on="1"/>
        <pt x="2702" y="317" on="0"/>
        <pt x="2702" y="328" on="0"/>
        <pt x="2715" y="328" on="1"/>
        <pt x="2746" y="328" on="0"/>
        <pt x="2774" y="312" on="1"/>
        <pt x="2807" y="295" on="0"/>
      </contour>
      <contour>
        <pt x="1077" y="1377" on="1"/>
        <pt x="1077" y="1330" on="0"/>
        <pt x="826" y="1182" on="1"/>
        <pt x="622" y="1062" on="0"/>
        <pt x="509" y="1013" on="1"/>
        <pt x="494" y="1025" on="0"/>
        <pt x="484" y="1025" on="1"/>
        <pt x="484" y="1082" on="1"/>
        <pt x="571" y="1161" on="0"/>
        <pt x="736" y="1253" on="1"/>
        <pt x="1012" y="1407" on="0"/>
        <pt x="1019" y="1411" on="1"/>
        <pt x="1066" y="1411" on="1"/>
        <pt x="1066" y="1408" on="0"/>
        <pt x="1077" y="1392" on="0"/>
      </contour>
      <contour>
        <pt x="872" y="686" on="1"/>
        <pt x="872" y="654" on="0"/>
        <pt x="826" y="604" on="0"/>
        <pt x="795" y="604" on="1"/>
        <pt x="770" y="604" on="0"/>
        <pt x="731" y="628" on="1"/>
        <pt x="688" y="653" on="0"/>
        <pt x="688" y="676" on="1"/>
        <pt x="688" y="707" on="0"/>
        <pt x="723" y="745" on="1"/>
        <pt x="755" y="778" on="0"/>
        <pt x="770" y="778" on="1"/>
        <pt x="808" y="778" on="0"/>
        <pt x="872" y="723" on="0"/>
      </contour>
      <contour>
        <pt x="1251" y="164" on="1"/>
        <pt x="1251" y="100" on="0"/>
        <pt x="1226" y="34" on="1"/>
        <pt x="1190" y="-63" on="0"/>
        <pt x="1125" y="-99" on="1"/>
        <pt x="1077" y="-126" on="0"/>
        <pt x="980" y="-162" on="1"/>
        <pt x="863" y="-204" on="0"/>
        <pt x="816" y="-204" on="1"/>
        <pt x="759" y="-204" on="1"/>
        <pt x="653" y="-204" on="0"/>
        <pt x="558" y="-130" on="1"/>
        <pt x="452" y="-47" on="0"/>
        <pt x="452" y="66" on="1"/>
        <pt x="452" y="120" on="0"/>
        <pt x="502" y="226" on="1"/>
        <pt x="558" y="348" on="0"/>
        <pt x="614" y="348" on="1"/>
        <pt x="620" y="348" on="0"/>
        <pt x="624" y="347" on="1"/>
        <pt x="631" y="342" on="0"/>
        <pt x="647" y="333" on="0"/>
        <pt x="647" y="317" on="1"/>
        <pt x="647" y="309" on="0"/>
        <pt x="565" y="159" on="0"/>
        <pt x="565" y="133" on="1"/>
        <pt x="565" y="103" on="0"/>
        <pt x="601" y="54" on="1"/>
        <pt x="635" y="9" on="0"/>
        <pt x="665" y="-8" on="1"/>
        <pt x="704" y="-31" on="0"/>
        <pt x="806" y="-31" on="1"/>
        <pt x="999" y="-31" on="0"/>
        <pt x="1138" y="88" on="1"/>
        <pt x="1141" y="147" on="0"/>
        <pt x="1115" y="207" on="1"/>
        <pt x="1107" y="225" on="0"/>
        <pt x="1061" y="306" on="1"/>
        <pt x="1025" y="369" on="0"/>
        <pt x="1025" y="383" on="1"/>
        <pt x="1025" y="413" on="0"/>
        <pt x="1042" y="444" on="1"/>
        <pt x="1061" y="481" on="0"/>
        <pt x="1087" y="481" on="1"/>
        <pt x="1126" y="481" on="0"/>
        <pt x="1184" y="375" on="1"/>
        <pt x="1229" y="289" on="0"/>
        <pt x="1237" y="251" on="1"/>
        <pt x="1251" y="179" on="0"/>
      </contour>
      <contour>
        <pt x="2058" y="1331" on="1"/>
        <pt x="2058" y="1369" on="1"/>
        <pt x="2049" y="1380" on="0"/>
        <pt x="2019" y="1380" on="1"/>
        <pt x="2031" y="1358" on="0"/>
      </contour>
    </TTGlyph>
    <TTGlyph name="uniFB54" xMin="135" yMin="-419" xMax="1589" yMax="1289">
      <contour>
        <pt x="841" y="1244" on="1"/>
        <pt x="841" y="1194" on="0"/>
        <pt x="768" y="1149" on="1"/>
        <pt x="712" y="1121" on="0"/>
        <pt x="654" y="1092" on="1"/>
        <pt x="546" y="1038" on="0"/>
        <pt x="326" y="922" on="1"/>
        <pt x="291" y="922" on="1"/>
        <pt x="278" y="935" on="0"/>
        <pt x="278" y="957" on="1"/>
        <pt x="278" y="946" on="0"/>
        <pt x="292" y="1001" on="1"/>
        <pt x="373" y="1053" on="0"/>
        <pt x="527" y="1139" on="1"/>
        <pt x="626" y="1189" on="0"/>
        <pt x="827" y="1289" on="1"/>
        <pt x="841" y="1275" on="0"/>
      </contour>
      <contour>
        <pt x="1589" y="-163" on="1"/>
        <pt x="1589" y="-219" on="0"/>
        <pt x="1487" y="-271" on="1"/>
        <pt x="1429" y="-296" on="0"/>
        <pt x="1371" y="-321" on="1"/>
        <pt x="1339" y="-336" on="0"/>
        <pt x="1144" y="-419" on="1"/>
        <pt x="1111" y="-419" on="1"/>
        <pt x="1098" y="-406" on="0"/>
        <pt x="1098" y="-384" on="1"/>
        <pt x="1098" y="-324" on="0"/>
        <pt x="1220" y="-266" on="1"/>
        <pt x="1288" y="-239" on="0"/>
        <pt x="1356" y="-212" on="1"/>
        <pt x="1416" y="-184" on="0"/>
        <pt x="1542" y="-133" on="1"/>
        <pt x="1576" y="-133" on="1"/>
        <pt x="1589" y="-146" on="0"/>
      </contour>
      <contour>
        <pt x="595" y="397" on="1"/>
        <pt x="599" y="355" on="0"/>
        <pt x="543" y="287" on="0"/>
        <pt x="504" y="287" on="1"/>
        <pt x="467" y="287" on="0"/>
        <pt x="436" y="320" on="1"/>
        <pt x="411" y="349" on="0"/>
        <pt x="411" y="369" on="1"/>
        <pt x="411" y="398" on="0"/>
        <pt x="463" y="460" on="0"/>
        <pt x="488" y="460" on="1"/>
        <pt x="529" y="460" on="0"/>
      </contour>
      <contour>
        <pt x="1497" y="230" on="1"/>
        <pt x="1497" y="172" on="0"/>
        <pt x="1473" y="128" on="1"/>
        <pt x="1442" y="71" on="0"/>
        <pt x="1384" y="71" on="1"/>
        <pt x="1321" y="71" on="0"/>
        <pt x="1234" y="95" on="1"/>
        <pt x="1226" y="97" on="0"/>
        <pt x="1206" y="111" on="1"/>
        <pt x="1188" y="123" on="0"/>
        <pt x="1175" y="123" on="1"/>
        <pt x="1163" y="123" on="0"/>
        <pt x="1128" y="85" on="1"/>
        <pt x="1088" y="42" on="0"/>
        <pt x="1075" y="34" on="1"/>
        <pt x="1024" y="18" on="0"/>
        <pt x="925" y="-28" on="1"/>
        <pt x="915" y="-62" on="0"/>
        <pt x="916" y="-77" on="1"/>
        <pt x="921" y="-239" on="0"/>
        <pt x="751" y="-334" on="1"/>
        <pt x="616" y="-409" on="0"/>
        <pt x="463" y="-409" on="1"/>
        <pt x="335" y="-409" on="0"/>
        <pt x="240" y="-339" on="1"/>
        <pt x="135" y="-261" on="0"/>
        <pt x="135" y="-138" on="1"/>
        <pt x="135" y="-84" on="0"/>
        <pt x="179" y="8" on="1"/>
        <pt x="219" y="92" on="0"/>
        <pt x="262" y="143" on="1"/>
        <pt x="299" y="127" on="0"/>
        <pt x="299" y="92" on="1"/>
        <pt x="299" y="79" on="0"/>
        <pt x="247" y="-58" on="0"/>
        <pt x="247" y="-72" on="1"/>
        <pt x="247" y="-160" on="0"/>
        <pt x="347" y="-209" on="1"/>
        <pt x="421" y="-245" on="0"/>
        <pt x="493" y="-245" on="1"/>
        <pt x="569" y="-245" on="0"/>
        <pt x="680" y="-207" on="1"/>
        <pt x="821" y="-158" on="0"/>
        <pt x="821" y="-92" on="1"/>
        <pt x="821" y="-33" on="0"/>
        <pt x="783" y="33" on="1"/>
        <pt x="729" y="129" on="0"/>
        <pt x="729" y="189" on="1"/>
        <pt x="729" y="236" on="0"/>
        <pt x="763" y="286" on="1"/>
        <pt x="798" y="286" on="1"/>
        <pt x="834" y="241" on="0"/>
        <pt x="870" y="197" on="1"/>
        <pt x="903" y="164" on="0"/>
        <pt x="970" y="164" on="1"/>
        <pt x="1033" y="164" on="0"/>
        <pt x="1067" y="193" on="1"/>
        <pt x="1099" y="220" on="0"/>
        <pt x="1152" y="315" on="1"/>
        <pt x="1175" y="356" on="0"/>
        <pt x="1230" y="415" on="1"/>
        <pt x="1302" y="492" on="0"/>
        <pt x="1343" y="492" on="1"/>
        <pt x="1401" y="492" on="0"/>
        <pt x="1453" y="376" on="1"/>
        <pt x="1497" y="280" on="0"/>
      </contour>
      <contour>
        <pt x="1343" y="257" on="1"/>
        <pt x="1314" y="317" on="0"/>
        <pt x="1285" y="317" on="1"/>
        <pt x="1261" y="292" on="1"/>
        <pt x="1278" y="279" on="0"/>
        <pt x="1305" y="257" on="1"/>
      </contour>
    </TTGlyph>
    <TTGlyph name="uniFB55" xMin="122" yMin="-373" xMax="4801" yMax="1838">
      <contour>
        <pt x="4801" y="1526" on="1"/>
        <pt x="4801" y="1376" on="0"/>
        <pt x="4603" y="1319" on="1"/>
        <pt x="4603" y="1319" on="0"/>
        <pt x="4482" y="1316" on="1"/>
        <pt x="4461" y="1315" on="0"/>
        <pt x="4448" y="1312" on="1"/>
        <pt x="4446" y="1312" on="0"/>
        <pt x="4411" y="1276" on="0"/>
        <pt x="4397" y="1276" on="1"/>
        <pt x="4352" y="1276" on="1"/>
        <pt x="4376" y="1394" on="0"/>
        <pt x="4456" y="1435" on="1"/>
        <pt x="4483" y="1443" on="0"/>
        <pt x="4527" y="1461" on="1"/>
        <pt x="4566" y="1506" on="0"/>
        <pt x="4605" y="1549" on="1"/>
        <pt x="4673" y="1624" on="0"/>
        <pt x="4724" y="1624" on="1"/>
        <pt x="4801" y="1624" on="0"/>
      </contour>
      <contour>
        <pt x="4351" y="1526" on="1"/>
        <pt x="4351" y="1476" on="0"/>
        <pt x="4215" y="1403" on="1"/>
        <pt x="4093" y="1337" on="0"/>
        <pt x="4057" y="1337" on="1"/>
        <pt x="3985" y="1337" on="1"/>
        <pt x="3962" y="1362" on="0"/>
        <pt x="3962" y="1373" on="1"/>
        <pt x="3962" y="1386" on="0"/>
        <pt x="4011" y="1420" on="1"/>
        <pt x="4080" y="1468" on="0"/>
        <pt x="4094" y="1481" on="1"/>
        <pt x="4088" y="1491" on="0"/>
        <pt x="4074" y="1491" on="1"/>
        <pt x="4076" y="1491" on="0"/>
        <pt x="3985" y="1461" on="1"/>
        <pt x="3971" y="1461" on="0"/>
        <pt x="3971" y="1485" on="1"/>
        <pt x="3971" y="1541" on="0"/>
        <pt x="4034" y="1580" on="1"/>
        <pt x="4087" y="1614" on="0"/>
        <pt x="4135" y="1614" on="1"/>
        <pt x="4184" y="1614" on="0"/>
        <pt x="4261" y="1588" on="1"/>
        <pt x="4351" y="1559" on="0"/>
      </contour>
      <contour>
        <pt x="4637" y="278" on="1"/>
        <pt x="4637" y="138" on="0"/>
        <pt x="4583" y="79" on="1"/>
        <pt x="4546" y="79" on="1"/>
        <pt x="4433" y="1071" on="1"/>
        <pt x="4433" y="1090" on="0"/>
        <pt x="4460" y="1140" on="1"/>
        <pt x="4486" y="1185" on="0"/>
        <pt x="4497" y="1194" on="1"/>
        <pt x="4522" y="1194" on="0"/>
        <pt x="4529" y="1182" on="1"/>
        <pt x="4554" y="1171" on="0"/>
        <pt x="4567" y="1017" on="1"/>
        <pt x="4585" y="807" on="0"/>
        <pt x="4592" y="770" on="1"/>
        <pt x="4605" y="705" on="0"/>
        <pt x="4613" y="574" on="1"/>
        <pt x="4615" y="526" on="0"/>
        <pt x="4627" y="401" on="1"/>
        <pt x="4637" y="289" on="0"/>
      </contour>
      <contour>
        <pt x="3532" y="1797" on="1"/>
        <pt x="3532" y="1750" on="0"/>
        <pt x="3494" y="1729" on="1"/>
        <pt x="3178" y="1556" on="0"/>
        <pt x="3033" y="1521" on="1"/>
        <pt x="3020" y="1535" on="0"/>
        <pt x="3020" y="1557" on="1"/>
        <pt x="3020" y="1610" on="0"/>
        <pt x="3052" y="1629" on="1"/>
        <pt x="3169" y="1699" on="0"/>
        <pt x="3495" y="1838" on="1"/>
        <pt x="3532" y="1838" on="0"/>
      </contour>
      <contour>
        <pt x="3552" y="1321" on="1"/>
        <pt x="3552" y="1304" on="0"/>
        <pt x="3523" y="1253" on="0"/>
        <pt x="3508" y="1248" on="1"/>
        <pt x="3455" y="1238" on="0"/>
        <pt x="3354" y="1211" on="1"/>
        <pt x="3341" y="1206" on="0"/>
        <pt x="3292" y="1177" on="1"/>
        <pt x="3251" y="1153" on="0"/>
        <pt x="3238" y="1153" on="1"/>
        <pt x="3184" y="1153" on="1"/>
        <pt x="3184" y="1163" on="0"/>
        <pt x="3193" y="1221" on="0"/>
        <pt x="3193" y="1235" on="1"/>
        <pt x="3193" y="1246" on="0"/>
        <pt x="3152" y="1303" on="0"/>
        <pt x="3152" y="1316" on="1"/>
        <pt x="3152" y="1353" on="0"/>
        <pt x="3228" y="1432" on="1"/>
        <pt x="3292" y="1499" on="0"/>
        <pt x="3310" y="1507" on="1"/>
        <pt x="3320" y="1511" on="0"/>
        <pt x="3347" y="1511" on="1"/>
        <pt x="3394" y="1511" on="0"/>
        <pt x="3439" y="1468" on="1"/>
        <pt x="3439" y="1400" on="1"/>
        <pt x="3406" y="1368" on="0"/>
        <pt x="3368" y="1368" on="1"/>
        <pt x="3361" y="1368" on="0"/>
        <pt x="3341" y="1373" on="1"/>
        <pt x="3328" y="1377" on="0"/>
        <pt x="3316" y="1371" on="1"/>
        <pt x="3329" y="1348" on="0"/>
        <pt x="3366" y="1345" on="1"/>
        <pt x="3328" y="1348" on="0"/>
        <pt x="3409" y="1348" on="1"/>
        <pt x="3477" y="1348" on="0"/>
        <pt x="3540" y="1357" on="1"/>
        <pt x="3540" y="1353" on="0"/>
        <pt x="3552" y="1336" on="0"/>
      </contour>
      <contour>
        <pt x="4216" y="1019" on="1"/>
        <pt x="4216" y="961" on="0"/>
        <pt x="4193" y="920" on="1"/>
        <pt x="4159" y="899" on="0"/>
        <pt x="4117" y="840" on="1"/>
        <pt x="4112" y="736" on="0"/>
        <pt x="4090" y="542" on="1"/>
        <pt x="4085" y="510" on="0"/>
        <pt x="4057" y="410" on="1"/>
        <pt x="4033" y="321" on="0"/>
        <pt x="4033" y="308" on="1"/>
        <pt x="4033" y="297" on="0"/>
        <pt x="4094" y="116" on="0"/>
        <pt x="4094" y="103" on="1"/>
        <pt x="4094" y="65" on="0"/>
        <pt x="4052" y="-21" on="1"/>
        <pt x="3773" y="-96" on="0"/>
        <pt x="3680" y="-96" on="1"/>
        <pt x="3521" y="-96" on="0"/>
        <pt x="3521" y="1" on="1"/>
        <pt x="3521" y="11" on="0"/>
        <pt x="3543" y="80" on="0"/>
        <pt x="3543" y="97" on="1"/>
        <pt x="3546" y="97" on="0"/>
        <pt x="3558" y="108" on="0"/>
        <pt x="3572" y="108" on="1"/>
        <pt x="3585" y="108" on="0"/>
        <pt x="3641" y="78" on="0"/>
        <pt x="3654" y="78" on="1"/>
        <pt x="3702" y="78" on="0"/>
        <pt x="3880" y="238" on="0"/>
        <pt x="3880" y="288" on="1"/>
        <pt x="3880" y="301" on="0"/>
        <pt x="3864" y="322" on="1"/>
        <pt x="3845" y="348" on="0"/>
        <pt x="3841" y="357" on="1"/>
        <pt x="3803" y="456" on="0"/>
        <pt x="3660" y="628" on="1"/>
        <pt x="3513" y="804" on="0"/>
        <pt x="3459" y="804" on="1"/>
        <pt x="3449" y="804" on="0"/>
        <pt x="3417" y="795" on="0"/>
        <pt x="3404" y="795" on="1"/>
        <pt x="3224" y="795" on="0"/>
        <pt x="3224" y="1004" on="1"/>
        <pt x="3224" y="1102" on="0"/>
        <pt x="3281" y="1102" on="1"/>
        <pt x="3405" y="1102" on="0"/>
        <pt x="3656" y="827" on="1"/>
        <pt x="3848" y="617" on="0"/>
        <pt x="3947" y="456" on="1"/>
        <pt x="3985" y="496" on="0"/>
        <pt x="3991" y="598" on="1"/>
        <pt x="3992" y="678" on="0"/>
        <pt x="3992" y="759" on="1"/>
        <pt x="3992" y="1026" on="0"/>
        <pt x="3992" y="1025" on="1"/>
        <pt x="4021" y="1162" on="0"/>
        <pt x="4110" y="1235" on="1"/>
        <pt x="4143" y="1208" on="0"/>
        <pt x="4143" y="1149" on="1"/>
        <pt x="4143" y="1144" on="0"/>
        <pt x="4143" y="1121" on="0"/>
        <pt x="4143" y="1116" on="1"/>
        <pt x="4143" y="1040" on="0"/>
      </contour>
      <contour>
        <pt x="3009" y="1143" on="1"/>
        <pt x="3009" y="1072" on="0"/>
        <pt x="2866" y="1009" on="1"/>
        <pt x="2749" y="958" on="0"/>
        <pt x="2697" y="958" on="1"/>
        <pt x="2632" y="958" on="0"/>
        <pt x="2621" y="995" on="1"/>
        <pt x="2639" y="1014" on="0"/>
        <pt x="2765" y="1090" on="1"/>
        <pt x="2770" y="1112" on="0"/>
        <pt x="2733" y="1112" on="1"/>
        <pt x="2717" y="1112" on="0"/>
        <pt x="2669" y="1084" on="1"/>
        <pt x="2596" y="1041" on="0"/>
        <pt x="2594" y="1040" on="1"/>
        <pt x="2585" y="1045" on="0"/>
        <pt x="2569" y="1055" on="0"/>
        <pt x="2569" y="1071" on="1"/>
        <pt x="2569" y="1131" on="0"/>
        <pt x="2661" y="1187" on="1"/>
        <pt x="2738" y="1235" on="0"/>
        <pt x="2779" y="1235" on="1"/>
        <pt x="2790" y="1235" on="0"/>
        <pt x="2866" y="1212" on="1"/>
        <pt x="2953" y="1185" on="0"/>
        <pt x="2985" y="1179" on="1"/>
        <pt x="3009" y="1164" on="0"/>
      </contour>
      <contour>
        <pt x="2507" y="1553" on="1"/>
        <pt x="2281" y="1402" on="0"/>
        <pt x="1918" y="1266" on="1"/>
        <pt x="1904" y="1280" on="0"/>
        <pt x="1904" y="1296" on="1"/>
        <pt x="1904" y="1351" on="0"/>
        <pt x="2024" y="1417" on="1"/>
        <pt x="2093" y="1450" on="0"/>
        <pt x="2163" y="1483" on="1"/>
        <pt x="2192" y="1497" on="0"/>
        <pt x="2493" y="1633" on="1"/>
        <pt x="2507" y="1621" on="1"/>
      </contour>
      <contour>
        <pt x="3511" y="226" on="1"/>
        <pt x="3511" y="164" on="0"/>
        <pt x="3430" y="121" on="1"/>
        <pt x="3365" y="88" on="0"/>
        <pt x="3311" y="88" on="1"/>
        <pt x="3300" y="88" on="0"/>
        <pt x="3251" y="98" on="0"/>
        <pt x="3240" y="98" on="1"/>
        <pt x="3200" y="98" on="0"/>
        <pt x="2838" y="-55" on="0"/>
        <pt x="2748" y="-55" on="1"/>
        <pt x="2737" y="-55" on="0"/>
        <pt x="2700" y="-65" on="0"/>
        <pt x="2687" y="-65" on="1"/>
        <pt x="2602" y="-65" on="0"/>
        <pt x="2547" y="-23" on="1"/>
        <pt x="2489" y="20" on="0"/>
        <pt x="2410" y="149" on="1"/>
        <pt x="2397" y="141" on="0"/>
        <pt x="2376" y="121" on="1"/>
        <pt x="2358" y="61" on="0"/>
        <pt x="2206" y="4" on="1"/>
        <pt x="2073" y="-45" on="0"/>
        <pt x="1996" y="-45" on="1"/>
        <pt x="1935" y="-45" on="0"/>
        <pt x="1873" y="-15" on="1"/>
        <pt x="1801" y="19" on="0"/>
        <pt x="1801" y="67" on="1"/>
        <pt x="1801" y="97" on="0"/>
        <pt x="1856" y="179" on="1"/>
        <pt x="2009" y="119" on="0"/>
        <pt x="2016" y="119" on="1"/>
        <pt x="2113" y="119" on="0"/>
        <pt x="2224" y="163" on="1"/>
        <pt x="2364" y="220" on="0"/>
        <pt x="2364" y="308" on="1"/>
        <pt x="2364" y="321" on="0"/>
        <pt x="2313" y="608" on="0"/>
        <pt x="2313" y="620" on="1"/>
        <pt x="2313" y="684" on="0"/>
        <pt x="2336" y="722" on="1"/>
        <pt x="2366" y="722" on="0"/>
        <pt x="2381" y="700" on="1"/>
        <pt x="2419" y="546" on="0"/>
        <pt x="2458" y="393" on="1"/>
        <pt x="2509" y="202" on="0"/>
        <pt x="2595" y="139" on="1"/>
        <pt x="2627" y="155" on="0"/>
        <pt x="2717" y="274" on="1"/>
        <pt x="2793" y="374" on="0"/>
        <pt x="2861" y="374" on="1"/>
        <pt x="2861" y="374" on="0"/>
        <pt x="3237" y="251" on="0"/>
        <pt x="3311" y="251" on="1"/>
        <pt x="3310" y="251" on="0"/>
        <pt x="3392" y="259" on="1"/>
        <pt x="3464" y="265" on="0"/>
        <pt x="3498" y="261" on="1"/>
        <pt x="3511" y="248" on="0"/>
      </contour>
      <contour>
        <pt x="3091" y="-224" on="1"/>
        <pt x="3091" y="-254" on="0"/>
        <pt x="3025" y="-321" on="0"/>
        <pt x="2999" y="-321" on="1"/>
        <pt x="2968" y="-321" on="0"/>
        <pt x="2897" y="-259" on="0"/>
        <pt x="2897" y="-240" on="1"/>
        <pt x="2897" y="-211" on="0"/>
        <pt x="2962" y="-126" on="0"/>
        <pt x="2979" y="-126" on="1"/>
        <pt x="2998" y="-126" on="0"/>
        <pt x="3091" y="-205" on="0"/>
      </contour>
      <contour>
        <pt x="1709" y="180" on="1"/>
        <pt x="1709" y="137" on="0"/>
        <pt x="1689" y="91" on="1"/>
        <pt x="1666" y="35" on="0"/>
        <pt x="1629" y="27" on="1"/>
        <pt x="1504" y="937" on="1"/>
        <pt x="1504" y="1053" on="0"/>
        <pt x="1559" y="1101" on="1"/>
        <pt x="1568" y="1101" on="0"/>
        <pt x="1601" y="1078" on="0"/>
        <pt x="1602" y="1067" on="1"/>
      </contour>
      <contour>
        <pt x="777" y="897" on="1"/>
        <pt x="777" y="795" on="0"/>
        <pt x="700" y="795" on="1"/>
        <pt x="678" y="795" on="0"/>
        <pt x="593" y="863" on="0"/>
        <pt x="593" y="886" on="1"/>
        <pt x="593" y="928" on="0"/>
        <pt x="627" y="956" on="1"/>
        <pt x="657" y="979" on="0"/>
        <pt x="691" y="979" on="1"/>
        <pt x="727" y="979" on="0"/>
        <pt x="754" y="945" on="1"/>
        <pt x="777" y="918" on="0"/>
      </contour>
      <contour>
        <pt x="930" y="742" on="1"/>
        <pt x="932" y="715" on="0"/>
        <pt x="905" y="670" on="1"/>
        <pt x="874" y="620" on="0"/>
        <pt x="839" y="620" on="1"/>
        <pt x="827" y="620" on="0"/>
        <pt x="759" y="661" on="0"/>
        <pt x="746" y="661" on="1"/>
        <pt x="734" y="661" on="0"/>
        <pt x="636" y="600" on="0"/>
        <pt x="623" y="600" on="1"/>
        <pt x="588" y="600" on="0"/>
        <pt x="557" y="636" on="1"/>
        <pt x="532" y="665" on="0"/>
        <pt x="532" y="682" on="1"/>
        <pt x="532" y="709" on="0"/>
        <pt x="597" y="784" on="0"/>
        <pt x="629" y="784" on="1"/>
        <pt x="638" y="784" on="0"/>
        <pt x="697" y="754" on="0"/>
        <pt x="711" y="754" on="1"/>
        <pt x="723" y="754" on="0"/>
        <pt x="780" y="815" on="0"/>
        <pt x="793" y="815" on="1"/>
        <pt x="829" y="815" on="0"/>
      </contour>
      <contour>
        <pt x="1340" y="298" on="1"/>
        <pt x="1340" y="261" on="0"/>
        <pt x="1319" y="209" on="1"/>
        <pt x="1293" y="148" on="0"/>
        <pt x="1257" y="122" on="1"/>
        <pt x="1192" y="78" on="0"/>
        <pt x="996" y="30" on="1"/>
        <pt x="808" y="-14" on="0"/>
        <pt x="709" y="-14" on="1"/>
        <pt x="543" y="-14" on="1"/>
        <pt x="392" y="-14" on="0"/>
        <pt x="284" y="29" on="1"/>
        <pt x="122" y="94" on="0"/>
        <pt x="122" y="242" on="1"/>
        <pt x="122" y="355" on="0"/>
        <pt x="249" y="477" on="1"/>
        <pt x="265" y="464" on="0"/>
        <pt x="274" y="464" on="1"/>
        <pt x="245" y="347" on="0"/>
        <pt x="245" y="324" on="1"/>
        <pt x="245" y="275" on="0"/>
        <pt x="277" y="240" on="1"/>
        <pt x="369" y="139" on="0"/>
        <pt x="614" y="139" on="1"/>
        <pt x="853" y="139" on="0"/>
        <pt x="1207" y="250" on="1"/>
        <pt x="1207" y="286" on="1"/>
        <pt x="1207" y="297" on="0"/>
        <pt x="1094" y="423" on="0"/>
        <pt x="1094" y="436" on="1"/>
        <pt x="1094" y="457" on="0"/>
        <pt x="1114" y="496" on="1"/>
        <pt x="1135" y="538" on="0"/>
        <pt x="1156" y="538" on="1"/>
        <pt x="1228" y="538" on="0"/>
        <pt x="1289" y="433" on="1"/>
        <pt x="1340" y="346" on="0"/>
      </contour>
      <contour>
        <pt x="1032" y="-133" on="1"/>
        <pt x="1033" y="-165" on="0"/>
        <pt x="938" y="-211" on="1"/>
        <pt x="886" y="-232" on="0"/>
        <pt x="836" y="-253" on="1"/>
        <pt x="785" y="-278" on="0"/>
        <pt x="682" y="-328" on="1"/>
        <pt x="590" y="-373" on="0"/>
        <pt x="515" y="-372" on="1"/>
        <pt x="483" y="-372" on="1"/>
        <pt x="470" y="-358" on="0"/>
        <pt x="470" y="-342" on="1"/>
        <pt x="470" y="-325" on="0"/>
        <pt x="500" y="-270" on="0"/>
        <pt x="514" y="-264" on="1"/>
        <pt x="573" y="-239" on="0"/>
        <pt x="1008" y="-76" on="1"/>
        <pt x="1022" y="-87" on="0"/>
        <pt x="1032" y="-87" on="1"/>
      </contour>
      <contour>
        <pt x="2906" y="165" on="1"/>
        <pt x="2802" y="201" on="0"/>
        <pt x="2810" y="201" on="1"/>
        <pt x="2790" y="201" on="0"/>
        <pt x="2730" y="134" on="0"/>
        <pt x="2734" y="110" on="1"/>
        <pt x="2738" y="110" on="0"/>
        <pt x="2764" y="98" on="0"/>
        <pt x="2779" y="98" on="1"/>
        <pt x="2839" y="98" on="0"/>
      </contour>
    </TTGlyph>
    <TTGlyph name="uniFB56" xMin="296" yMin="-778" xMax="3163" yMax="1883">
      <contour>
        <pt x="2672" y="1546" on="1"/>
        <pt x="2672" y="1476" on="0"/>
        <pt x="2444" y="1358" on="1"/>
        <pt x="2370" y="1314" on="0"/>
        <pt x="2225" y="1239" on="1"/>
        <pt x="2220" y="1244" on="0"/>
        <pt x="2196" y="1257" on="0"/>
        <pt x="2191" y="1262" on="1"/>
        <pt x="2191" y="1303" on="0"/>
        <pt x="2205" y="1319" on="1"/>
        <pt x="2233" y="1353" on="0"/>
        <pt x="2398" y="1445" on="1"/>
        <pt x="2487" y="1496" on="0"/>
        <pt x="2657" y="1587" on="1"/>
        <pt x="2672" y="1572" on="0"/>
      </contour>
      <contour>
        <pt x="2211" y="1853" on="1"/>
        <pt x="2211" y="1836" on="0"/>
        <pt x="2174" y="1783" on="0"/>
        <pt x="2157" y="1774" on="1"/>
        <pt x="2120" y="1756" on="0"/>
        <pt x="1931" y="1653" on="1"/>
        <pt x="1789" y="1577" on="0"/>
        <pt x="1775" y="1577" on="1"/>
        <pt x="1712" y="1577" on="1"/>
        <pt x="1699" y="1590" on="0"/>
        <pt x="1699" y="1607" on="1"/>
        <pt x="1699" y="1657" on="0"/>
        <pt x="1733" y="1674" on="1"/>
        <pt x="1871" y="1738" on="0"/>
        <pt x="2153" y="1883" on="1"/>
        <pt x="2188" y="1883" on="1"/>
        <pt x="2196" y="1878" on="0"/>
        <pt x="2211" y="1869" on="0"/>
      </contour>
      <contour>
        <pt x="2159" y="1375" on="1"/>
        <pt x="2145" y="1348" on="0"/>
        <pt x="2091" y="1327" on="1"/>
        <pt x="2057" y="1317" on="0"/>
        <pt x="2023" y="1307" on="1"/>
        <pt x="1977" y="1283" on="0"/>
        <pt x="1889" y="1239" on="1"/>
        <pt x="1854" y="1239" on="1"/>
        <pt x="1850" y="1258" on="0"/>
        <pt x="1824" y="1316" on="1"/>
        <pt x="1802" y="1368" on="0"/>
        <pt x="1802" y="1382" on="1"/>
        <pt x="1802" y="1420" on="0"/>
        <pt x="1951" y="1566" on="0"/>
        <pt x="1991" y="1566" on="1"/>
        <pt x="2021" y="1566" on="0"/>
        <pt x="2068" y="1523" on="0"/>
        <pt x="2068" y="1495" on="1"/>
        <pt x="2068" y="1468" on="0"/>
        <pt x="2026" y="1430" on="1"/>
        <pt x="2070" y="1416" on="0"/>
        <pt x="2142" y="1421" on="1"/>
        <pt x="2159" y="1431" on="1"/>
      </contour>
      <contour>
        <pt x="3163" y="1495" on="1"/>
        <pt x="3163" y="1408" on="0"/>
        <pt x="2966" y="1275" on="1"/>
        <pt x="2863" y="1214" on="0"/>
        <pt x="2762" y="1154" on="1"/>
        <pt x="2614" y="1035" on="0"/>
        <pt x="2537" y="986" on="1"/>
        <pt x="2212" y="779" on="0"/>
        <pt x="2139" y="669" on="1"/>
        <pt x="2148" y="636" on="0"/>
        <pt x="2206" y="612" on="1"/>
        <pt x="2248" y="596" on="0"/>
        <pt x="2290" y="579" on="1"/>
        <pt x="2528" y="442" on="0"/>
        <pt x="2528" y="276" on="1"/>
        <pt x="2528" y="174" on="0"/>
        <pt x="2504" y="116" on="1"/>
        <pt x="2484" y="68" on="0"/>
        <pt x="2454" y="54" on="1"/>
        <pt x="2295" y="-20" on="0"/>
        <pt x="2150" y="-20" on="1"/>
        <pt x="2065" y="-20" on="0"/>
        <pt x="2020" y="33" on="1"/>
        <pt x="1983" y="76" on="0"/>
        <pt x="1971" y="240" on="1"/>
        <pt x="1971" y="247" on="0"/>
        <pt x="1952" y="435" on="1"/>
        <pt x="1938" y="573" on="0"/>
        <pt x="1938" y="664" on="1"/>
        <pt x="1938" y="706" on="0"/>
        <pt x="1941" y="742" on="1"/>
        <pt x="1944" y="784" on="0"/>
        <pt x="1929" y="936" on="1"/>
        <pt x="1914" y="1094" on="0"/>
        <pt x="1914" y="1095" on="1"/>
        <pt x="1914" y="1212" on="0"/>
        <pt x="1960" y="1249" on="1"/>
        <pt x="2018" y="1213" on="0"/>
        <pt x="2025" y="1043" on="1"/>
        <pt x="2034" y="819" on="0"/>
        <pt x="2053" y="758" on="1"/>
        <pt x="2223" y="937" on="0"/>
        <pt x="2580" y="1174" on="1"/>
        <pt x="2864" y="1355" on="0"/>
        <pt x="3148" y="1535" on="1"/>
        <pt x="3163" y="1520" on="0"/>
      </contour>
      <contour>
        <pt x="1648" y="1792" on="1"/>
        <pt x="1648" y="1739" on="0"/>
        <pt x="1582" y="1699" on="1"/>
        <pt x="1532" y="1672" on="0"/>
        <pt x="1482" y="1645" on="1"/>
        <pt x="1338" y="1546" on="0"/>
        <pt x="1222" y="1505" on="1"/>
        <pt x="1208" y="1520" on="0"/>
        <pt x="1208" y="1541" on="1"/>
        <pt x="1208" y="1606" on="0"/>
        <pt x="1262" y="1633" on="1"/>
        <pt x="1375" y="1697" on="0"/>
        <pt x="1600" y="1822" on="1"/>
        <pt x="1635" y="1822" on="1"/>
        <pt x="1648" y="1809" on="0"/>
      </contour>
      <contour>
        <pt x="1658" y="1140" on="1"/>
        <pt x="1658" y="1081" on="0"/>
        <pt x="1542" y="1013" on="1"/>
        <pt x="1439" y="952" on="0"/>
        <pt x="1392" y="952" on="1"/>
        <pt x="1368" y="952" on="0"/>
        <pt x="1300" y="1017" on="0"/>
        <pt x="1300" y="1034" on="1"/>
        <pt x="1300" y="1072" on="0"/>
        <pt x="1375" y="1146" on="1"/>
        <pt x="1386" y="1146" on="0"/>
        <pt x="1414" y="1112" on="0"/>
        <pt x="1428" y="1095" on="1"/>
        <pt x="1455" y="1113" on="0"/>
        <pt x="1497" y="1197" on="1"/>
        <pt x="1532" y="1197" on="1"/>
        <pt x="1571" y="1157" on="1"/>
        <pt x="1580" y="1179" on="0"/>
        <pt x="1620" y="1238" on="1"/>
        <pt x="1658" y="1238" on="1"/>
      </contour>
      <contour>
        <pt x="1709" y="655" on="1"/>
        <pt x="1709" y="621" on="0"/>
        <pt x="1653" y="553" on="0"/>
        <pt x="1627" y="553" on="1"/>
        <pt x="1589" y="553" on="0"/>
        <pt x="1535" y="604" on="0"/>
        <pt x="1535" y="635" on="1"/>
        <pt x="1535" y="667" on="0"/>
        <pt x="1569" y="704" on="1"/>
        <pt x="1599" y="737" on="0"/>
        <pt x="1617" y="737" on="1"/>
        <pt x="1674" y="737" on="0"/>
      </contour>
      <contour>
        <pt x="1218" y="1070" on="1"/>
        <pt x="1218" y="1058" on="0"/>
        <pt x="1207" y="1026" on="0"/>
        <pt x="1207" y="1017" on="1"/>
        <pt x="1206" y="1015" on="0"/>
        <pt x="1204" y="1014" on="1"/>
        <pt x="1195" y="1004" on="0"/>
        <pt x="1177" y="1004" on="1"/>
        <pt x="1164" y="1004" on="0"/>
        <pt x="1087" y="1065" on="0"/>
        <pt x="1074" y="1065" on="1"/>
        <pt x="1061" y="1065" on="0"/>
        <pt x="953" y="985" on="1"/>
        <pt x="821" y="889" on="0"/>
        <pt x="774" y="861" on="1"/>
        <pt x="738" y="861" on="1"/>
        <pt x="738" y="864" on="0"/>
        <pt x="726" y="876" on="0"/>
        <pt x="726" y="890" on="1"/>
        <pt x="726" y="916" on="0"/>
        <pt x="833" y="1011" on="1"/>
        <pt x="892" y="1061" on="0"/>
        <pt x="951" y="1111" on="1"/>
        <pt x="890" y="1198" on="0"/>
        <pt x="890" y="1223" on="1"/>
        <pt x="890" y="1271" on="0"/>
        <pt x="941" y="1339" on="1"/>
        <pt x="996" y="1413" on="0"/>
        <pt x="1054" y="1413" on="1"/>
        <pt x="1082" y="1413" on="0"/>
        <pt x="1109" y="1391" on="1"/>
        <pt x="1146" y="1362" on="0"/>
        <pt x="1136" y="1286" on="1"/>
        <pt x="1125" y="1203" on="0"/>
        <pt x="1137" y="1185" on="1"/>
        <pt x="1142" y="1179" on="0"/>
        <pt x="1190" y="1130" on="1"/>
        <pt x="1218" y="1101" on="0"/>
      </contour>
      <contour>
        <pt x="716" y="1141" on="1"/>
        <pt x="716" y="1090" on="0"/>
        <pt x="601" y="1022" on="1"/>
        <pt x="497" y="963" on="0"/>
        <pt x="454" y="963" on="1"/>
        <pt x="361" y="963" on="1"/>
        <pt x="338" y="986" on="1"/>
        <pt x="342" y="1027" on="0"/>
        <pt x="402" y="1045" on="1"/>
        <pt x="469" y="1064" on="0"/>
        <pt x="481" y="1094" on="1"/>
        <pt x="489" y="1106" on="0"/>
        <pt x="466" y="1106" on="1"/>
        <pt x="455" y="1106" on="0"/>
        <pt x="424" y="1084" on="1"/>
        <pt x="389" y="1059" on="0"/>
        <pt x="374" y="1055" on="1"/>
        <pt x="339" y="1055" on="1"/>
        <pt x="327" y="1056" on="0"/>
        <pt x="327" y="1080" on="1"/>
        <pt x="327" y="1099" on="0"/>
        <pt x="353" y="1138" on="1"/>
        <pt x="380" y="1180" on="0"/>
        <pt x="446" y="1229" on="0"/>
        <pt x="511" y="1229" on="1"/>
        <pt x="552" y="1229" on="0"/>
        <pt x="692" y="1194" on="1"/>
        <pt x="716" y="1179" on="0"/>
      </contour>
      <contour>
        <pt x="1791" y="276" on="1"/>
        <pt x="1791" y="242" on="0"/>
        <pt x="1739" y="174" on="0"/>
        <pt x="1720" y="174" on="1"/>
        <pt x="1707" y="174" on="0"/>
        <pt x="1599" y="246" on="0"/>
        <pt x="1586" y="246" on="1"/>
        <pt x="1567" y="246" on="0"/>
        <pt x="1495" y="222" on="1"/>
        <pt x="1416" y="197" on="0"/>
        <pt x="1368" y="170" on="1"/>
        <pt x="1343" y="156" on="0"/>
        <pt x="1303" y="75" on="0"/>
        <pt x="1303" y="14" on="1"/>
        <pt x="1303" y="-13" on="0"/>
        <pt x="1313" y="-129" on="0"/>
        <pt x="1313" y="-156" on="1"/>
        <pt x="1313" y="-194" on="0"/>
        <pt x="1306" y="-222" on="1"/>
        <pt x="1304" y="-228" on="0"/>
        <pt x="1216" y="-347" on="1"/>
        <pt x="1157" y="-347" on="1"/>
        <pt x="1092" y="-187" on="0"/>
        <pt x="1078" y="-98" on="1"/>
        <pt x="1074" y="-81" on="0"/>
        <pt x="1074" y="-59" on="1"/>
        <pt x="1074" y="-33" on="0"/>
        <pt x="1086" y="61" on="0"/>
        <pt x="1086" y="77" on="1"/>
        <pt x="1086" y="114" on="0"/>
        <pt x="1069" y="123" on="1"/>
        <pt x="887" y="120" on="0"/>
        <pt x="872" y="85" on="1"/>
        <pt x="865" y="38" on="0"/>
        <pt x="858" y="-9" on="1"/>
        <pt x="848" y="-73" on="0"/>
        <pt x="796" y="-122" on="1"/>
        <pt x="782" y="-126" on="0"/>
        <pt x="769" y="-126" on="1"/>
        <pt x="712" y="-126" on="0"/>
        <pt x="662" y="-63" on="1"/>
        <pt x="621" y="-9" on="0"/>
        <pt x="606" y="55" on="1"/>
        <pt x="610" y="85" on="0"/>
        <pt x="611" y="147" on="1"/>
        <pt x="603" y="161" on="0"/>
        <pt x="586" y="185" on="1"/>
        <pt x="576" y="187" on="0"/>
        <pt x="564" y="187" on="1"/>
        <pt x="511" y="187" on="0"/>
        <pt x="461" y="154" on="1"/>
        <pt x="407" y="118" on="0"/>
        <pt x="407" y="71" on="1"/>
        <pt x="407" y="61" on="0"/>
        <pt x="409" y="52" on="1"/>
        <pt x="511" y="-624" on="1"/>
        <pt x="511" y="-638" on="0"/>
        <pt x="480" y="-765" on="1"/>
        <pt x="470" y="-768" on="0"/>
        <pt x="455" y="-778" on="1"/>
        <pt x="443" y="-761" on="0"/>
        <pt x="422" y="-734" on="1"/>
        <pt x="405" y="-636" on="0"/>
        <pt x="375" y="-456" on="1"/>
        <pt x="296" y="20" on="0"/>
        <pt x="296" y="10" on="1"/>
        <pt x="296" y="79" on="0"/>
        <pt x="340" y="170" on="1"/>
        <pt x="386" y="265" on="0"/>
        <pt x="500" y="341" on="0"/>
        <pt x="577" y="351" on="1"/>
        <pt x="591" y="352" on="0"/>
        <pt x="664" y="399" on="0"/>
        <pt x="675" y="399" on="1"/>
        <pt x="688" y="399" on="0"/>
        <pt x="806" y="287" on="0"/>
        <pt x="831" y="287" on="0"/>
        <pt x="990" y="266" on="0"/>
        <pt x="1003" y="266" on="1"/>
        <pt x="1195" y="266" on="0"/>
        <pt x="1323" y="460" on="1"/>
        <pt x="1360" y="460" on="1"/>
        <pt x="1360" y="455" on="0"/>
        <pt x="1372" y="439" on="0"/>
        <pt x="1372" y="424" on="1"/>
        <pt x="1372" y="383" on="0"/>
        <pt x="1310" y="281" on="1"/>
        <pt x="1305" y="275" on="0"/>
        <pt x="1315" y="266" on="1"/>
        <pt x="1354" y="306" on="0"/>
        <pt x="1466" y="357" on="1"/>
        <pt x="1582" y="410" on="0"/>
        <pt x="1643" y="410" on="1"/>
        <pt x="1698" y="410" on="0"/>
        <pt x="1747" y="356" on="1"/>
        <pt x="1791" y="310" on="0"/>
      </contour>
      <contour>
        <pt x="2425" y="216" on="1"/>
        <pt x="2407" y="358" on="0"/>
        <pt x="2147" y="463" on="1"/>
        <pt x="2145" y="464" on="0"/>
        <pt x="2141" y="474" on="1"/>
        <pt x="2138" y="481" on="0"/>
        <pt x="2123" y="481" on="1"/>
        <pt x="2070" y="481" on="1"/>
        <pt x="2057" y="458" on="0"/>
        <pt x="2057" y="415" on="1"/>
        <pt x="2057" y="143" on="0"/>
        <pt x="2196" y="143" on="1"/>
        <pt x="2251" y="143" on="0"/>
      </contour>
    </TTGlyph>
    <TTGlyph name="uniFB57" xMin="252" yMin="-368" xMax="2494" yMax="1546">
      <contour>
        <pt x="2229" y="1489" on="1"/>
        <pt x="2229" y="1416" on="0"/>
        <pt x="2041" y="1327" on="1"/>
        <pt x="2030" y="1322" on="0"/>
        <pt x="1884" y="1234" on="1"/>
        <pt x="1768" y="1164" on="0"/>
        <pt x="1720" y="1157" on="1"/>
        <pt x="1706" y="1171" on="0"/>
        <pt x="1706" y="1198" on="1"/>
        <pt x="1706" y="1249" on="0"/>
        <pt x="1731" y="1265" on="1"/>
        <pt x="2148" y="1515" on="0"/>
        <pt x="2163" y="1515" on="1"/>
        <pt x="2216" y="1515" on="1"/>
        <pt x="2229" y="1513" on="0"/>
      </contour>
      <contour>
        <pt x="1717" y="1494" on="1"/>
        <pt x="1717" y="1441" on="0"/>
        <pt x="1515" y="1309" on="1"/>
        <pt x="1355" y="1203" on="0"/>
        <pt x="1292" y="1177" on="1"/>
        <pt x="1277" y="1189" on="0"/>
        <pt x="1267" y="1189" on="1"/>
        <pt x="1267" y="1243" on="1"/>
        <pt x="1266" y="1266" on="0"/>
        <pt x="1422" y="1370" on="1"/>
        <pt x="1541" y="1448" on="0"/>
        <pt x="1659" y="1525" on="1"/>
        <pt x="1693" y="1525" on="1"/>
        <pt x="1701" y="1520" on="0"/>
        <pt x="1717" y="1510" on="0"/>
      </contour>
      <contour>
        <pt x="2126" y="-122" on="1"/>
        <pt x="2126" y="-153" on="0"/>
        <pt x="2089" y="-190" on="1"/>
        <pt x="2055" y="-225" on="0"/>
        <pt x="2034" y="-225" on="1"/>
        <pt x="2026" y="-225" on="0"/>
        <pt x="1912" y="-172" on="1"/>
        <pt x="1913" y="-117" on="0"/>
        <pt x="1966" y="-40" on="0"/>
        <pt x="2003" y="-40" on="1"/>
        <pt x="2037" y="-40" on="0"/>
        <pt x="2083" y="-73" on="1"/>
        <pt x="2126" y="-104" on="0"/>
      </contour>
      <contour>
        <pt x="877" y="1234" on="1"/>
        <pt x="877" y="1177" on="0"/>
        <pt x="831" y="1177" on="1"/>
        <pt x="816" y="1177" on="0"/>
        <pt x="784" y="1198" on="0"/>
        <pt x="770" y="1198" on="1"/>
        <pt x="776" y="1198" on="0"/>
        <pt x="664" y="1103" on="1"/>
        <pt x="547" y="1004" on="0"/>
        <pt x="462" y="983" on="1"/>
        <pt x="448" y="995" on="0"/>
        <pt x="438" y="995" on="1"/>
        <pt x="438" y="1031" on="1"/>
        <pt x="501" y="1085" on="0"/>
        <pt x="565" y="1140" on="1"/>
        <pt x="638" y="1204" on="0"/>
        <pt x="662" y="1244" on="1"/>
        <pt x="654" y="1271" on="0"/>
        <pt x="617" y="1290" on="1"/>
        <pt x="611" y="1260" on="0"/>
        <pt x="604" y="1230" on="1"/>
        <pt x="594" y="1188" on="0"/>
        <pt x="554" y="1188" on="1"/>
        <pt x="542" y="1188" on="0"/>
        <pt x="536" y="1198" on="0"/>
        <pt x="524" y="1198" on="1"/>
        <pt x="522" y="1198" on="0"/>
        <pt x="431" y="1130" on="1"/>
        <pt x="335" y="1058" on="0"/>
        <pt x="266" y="1044" on="1"/>
        <pt x="252" y="1058" on="0"/>
        <pt x="252" y="1075" on="1"/>
        <pt x="252" y="1080" on="0"/>
        <pt x="406" y="1233" on="0"/>
        <pt x="406" y="1249" on="1"/>
        <pt x="406" y="1259" on="0"/>
        <pt x="354" y="1333" on="0"/>
        <pt x="354" y="1346" on="1"/>
        <pt x="354" y="1393" on="0"/>
        <pt x="395" y="1463" on="1"/>
        <pt x="442" y="1546" on="0"/>
        <pt x="498" y="1546" on="1"/>
        <pt x="579" y="1546" on="0"/>
        <pt x="579" y="1411" on="1"/>
        <pt x="579" y="1360" on="0"/>
        <pt x="572" y="1347" on="1"/>
        <pt x="573" y="1343" on="0"/>
        <pt x="584" y="1330" on="1"/>
        <pt x="588" y="1368" on="0"/>
        <pt x="614" y="1441" on="1"/>
        <pt x="682" y="1546" on="0"/>
        <pt x="744" y="1546" on="1"/>
        <pt x="783" y="1546" on="0"/>
        <pt x="812" y="1481" on="1"/>
        <pt x="819" y="1464" on="0"/>
        <pt x="816" y="1417" on="1"/>
        <pt x="812" y="1365" on="0"/>
        <pt x="818" y="1337" on="1"/>
        <pt x="821" y="1324" on="0"/>
        <pt x="850" y="1286" on="1"/>
        <pt x="877" y="1252" on="0"/>
      </contour>
      <contour>
        <pt x="2494" y="351" on="1"/>
        <pt x="2494" y="336" on="0"/>
        <pt x="2432" y="275" on="0"/>
        <pt x="2409" y="269" on="1"/>
        <pt x="2400" y="266" on="0"/>
        <pt x="2316" y="266" on="1"/>
        <pt x="2302" y="266" on="0"/>
        <pt x="2225" y="276" on="0"/>
        <pt x="2213" y="276" on="1"/>
        <pt x="2148" y="276" on="0"/>
        <pt x="2061" y="246" on="1"/>
        <pt x="1985" y="216" on="0"/>
        <pt x="1908" y="187" on="1"/>
        <pt x="1905" y="186" on="0"/>
        <pt x="1777" y="155" on="1"/>
        <pt x="1679" y="131" on="0"/>
        <pt x="1632" y="99" on="1"/>
        <pt x="1611" y="85" on="0"/>
        <pt x="1590" y="11" on="1"/>
        <pt x="1564" y="-79" on="0"/>
        <pt x="1538" y="-120" on="1"/>
        <pt x="1457" y="-252" on="0"/>
        <pt x="1384" y="-308" on="1"/>
        <pt x="1304" y="-368" on="0"/>
        <pt x="1194" y="-368" on="1"/>
        <pt x="1128" y="-368" on="0"/>
        <pt x="1030" y="-349" on="1"/>
        <pt x="914" y="-326" on="0"/>
        <pt x="877" y="-293" on="1"/>
        <pt x="897" y="-235" on="0"/>
        <pt x="934" y="-235" on="1"/>
        <pt x="946" y="-235" on="0"/>
        <pt x="1053" y="-266" on="0"/>
        <pt x="1066" y="-266" on="1"/>
        <pt x="1153" y="-266" on="0"/>
        <pt x="1269" y="-200" on="1"/>
        <pt x="1404" y="-124" on="0"/>
        <pt x="1464" y="-13" on="1"/>
        <pt x="1479" y="11" on="0"/>
        <pt x="1494" y="35" on="1"/>
        <pt x="1512" y="63" on="0"/>
        <pt x="1512" y="82" on="1"/>
        <pt x="1512" y="94" on="0"/>
        <pt x="1440" y="187" on="0"/>
        <pt x="1440" y="199" on="1"/>
        <pt x="1440" y="233" on="0"/>
        <pt x="1478" y="287" on="0"/>
        <pt x="1501" y="287" on="1"/>
        <pt x="1514" y="287" on="0"/>
        <pt x="1596" y="276" on="0"/>
        <pt x="1609" y="276" on="1"/>
        <pt x="1759" y="276" on="0"/>
        <pt x="1860" y="354" on="1"/>
        <pt x="1803" y="419" on="0"/>
        <pt x="1727" y="419" on="1"/>
        <pt x="1718" y="419" on="0"/>
        <pt x="1622" y="379" on="0"/>
        <pt x="1608" y="379" on="1"/>
        <pt x="1554" y="379" on="1"/>
        <pt x="1554" y="433" on="1"/>
        <pt x="1553" y="465" on="0"/>
        <pt x="1634" y="532" on="1"/>
        <pt x="1700" y="586" on="0"/>
        <pt x="1730" y="600" on="1"/>
        <pt x="1741" y="604" on="0"/>
        <pt x="1772" y="604" on="1"/>
        <pt x="1812" y="604" on="0"/>
        <pt x="1879" y="565" on="1"/>
        <pt x="1976" y="510" on="0"/>
        <pt x="1990" y="504" on="1"/>
        <pt x="2071" y="469" on="0"/>
        <pt x="2132" y="453" on="1"/>
        <pt x="2257" y="419" on="0"/>
        <pt x="2331" y="419" on="1"/>
        <pt x="2379" y="419" on="0"/>
        <pt x="2494" y="417" on="1"/>
      </contour>
      <contour>
        <pt x="1246" y="246" on="1"/>
        <pt x="1246" y="216" on="0"/>
        <pt x="1223" y="152" on="1"/>
        <pt x="1201" y="95" on="0"/>
        <pt x="1192" y="83" on="1"/>
        <pt x="1182" y="81" on="0"/>
        <pt x="1165" y="91" on="1"/>
        <pt x="1147" y="102" on="0"/>
        <pt x="1146" y="117" on="1"/>
        <pt x="1141" y="206" on="0"/>
        <pt x="1119" y="383" on="1"/>
        <pt x="1000" y="1006" on="0"/>
        <pt x="1000" y="1075" on="1"/>
        <pt x="1000" y="1112" on="0"/>
        <pt x="1016" y="1162" on="1"/>
        <pt x="1034" y="1217" on="0"/>
        <pt x="1055" y="1228" on="1"/>
        <pt x="1091" y="1226" on="0"/>
        <pt x="1099" y="1176" on="1"/>
        <pt x="1104" y="1139" on="0"/>
        <pt x="1108" y="1102" on="1"/>
        <pt x="1139" y="1003" on="0"/>
        <pt x="1176" y="691" on="1"/>
        <pt x="1188" y="670" on="0"/>
        <pt x="1201" y="630" on="1"/>
        <pt x="1246" y="301" on="0"/>
      </contour>
      <contour>
        <pt x="948" y="230" on="1"/>
        <pt x="948" y="120" on="0"/>
        <pt x="902" y="63" on="1"/>
        <pt x="883" y="38" on="0"/>
        <pt x="762" y="8" on="1"/>
        <pt x="647" y="-20" on="0"/>
        <pt x="580" y="-20" on="1"/>
        <pt x="457" y="-20" on="0"/>
        <pt x="457" y="66" on="1"/>
        <pt x="457" y="88" on="0"/>
        <pt x="471" y="120" on="1"/>
        <pt x="488" y="164" on="0"/>
        <pt x="513" y="164" on="1"/>
        <pt x="526" y="164" on="0"/>
        <pt x="593" y="143" on="0"/>
        <pt x="606" y="143" on="1"/>
        <pt x="629" y="143" on="0"/>
        <pt x="807" y="197" on="0"/>
        <pt x="826" y="211" on="1"/>
        <pt x="835" y="262" on="0"/>
        <pt x="715" y="376" on="1"/>
        <pt x="692" y="387" on="0"/>
        <pt x="653" y="414" on="1"/>
        <pt x="631" y="437" on="0"/>
        <pt x="631" y="481" on="1"/>
        <pt x="631" y="563" on="0"/>
        <pt x="698" y="563" on="1"/>
        <pt x="799" y="563" on="0"/>
        <pt x="881" y="424" on="1"/>
        <pt x="948" y="309" on="0"/>
      </contour>
    </TTGlyph>
</ttFont>
